<svg width="140" height="226" viewBox="0 0 140 226" fill="none" xmlns="http://www.w3.org/2000/svg">
<path d="M86.7747 1.82672C93.2424 2.87821 97.9542 6.57232 101.488 12.0189C102.873 14.1497 104.586 16.0023 106.254 17.8939C107.001 18.7451 108.103 18.9454 108.997 19.5184C109.025 20.2138 108.856 20.7201 108.048 20.3306C107.012 19.8299 106.914 20.5866 107.143 21.1652C107.759 22.7174 108.147 24.4364 109.592 25.5213C112.008 27.335 114.238 29.4435 117.15 30.4783C117.521 30.6118 117.854 31.0903 118.263 30.7009C118.623 30.3559 118.47 29.8775 118.263 29.5103C117.423 28.0248 116.992 26.2612 115.405 25.2876C114.98 25.0262 114.713 24.531 114.576 24.0081L114.642 23.9413C115.7 23.7188 115.787 25.3878 116.867 25.1319C117.057 25.321 117.243 25.5102 117.434 25.6993C118.11 27.5686 119.212 29.1431 120.629 30.5061C120.7 30.5729 120.728 30.6508 120.706 30.7454C121.268 32.559 121.698 34.4116 122.293 36.2253C122.729 37.5494 123.422 38.5063 124.447 39.3075C124.523 39.4243 124.6 39.5411 124.676 39.658C124.654 39.9139 124.758 40.103 124.998 40.1976C125.27 40.32 125.281 40.587 125.341 40.8318C125.325 41.0154 125.238 41.2324 125.303 41.3826C126.879 44.9154 126.83 49.049 129.164 52.3092C129.453 52.7097 129.535 53.2661 129.726 53.7445C129.998 54.4344 129.993 55.2355 130.533 55.8197C130.587 56.0311 130.636 56.248 130.691 56.4595C130.8 57.8781 130.767 59.3302 131.64 60.5653C131.842 60.7822 131.814 61.0381 131.771 61.3052C131.847 63.2635 131.956 65.233 132.556 67.1023C133.374 69.6448 134.252 72.1539 134.143 74.8911C134.11 75.7256 133.969 76.5879 134.318 77.4002C134.437 78.2069 134.208 78.9802 134.099 79.7646C133.745 80.4934 133.712 81.2222 134.105 81.951C134.165 82.2626 134.23 82.5797 134.29 82.8913C134.105 83.353 134.399 83.531 134.743 83.6757C134.825 83.7647 134.912 83.8537 134.994 83.9427C134.83 84.4546 134.492 84.9942 135.25 85.328C135.315 86.1236 135.397 86.9247 135.201 87.7147C134.863 88.2599 134.825 88.7996 135.217 89.3392C135.305 89.5117 135.397 89.6842 135.485 89.8566C135.599 91.2197 135.315 92.8108 135.91 93.8957C137.181 96.2212 136.761 98.7971 137.491 101.162C137.993 102.769 137.459 104.472 137.906 106.08C137.879 106.319 137.857 106.564 137.83 106.803C137.273 109.618 137.033 112.505 137.955 115.226C139.013 118.347 138.877 121.496 138.887 124.678C138.893 125.863 138.882 127.048 138.887 128.233C138.893 128.75 138.811 129.285 139.193 129.724C139.313 130.475 139.264 131.221 139.155 131.961C138.997 132.233 139.215 132.723 138.637 132.851C138.604 132.467 138.588 132.144 138.544 131.821C138.489 131.388 138.686 130.737 137.977 130.753C137.344 130.77 137.186 131.321 137.175 131.888C137.159 132.701 137.077 133.513 136.646 134.208C136.341 134.698 136.079 135.182 135.937 135.738C135.828 136.161 135.735 136.617 136.155 136.901C136.673 137.246 137.017 136.829 137.355 136.506C137.802 136.072 138.102 135.549 138.277 134.943C138.375 134.603 138.533 134.247 138.92 134.709C139.226 135.071 139.302 138.314 138.92 138.592C137.606 139.566 137.884 140.984 137.791 142.309C137.71 142.909 137.551 143.488 137.246 144.011C136.799 144.812 136.03 145.585 135.964 146.42C135.746 149.341 135.55 152.234 134.127 154.871C133.565 155.911 133.39 157.057 133.2 158.237C132.905 160.089 132.551 161.869 131.056 163.383C129.486 164.979 130.053 167.411 129.851 169.508C129.808 169.725 129.764 169.942 129.715 170.153C129.273 171.11 129.011 172.117 128.793 173.147C128.722 173.286 128.657 173.425 128.586 173.564C128.531 173.586 128.51 173.625 128.521 173.686C128.193 174.521 127.632 175.183 127.048 175.828C126.808 175.823 126.568 175.823 126.323 175.817L126.285 175.772C126.11 174.888 126.072 174.148 126.895 173.414C127.599 172.79 127.179 171.817 126.23 171.439C125.81 171.644 125.134 171.366 124.949 171.956C124.763 172.54 125.39 172.629 125.717 172.885C125.603 174.61 124 174.109 123.138 174.432C122.009 174.855 121.208 173.619 120.499 172.779C119.904 172.078 120.155 171.377 120.749 170.777C121.437 170.087 121.491 169.302 121.382 168.329C121.131 166.087 121.077 163.817 120.946 161.563C121.595 160.562 121.268 159.082 122.456 158.342C122.953 158.036 123.782 157.775 123.313 157.04C122.86 156.334 122.151 156.862 121.595 157.174C121.355 157.307 121.18 157.547 120.957 157.714C119.691 158.648 118.563 159.794 117.096 160.429C116.289 160.779 115.95 160.595 116.179 159.644C116.343 158.96 116.43 158.259 116.55 157.569C117.788 156.072 117.985 154.17 118.688 152.128C117.87 152.924 117.287 153.497 116.703 154.07C114.952 153.652 114.832 153.413 115.574 151.644C115.803 151.093 115.961 150.648 115.481 150.103C114.32 148.801 114.26 147.755 115.078 146.158C115.7 144.946 116.283 143.727 116.403 142.309C116.463 141.596 115.814 140.962 116.261 140.25C116.73 139.438 117.227 138.642 117.674 137.819C119.501 134.459 121.169 131.037 121.3 127.081C121.328 126.33 121.6 125.707 122.118 125.184C123.438 125.991 123.487 126.23 122.451 127.488C122.974 127.399 123.362 128.317 123.792 127.471C124.387 126.303 124.927 125.184 124.3 123.727C123.356 121.535 123.683 119.187 124.027 116.9C124.158 116.044 124.534 116.01 125.079 116.706C125.925 117.774 126.83 117.585 127.25 116.261C127.506 115.459 127.632 114.614 127.817 113.79C128.248 114.358 128.581 115.187 129.502 114.586C130.244 114.102 130.473 112.745 129.895 112.105C129.279 111.426 128.624 111.543 128.03 112.205C127.773 109.813 127.163 107.504 126.252 105.29C126.05 104.806 125.543 104.233 124.965 104.538C124.469 104.8 124.676 105.44 124.823 105.957C125.385 107.921 125.581 109.946 125.385 111.971C125.298 112.884 125.216 114.069 123.743 113.902C123.367 113.857 123.133 114.163 122.996 114.447C121.72 117.145 120.373 119.821 120.139 122.892C119.67 123.538 119.441 124.305 119.086 125.006C118.508 126.152 118.001 127.421 116.539 127.716C116.43 126.775 116.523 125.846 116.67 124.912C117.03 122.581 118.099 120.439 118.355 118.085C119.893 113.54 120.76 108.839 121.513 104.11C121.731 103.543 121.955 102.981 122.173 102.413C124.447 100.928 124.518 99.5092 122.424 97.6955C122.195 97.5008 121.862 97.2727 122.205 96.8888C122.205 96.4771 122.462 96.1934 122.685 95.8874C123.094 95.5091 123.694 94.8915 123.231 94.5299C122.075 93.6119 122.369 92.3435 122.156 91.2141C121.507 87.7648 121.573 84.1931 120.428 80.8272C120.64 80.1429 120.673 79.4419 120.706 78.7298C120.793 76.8271 120.166 74.9967 120.171 73.1108C120.177 71.6309 119.621 70.6629 118.175 70.3124C118.71 68.7713 119.37 67.2525 118.743 65.5612C118.595 65.1718 118.524 64.7267 118.53 64.3094C118.557 62.2232 118.083 60.4151 116.043 59.4359C115.95 58.4456 116.621 57.8281 117.237 57.3051C118.159 56.5207 118.334 55.6194 118.088 54.5178C117.526 51.9753 116.73 49.5052 115.634 47.1519C115.345 46.5232 115.051 45.4606 114.151 45.7666C113.376 46.0281 113.622 47.074 113.785 47.6748C114.854 51.6582 114.331 55.7807 114.892 59.7975C114.353 61.1661 114.642 62.6015 114.587 64.009C114.554 64.7712 114.707 65.6168 113.469 65.3887C112.929 65.2886 112.853 65.7559 112.957 66.1398C113.087 66.6349 113.327 67.1023 113.524 67.5807C114.194 69.1941 114.713 70.7964 113.436 72.3708C113.071 71.2025 112.695 70.0398 112.346 68.8659C109.973 60.8546 107.269 52.9823 103.478 45.5329C103.473 44.8542 103.282 44.22 102.922 43.6581C101.941 42.1559 101.128 40.587 100.981 38.7455C102.044 38.7233 102.862 38.2003 103.293 37.2601C103.746 36.2698 102.966 35.6245 102.421 34.9457C102.251 34.7343 102.137 34.4728 101.995 34.2336C101.99 33.7051 102.11 33.2378 102.568 32.9262C103.315 33.2656 103.522 34.139 104.166 34.6008C104.706 34.9847 105.294 35.1683 105.862 34.9847C106.456 34.7955 106.282 34.1168 106.331 33.6328C106.374 33.2155 106.385 32.776 106.303 32.3699C106.096 31.3573 104.929 30.8566 103.478 30.9123C102.268 30.9623 102.54 31.7968 102.491 32.5034C101.499 31.4074 100.386 30.4004 99.5629 29.1876C98.9085 28.2196 97.7797 27.4741 97.8124 26.0832C98.2923 25.1319 97.8887 23.4462 97.0162 22.7118C96.2091 22.0331 95.6747 22.684 95.0857 23.1012C94.2895 22.9343 94.2077 22.2166 94.0768 21.6102C93.8914 20.7813 93.5533 20.0469 93.0952 19.3515C94.3877 17.3542 93.7387 15.8354 91.421 15.4126C90.7012 13.7436 90.0195 13.3263 88.7597 13.7992C88.4653 13.6267 88.1653 13.4543 87.8708 13.2818C87.5818 12.9424 87.2928 12.6031 87.0037 12.2637C86.7802 11.9744 86.5457 11.7129 86.1421 11.9855C85.973 11.98 85.804 11.9744 85.6349 11.9688C85.1332 10.2275 84.1516 9.02022 82.2538 8.84219C82.7337 8.19683 83.11 7.39014 82.2974 6.91168C81.4958 6.43879 80.945 7.1064 80.656 7.90197C80.6396 7.94648 80.6233 7.99099 80.6069 8.03549C79.5053 7.74063 78.3819 7.50697 77.3021 7.13422C75.8406 6.63352 74.4664 6.35534 73.2393 7.65718C72.9612 7.95204 72.5631 8.13007 72.2195 8.35817C72.0287 8.34705 71.8433 8.33592 71.6524 8.33036C71.5324 8.3081 71.3306 8.24134 71.3143 8.27472C71.1452 8.60852 71.4234 8.74762 71.6142 8.92564C72.2795 9.57656 72.9449 10.2275 73.6102 10.8784C72.9994 11.3235 72.454 10.9006 71.9087 10.7171C69.8091 10.0161 67.7041 10.1774 65.6209 10.6892C64.4321 10.9841 64.2957 11.7852 65.1683 12.681C65.4246 12.948 65.7245 13.1872 65.7954 13.5878C63.8049 13.955 63.7613 13.9271 63.2269 12.119C62.9815 11.2845 62.5125 10.6169 61.8199 10.0828C60.5765 9.12592 59.1041 8.68085 57.7135 8.03549C56.6992 7.5626 56.0338 7.81296 55.7121 8.92564C55.5539 9.47086 55.3031 9.99938 55.2485 10.5557C55.1177 11.9688 54.845 13.5433 56.3829 14.3388C57.239 14.7839 57.299 15.2735 57.0427 16.0023C56.7919 16.7144 56.8464 17.2096 57.7189 17.2763C57.6589 17.3876 57.5608 17.6101 57.539 17.599C56.2792 17.204 55.2104 17.777 54.1142 18.2499C51.8456 19.2235 49.7351 20.6811 47.1175 20.5532C46.2886 20.1137 45.656 19.4294 44.9852 18.7951C43.3547 17.2596 42.9075 17.1873 40.9333 18.1609C39.3737 18.9287 37.8249 19.7242 36.2707 20.5087C35.5672 19.7409 35.6544 18.9454 36.0689 18.0441C36.9469 16.1358 38.4684 14.6059 39.101 12.5641C39.2155 12.642 39.3355 12.7143 39.4446 12.8033C40.3607 13.5655 41.4078 13.5822 42.2585 12.8924C43.1256 12.1858 42.4276 11.3457 42.0567 10.6002C41.9749 10.4333 41.8986 10.2609 41.8168 10.0884C41.7895 9.42079 42.0786 8.63634 42.5421 8.48613C44.9852 7.685 46.5885 5.61541 48.699 4.39702C51.4857 2.78363 54.7577 2.82814 57.8934 2.64454C60.2548 2.51102 62.627 2.63898 64.9829 2.49433C65.8118 2.44426 66.3899 2.47208 66.8752 3.22314C67.4751 4.14667 68.2058 4.2023 68.8766 3.27877C69.2311 2.79476 69.6237 2.68349 70.1963 2.77807C72.6177 3.16751 75.0608 3.30103 77.5094 3.17307C79.3144 3.07849 81.0159 3.47906 82.6628 4.15779C84.8551 5.05907 87.1619 5.64879 89.2778 6.75591C90.0795 7.17316 90.9193 7.22324 91.6391 6.62239C92.5335 5.87133 93.3461 6.19957 94.2186 6.61126C94.6112 6.80042 94.9003 7.28444 95.4238 7.13422C95.5547 6.90612 95.4402 6.76704 95.3202 6.62239C93.4006 4.21343 90.7121 3.18976 87.9145 2.36637C87.5164 2.26623 86.9601 2.4387 86.7747 1.82672ZM124.638 84.5324C124.632 87.2752 124.6 90.0124 124.643 92.7552C124.665 93.9402 124.769 95.1808 126.241 95.5424C126.236 95.9708 125.957 96.4994 126.568 96.7275C126.754 96.7942 127.032 96.7441 127.206 96.6384C127.473 96.4827 127.468 96.1823 127.386 95.8985C127.212 95.3255 126.683 95.6537 126.345 95.4813C126.334 94.9583 126.912 94.5744 126.71 94.0181C125.936 91.8706 126.301 89.6397 126.323 87.4477C126.334 86.1236 126.028 85.1611 124.867 84.5436C125.09 81.7507 124.72 78.9802 124.474 76.2151C124.436 75.7756 124.469 74.9578 123.765 75.058C123.073 75.1581 123.083 75.9036 122.996 76.5323C122.762 78.1568 123.334 79.6645 123.542 81.2222C123.705 82.3905 123.923 83.5477 124.638 84.5324ZM125.821 133.14C125.434 132.011 124.42 131.282 123.596 131.599C122.724 131.933 122.827 132.639 123.04 133.357C122.794 133.491 122.505 133.607 122.505 133.947C122.516 135.95 121.726 137.785 121.398 139.705C121.126 141.302 119.866 142.531 119.97 144.222C118.617 145.201 119.026 146.754 118.786 148.083C118.715 148.473 118.715 149.024 119.228 149.146C119.751 149.268 119.915 148.745 120.068 148.373C120.673 146.909 121.246 145.435 121.835 143.966C122.096 143.11 122.369 142.264 122.609 141.402C122.876 140.428 123.351 140.161 124.201 140.806C125.063 141.457 125.717 141.346 126.377 140.372C127.37 138.909 127.495 137.196 127.953 135.582C128.21 134.681 128.401 133.73 128.177 132.784C127.959 131.855 127.397 131.638 126.645 132.2C126.317 132.439 126.094 132.823 125.821 133.14ZM116.834 42.1615C117.194 42.4842 117.259 43.1128 117.93 43.1128C118.912 43.1073 119.282 42.3395 118.797 41.1211C117.679 38.306 115.76 36.0584 113.78 33.8553C112.711 32.6647 111.468 31.6689 110.121 30.8232C109.734 30.5785 109.254 30.3058 108.834 30.673C108.496 30.9679 108.796 31.3796 108.877 31.7301C110.083 36.9819 110.088 36.9819 114.767 39.5578C115.012 39.6913 115.28 39.797 115.503 39.9639C116.234 40.5036 116.867 41.1211 116.828 42.1559C116.179 42.0391 115.929 41.377 115.421 41.071C114.674 40.6148 113.878 40.6204 113.251 41.2101C112.651 41.772 112.558 42.5398 113.076 43.2408C113.578 43.9195 113.993 45.1045 115.002 44.6761C115.94 44.2756 116.916 43.519 116.834 42.1615ZM131.324 138.125C131.236 137.479 131.394 136.417 130.489 136.929C129.409 137.546 128.411 138.448 128.03 139.833C127.228 142.704 125.396 144.884 123.198 146.698C122.271 147.466 121.546 148.156 121.54 149.424C121.54 150.526 121.284 151.483 120.079 151.844C119.539 152.006 119.402 152.434 119.468 152.962C119.533 153.474 119.512 154.07 120.144 154.214C120.929 154.392 121.682 154.342 122.353 153.741C123.411 152.801 123.563 151.277 124.425 150.298C126.552 147.883 127.828 144.918 129.693 142.342C130.593 141.096 131.165 139.627 131.324 138.125ZM123.536 63.6251C123.433 60.5597 122.391 57.9282 121.322 55.3078C121.148 54.8794 121.006 54.2452 120.455 54.4288C120.002 54.579 120.04 55.2188 120.084 55.6862C120.106 55.9143 120.215 56.1368 120.313 56.3538C120.989 57.867 120.968 59.4581 121.006 61.0827C121.044 62.6682 121.497 64.2093 122.26 65.628C122.396 65.8783 122.582 66.1342 122.898 66.0953C123.242 66.0508 123.296 65.7114 123.34 65.4499C123.433 64.7879 123.482 64.1258 123.536 63.6251ZM129.099 90.2962C129.082 91.6648 130.227 93.1558 131.22 93.1335C132.196 93.1112 133.352 91.9485 133.325 91.0083C133.298 89.929 131.82 88.9609 130.217 88.9331C129.191 88.9109 129.17 89.6508 129.099 90.2962ZM134.705 129.785C134.748 128.762 133.941 128.205 133.21 127.643C132.714 127.259 132.567 127.688 132.534 128.111C132.447 129.29 132.376 130.47 132.316 131.649C132.294 132.05 132.458 132.411 132.818 132.595C133.26 132.823 133.516 132.472 133.729 132.172C134.225 131.488 134.743 130.803 134.705 129.785ZM123.525 70.941C123.493 70.1232 123.591 69.5001 123.323 68.9271C123.149 68.5488 122.92 68.2817 122.489 68.6767C121.758 69.3499 121.153 72.7936 121.655 73.6504C121.987 74.2179 122.358 74.3903 122.74 73.6504C123.214 72.7269 123.716 71.8256 123.525 70.941ZM128.428 102.185C128.504 103.003 128.842 103.637 129.595 103.554C130.718 103.426 130.495 102.324 130.653 101.568C130.816 100.778 130.249 100.583 129.644 100.65C128.722 100.75 128.553 101.501 128.428 102.185ZM129.044 126.141C129.017 125.924 129.011 125.641 128.94 125.373C128.815 124.884 128.75 124.216 128.188 124.161C127.512 124.094 127.621 124.878 127.408 125.296C127.119 125.858 127.168 126.475 127.266 127.081C127.441 128.155 128.035 127.944 128.63 127.499C129.05 127.187 129.011 126.675 129.044 126.141ZM130.358 65.3943C130.2 64.8213 130.255 63.9701 129.453 64.0424C128.668 64.1147 128.368 64.8658 128.45 65.628C128.51 66.1732 128.351 66.9854 129.24 67.0077C130.353 67.0355 130.157 66.0564 130.358 65.3943ZM135.741 106.163C135.572 105.484 135.528 104.538 134.667 104.433C134.012 104.355 133.679 105.095 133.696 105.751C133.712 106.552 134.012 107.359 134.857 107.459C135.523 107.537 135.632 106.786 135.741 106.163ZM116.932 33.8275C117.396 33.7774 117.979 33.8664 117.886 33.1432C117.788 32.3699 117.712 31.4018 116.779 31.2961C116.098 31.2182 115.885 31.986 115.83 32.6091C115.754 33.4158 116.158 33.8219 116.932 33.8275ZM126.47 156.607C125.772 156.712 125.712 157.202 125.734 157.758C125.756 158.365 125.941 159.054 126.552 159.027C127.13 158.999 127.55 158.342 127.544 157.702C127.539 157.063 127.048 156.74 126.47 156.607ZM50.5641 12.7588C50.6459 13.1705 50.575 13.7992 51.2948 13.8048C51.8729 13.8103 52.2219 13.4598 52.2001 12.8256C52.1783 12.2136 52.0038 11.6962 51.2785 11.7074C50.6731 11.724 50.5586 12.1747 50.5641 12.7588Z" fill="#96F432"/>
<path d="M3.35935 91.9207C3.28845 90.1237 3.01578 88.3768 2.38864 86.6744C2.04508 85.7508 2.03417 84.666 2.51952 83.7647C3.29936 82.3238 3.37571 80.7938 3.33753 79.2194C3.31027 78.0845 3.23392 76.9495 3.22847 75.8146C3.21756 74.268 3.14666 72.7491 3.98104 71.286C4.55364 70.2845 4.48275 68.9938 4.54274 67.8144C4.65726 65.7448 4.6518 63.6585 6.29873 62.0563C6.59867 61.767 6.56595 61.1773 6.94224 60.8657C7.30216 61.1216 7.49848 61.4554 7.56392 61.9172C7.89658 64.1704 7.90749 64.1704 10.1161 64.1314C10.3452 64.1259 10.5797 64.1147 10.8087 64.1036C10.8196 64.7601 10.8142 65.4166 10.8414 66.073C10.8741 66.7351 11.0705 67.2247 11.8612 67.3193C12.4884 67.3916 13.0773 67.4917 13.4427 66.8408C13.7808 66.2455 13.9499 65.5501 13.4972 64.9771C12.8537 64.1648 12.1339 63.3692 10.9232 63.9033C11.1141 62.9242 10.0398 62.34 10.1434 61.4109C10.3452 59.6417 10.5742 57.8726 10.8578 56.1145C10.9559 55.497 10.9887 54.6736 11.8067 54.579C12.4993 54.5011 13.0446 54.835 13.5572 55.4581C14.048 56.0589 14.3262 57.1994 15.515 56.8823C15.7386 57.0214 16.0058 57.1215 16.1803 57.3107C17.0747 58.2676 17.8709 58.173 18.5962 57.116C19.9213 57.1771 20.1449 58.2119 20.3958 59.2245C20.9575 61.2384 20.483 63.0132 19.2778 64.6766C18.8416 65.2775 18.5853 66.0118 18.2635 66.6961C17.091 69.2108 15.5968 71.6086 14.866 74.2958C13.8299 78.129 15.2205 81.7786 16.1694 85.4226C16.9547 88.438 17.8654 91.42 17.8654 94.5744C17.8654 95.9653 17.909 97.2949 18.7543 98.4577C18.847 100.21 17.9963 101.979 18.8579 103.715C17.5982 103.771 17.0147 104.6 17.5273 105.712C17.7345 106.163 18.1381 106.525 18.4544 106.925C18.4489 107.309 18.4926 107.699 18.7434 107.999C20.1831 109.751 20.2813 111.554 19.3706 113.662C18.5962 115.454 18.9452 116.021 20.5539 117.045C19.9323 119.243 20.254 120.094 22.2936 121.713C21.8464 123.966 21.3338 126.208 21.312 128.528C20.7175 128.856 20.5485 129.474 20.314 130.052C19.7468 129.897 19.2451 130.013 18.7216 130.308C16.6929 131.449 15.395 133.296 14.2225 135.215C13.4209 136.528 14.1844 138.347 15.6677 138.765C16.9438 139.121 18.089 139.677 19.1688 140.423C19.8777 140.912 20.6521 141.185 21.5192 141.129C21.8846 142.876 22.2336 144.645 21.9827 146.425C21.8191 147.571 21.7864 148.645 22.3045 149.697C21.0611 150.837 21.252 152.167 21.8082 153.552C21.5683 154.298 21.5683 155.032 21.8846 155.761C22.9207 158.125 23.4443 160.684 24.5513 163.027C24.993 163.956 25.3311 164.94 25.4566 165.986C25.6747 167.761 25.9201 169.536 26.1873 171.305C26.3018 172.056 26.6618 172.829 27.5016 172.612C29.154 172.19 29.5848 173.258 29.8411 174.454C30.0102 175.249 30.3319 175.85 30.959 176.312C30.1792 176.551 29.5193 176.963 29.1213 177.708C28.7341 178.443 28.805 179.166 29.2903 179.834C29.6775 180.362 30.1956 180.713 30.8391 180.451C31.5589 180.156 32.0552 179.611 32.0552 178.738C32.0552 178.454 32.0715 178.176 32.0825 177.892C32.7205 177.642 33.304 177.875 33.8821 178.115C34.2693 179.561 34.7437 180.907 36.6306 180.679C36.7997 180.946 36.9687 181.213 37.1378 181.486C37.634 182.371 38.1957 183.211 39.0356 183.806C38.6702 185.214 38.1085 186.632 38.861 188.068C39.4664 189.23 40.0662 189.269 40.8406 188.223C41.1951 187.745 41.5986 187.589 42.1549 187.656C42.613 187.711 43.0765 187.734 43.5401 187.75C44.3853 187.778 44.8107 187.272 44.9798 186.499C45.1543 185.714 44.9743 185.108 44.1454 184.807C43.8073 184.685 43.5128 184.446 43.202 184.257C43.3383 183.5 43.082 182.682 43.5237 181.97C44.5489 182.421 44.7289 183.667 45.7105 184.513C45.6287 183.266 45.5687 182.27 45.476 180.874C46.4086 182.471 46.234 183.867 46.3922 185.191C46.2995 185.709 46.2668 186.248 46.5067 186.71C47.123 187.917 46.9321 189.024 46.2995 190.148C45.6124 191.356 45.6887 192.546 46.4249 193.726C46.6158 194.032 46.6758 194.427 46.7958 194.777C46.245 194.861 45.7869 194.621 45.3833 194.299C44.6744 193.742 43.9927 193.765 43.1801 194.121C42.3785 194.471 41.5059 194.694 40.6443 194.86C39.4064 195.105 38.5175 195.739 38.0376 196.941C37.7376 197.692 37.2196 198.249 36.4452 198.399C34.7055 198.738 33.0313 198.555 31.548 197.442C30.7246 196.824 30.4246 195.995 30.5337 194.966C30.79 192.557 30.2065 191.528 28.0142 190.554C26.8799 190.048 25.8547 189.542 25.8547 187.979C25.8547 187.022 25.1457 186.738 24.2732 186.927C24.175 186.894 24.0823 186.866 23.9841 186.832C24.3332 184.635 23.8805 182.805 21.7428 181.748C21.841 180.763 21.9718 179.784 22.0318 178.793C22.1791 176.34 21.7373 175.772 19.3542 175.249C19.1306 175.199 18.8852 175.199 18.6725 175.127C16.5021 174.37 14.1026 173.898 13.8081 170.882C13.7317 170.092 13.1046 169.914 12.4284 169.736C11.6922 169.541 10.9559 169.163 12.0793 168.384C12.2811 168.863 12.4774 169.341 13.1046 169.369C15.2805 169.469 17.0256 170.676 18.8688 171.655C19.2724 171.867 19.7196 172.089 20.1777 171.767C20.7993 171.327 21.1974 168.785 20.7503 168.145C19.4142 166.237 14.6915 165.419 12.641 166.743C12.6192 165.892 12.3466 165.096 11.6758 164.634C10.9996 164.162 10.8741 163.861 11.5122 163.26C11.8776 162.921 12.2593 162.203 11.6594 161.942C10.6724 161.513 10.307 160.662 9.72347 159.794C9.54897 161.38 8.70369 162.626 8.08745 163.967C7.66209 164.885 7.80388 165.853 8.16925 166.732C8.50191 167.533 8.45829 168.434 8.75822 169.169C9.61441 171.272 9.34719 173.647 10.7324 175.672C12.2157 177.848 13.2082 180.379 14.4189 182.754C13.5409 182.866 12.9955 182.398 12.5756 181.675C10.5742 178.243 9.4508 174.448 8.20197 170.704C7.02949 167.188 6.93133 163.472 6.20057 159.906C5.46982 156.362 5.38801 152.807 4.83177 149.296C4.12828 144.834 3.41388 140.378 2.93398 135.883C2.83582 134.987 1.9251 134.275 2.27412 133.24C2.57406 133.746 2.6504 134.464 3.35935 134.609C4.94084 134.937 5.21896 135.338 4.95174 137.012C4.6409 138.965 4.77178 140.834 5.46981 142.726C5.98243 144.122 6.79499 145.541 6.44597 147.099C6.01516 149.007 5.9988 150.826 6.36963 152.773C6.6532 154.253 6.86044 155.744 7.27489 157.196C7.43304 157.758 7.68935 158.17 8.32195 158.097C8.95454 158.025 8.98181 157.497 8.96545 157.024C8.8782 154.581 9.32538 152.095 8.3274 149.725C7.97293 148.873 8.07109 147.939 8.24015 147.06C8.45283 145.925 8.27287 144.806 8.26742 143.683C8.26196 141.012 6.98041 138.531 7.26944 135.833C7.34579 135.137 7.0404 134.653 6.28237 134.548C5.41528 134.425 5.28985 133.819 5.43709 133.073C5.58979 132.305 5.94972 131.883 6.80045 132.155C7.6021 132.411 7.96202 132.005 8.19107 131.226C8.48555 130.214 8.24015 129.129 8.67642 128.155C9.42899 127.176 9.369 126.125 8.8073 125.129C8.26196 124.177 7.38396 124.528 6.58231 124.745C6.54414 124.322 6.47324 123.899 6.46779 123.476C6.46234 121.067 6.57141 118.647 5.66069 116.338C5.51344 115.966 5.37711 115.337 5.56253 115.109C6.78409 113.635 6.51687 111.86 6.48415 110.208C6.42416 106.914 7.72753 103.698 6.09696 100.277C4.9681 97.918 5.27895 95.1029 7.83114 93.1613C9.03089 92.2489 9.09633 91.114 7.85295 90.3685C6.20057 89.3782 6.51142 88.0152 6.44052 86.5965C6.40235 85.8454 6.2442 85.0999 6.0806 84.3656C5.86246 83.3753 5.80247 82.385 6.05333 81.4114C6.45688 79.8481 6.68593 78.2736 6.55505 76.6547C7.26944 76.4711 8.01656 76.3709 8.67642 76.0705C9.18904 75.8368 9.89253 75.3918 9.43444 74.6796C8.86729 73.8006 8.26742 72.8215 7.00222 72.8382C7.80933 71.1636 7.38396 69.3054 7.74934 67.5585C7.82569 67.1913 7.95657 66.7574 7.58028 66.5181C7.15492 66.2455 6.74591 66.5181 6.46233 66.8185C6.14604 67.1468 5.84065 67.5418 5.67159 67.9646C4.75542 70.2734 4.18826 72.6713 4.55364 75.1692C4.92447 77.6839 4.79905 80.1596 4.34641 82.6409C3.98103 84.6437 3.49568 86.7078 4.37913 88.6438C4.90811 89.8066 4.57546 90.4742 3.80653 91.203C3.62111 91.42 3.50659 91.687 3.35935 91.9207ZM15.4823 100.666C16.1476 98.9417 16.7311 97.217 15.9295 95.3589C15.7386 94.9138 15.5641 94.5188 15.0024 94.4576C13.7972 94.3241 12.8047 94.4798 11.9703 95.5981C11.1632 96.6774 10.9996 97.6844 11.5776 98.8471C11.8667 99.4313 12.2211 99.9821 12.5429 100.544C12.0085 100.956 11.2395 101.156 11.2177 102.041C11.185 103.643 11.0868 105.245 11.7303 106.781C12.1884 107.882 12.4556 107.943 13.2191 107.02C14.577 105.373 15.3514 103.404 16.1803 101.462C16.4912 100.722 15.9785 100.689 15.4823 100.666ZM17.8109 117.256C17.7891 116.172 16.8075 115.087 15.9076 115.081C15.0133 115.076 15.1878 115.804 15.166 116.316C15.1224 117.518 16.0603 118.942 16.8129 118.792C17.6146 118.631 17.8872 117.974 17.8109 117.256ZM16.0058 146.37C15.8804 145.752 15.8477 145.018 14.9206 145.074C14.1135 145.124 13.7263 145.741 13.7699 146.392C13.819 147.138 14.5334 147.366 15.2042 147.416C15.9404 147.477 15.9894 146.943 16.0058 146.37Z" fill="#96F432"/>
<path d="M111.506 200.741C110.53 201.937 110.088 203.245 110.05 204.858C110.017 206.31 109.188 207.629 108.316 208.808C106.461 211.312 105.736 214.555 103.2 216.625C100.784 218.594 98.614 220.875 95.811 222.322C94.5567 222.967 93.2206 223.401 91.83 223.462C87.3909 223.668 82.9573 224.035 78.5073 224.135C75.6934 224.196 72.8249 224.208 69.9673 224.714C63.625 225.832 57.588 224.653 51.8565 221.498C46.3158 218.444 40.977 215.039 35.4418 211.985C33.1731 210.733 31.0409 209.409 29.154 207.534C27.3543 205.743 26.1982 203.645 25.1075 201.436C26.1764 202.588 27.6161 202.427 28.9686 202.594L29.0176 202.599C29.2958 202.872 29.5739 203.144 29.852 203.417C31.8589 206.36 34.8419 207.99 37.874 209.531C38.5229 209.859 39.1337 210.588 39.8808 210.388C40.9333 210.11 40.3607 209.019 40.5625 208.313C40.8733 207.222 41.3314 206.967 42.1985 207.718C43.6764 209.003 45.3342 210.127 46.3922 211.812C47.5374 213.637 49.1298 214.805 50.9622 215.773C51.4966 216.057 51.971 216.202 52.5382 216.001C53.0999 216.391 53.5034 217.181 54.3814 216.747C54.3814 216.947 54.3814 217.153 54.3814 217.353C54.7959 218.722 56.1211 218.444 57.0427 218.8C60.5711 220.168 64.1758 219.901 67.7696 219.034C68.4949 218.995 69.4874 219.184 68.6966 217.876C68.3367 217.275 68.8002 217.053 69.1765 216.769C70.9216 215.456 72.6449 214.104 74.4118 212.825C75.9606 211.707 76.8495 210.282 76.7459 208.296C78.3164 208.018 78.0983 209.064 77.9674 210.026C77.902 210.527 77.6293 211.089 78.1365 211.456C78.66 211.829 79.1835 211.595 79.6253 211.184C80.6778 211.423 81.1468 210.688 81.5012 209.915C82.4556 207.846 82.7392 205.692 82.1775 203.45C83.0118 203.4 83.2354 202.449 83.9389 202.21C85.7222 202.149 87.2873 201.603 88.4216 200.101C89.9158 200.162 91.4101 200.218 92.9043 200.279C92.877 200.491 92.8552 200.702 92.828 200.914C91.361 201.448 91.5301 202.516 91.9609 203.667C90.6248 203.929 90.4557 204.207 91.1156 205.019C89.7741 205.236 88.438 205.108 87.1019 204.958C84.4297 204.658 83.3499 205.72 83.3336 208.513C83.3227 210.282 84.3316 211.49 85.2532 212.78C84.9478 212.68 84.5988 212.641 84.3479 212.463C82.9082 211.445 81.8393 211.951 81.6594 213.754C81.4794 213.693 81.2995 213.637 81.125 213.576C81.0486 213.109 80.8741 212.736 80.3124 212.864C79.7834 212.981 79.3853 213.248 79.2381 213.837C78.9163 215.122 79.0308 216.358 79.5653 217.559C79.7234 217.915 79.9143 218.294 80.3287 218.288C80.9668 218.277 80.7487 217.682 80.8632 217.314C81.2886 217.548 81.7412 217.576 82.2102 217.498C82.3247 218.054 82.0575 218.922 82.9355 218.945C85.046 218.995 87.1782 219.306 89.2669 218.683C89.5614 218.594 89.9976 218.572 90.0522 218.21C90.1231 217.721 89.6159 217.632 89.3051 217.531C87.909 217.092 86.6983 216.391 85.684 215.284C84.9751 214.51 84.5988 213.771 85.335 212.819C87.4073 214.238 89.6923 214.978 92.1681 215.284C97.1143 215.896 100.752 213.865 103.108 209.57C103.757 208.38 103.457 207.645 102.399 207.017C101.821 206.672 101.188 206.41 100.555 206.51C97.6433 206.972 94.993 206.021 92.3426 205.042C92.3426 204.83 93.1661 204.847 92.5062 204.452C92.2226 204.279 92.0536 204.051 92.0372 203.712C93.0679 203.784 93.2261 202.989 93.4442 202.243C94.8512 202.277 95.9637 201.281 97.3052 201.097C97.9978 201.247 98.554 201.681 99.1757 201.987C100.735 202.749 102.617 203.105 103.92 202.137C104.858 201.436 105.682 200.869 106.794 200.557C107.978 200.229 108.027 199.517 107.383 198.421C106.303 196.585 104.82 195.751 102.742 195.979C103.129 195.651 103.506 195.3 103.915 195C105.573 193.787 105.518 193.102 103.686 192.112C103.102 191.795 102.404 191.645 101.968 191.016C102.922 190.21 103.997 190.204 105.055 190.148C105.791 190.115 106.538 190.187 107.252 189.931C108.643 189.436 109.057 188.335 108.343 187.022C107.252 185.019 107.389 184.457 109.112 182.966C110.606 181.675 112.428 180.919 113.987 179.75C115.274 180.707 118.693 180.624 119.882 179.578C120.259 179.244 120.64 179.149 120.984 179.511C121.442 180.001 121.066 180.245 120.624 180.418C119.986 180.668 119.915 181.247 119.899 181.82C119.871 182.526 119.877 183.239 119.877 183.951C119.882 184.652 119.566 185.269 118.933 185.353C116.725 185.653 116.245 187.322 115.749 189.125C115.116 191.417 114.691 193.831 113.071 195.706C111.811 197.164 111.119 198.772 111.506 200.741ZM112.684 184.752C112.515 184.785 112.204 184.73 112.215 185.063C112.226 185.342 112.482 185.425 112.733 185.419C112.956 185.414 113.256 185.447 113.246 185.108C113.24 184.824 112.978 184.763 112.684 184.752Z" fill="#96F432"/>
<path d="M3.21755 94.5411C3.44114 94.58 3.72471 94.5522 3.87741 94.6746C4.27551 94.9972 4.79358 98.1962 4.54818 98.7025C4.31368 99.1921 4.24279 99.6761 4.37367 100.21C4.70633 101.601 4.52636 102.97 4.39003 104.394C4.1828 106.569 3.56656 108.544 2.96669 110.614C2.05597 113.757 1.85419 117.206 2.45952 120.428C2.80309 122.241 3.05395 124.005 3.10848 125.824C3.13029 126.564 3.5393 127.154 3.86105 127.782C4.53182 129.101 4.35186 129.913 3.10848 130.726C2.62313 131.043 2.56859 131.582 2.23593 131.966C1.85419 130.097 1.92509 128.216 2.13777 126.342C2.35045 124.422 2.14868 122.586 1.3852 120.812C0.752604 119.354 0.64899 117.791 0.66535 116.238C0.69807 112.861 0.436307 109.429 2.00144 106.258C2.25775 105.735 2.27411 105.15 2.19776 104.589C1.71786 101.156 2.37227 97.8402 3.21755 94.5411Z" fill="#96F432"/>
<path d="M129.84 169.525C130.047 167.427 129.475 164.996 131.045 163.399C132.54 161.881 132.894 160.106 133.189 158.253C133.374 157.074 133.554 155.928 134.116 154.887C135.539 152.245 135.735 149.357 135.953 146.437C136.013 145.608 136.788 144.829 137.235 144.028C137.219 144.35 137.328 144.768 137.17 144.984C136.221 146.286 136.384 147.827 136.188 149.291C135.926 151.221 135.392 153.068 134.547 154.826C133.93 156.111 133.734 157.53 133.45 158.915C133.074 160.768 132.611 162.565 131.514 164.167C130.435 165.747 130.358 167.722 129.84 169.525ZM130.686 164.518C130.653 164.507 130.609 164.473 130.593 164.479C130.566 164.495 130.549 164.54 130.527 164.573C130.576 164.596 130.631 164.612 130.68 164.634C130.68 164.596 130.68 164.557 130.686 164.518Z" fill="#64EC26"/>
<path d="M139.176 129.73C138.8 129.29 138.877 128.756 138.871 128.239C138.866 127.054 138.871 125.869 138.871 124.684C138.86 121.507 138.997 118.352 137.939 115.231C137.017 112.511 137.262 109.629 137.813 106.808C137.797 108.361 137.764 109.913 137.764 111.465C137.764 113.123 137.906 114.753 138.735 116.249C138.909 116.567 139.046 116.956 139.062 117.318C139.209 121.457 139.536 125.59 139.176 129.73Z" fill="#64EC26"/>
<path d="M130.506 55.8197C129.966 55.2355 129.971 54.4344 129.698 53.7445C129.508 53.2661 129.426 52.7097 129.137 52.3092C126.803 49.049 126.852 44.9154 125.276 41.3826C125.21 41.238 125.298 41.0154 125.314 40.8318C126.252 42.8625 126.944 44.9933 127.441 47.163C127.724 48.4148 128.041 49.5998 128.7 50.7069C129.649 52.2814 130.413 53.9337 130.506 55.8197Z" fill="#64EC26"/>
<path d="M134.296 77.4057C133.947 76.5879 134.088 75.7256 134.121 74.8966C134.236 72.1539 133.352 69.6503 132.534 67.1079C131.934 65.2441 131.825 63.2691 131.749 61.3108C132.452 66.4848 135.13 71.2971 134.421 76.727C134.394 76.9495 134.339 77.1776 134.296 77.4057Z" fill="#64EC26"/>
<path d="M137.895 106.096C137.448 104.483 137.977 102.786 137.48 101.178C136.744 98.8137 137.17 96.2323 135.899 93.9124C135.305 92.822 135.588 91.2364 135.474 89.8733C136.221 90.374 136.112 91.1752 136.112 91.904C136.112 93.05 136.161 94.1627 136.935 95.0974C137.05 95.2365 137.142 95.4367 137.148 95.6092C137.202 99.1142 138.473 102.536 137.895 106.096Z" fill="#64EC26"/>
<path d="M124.425 39.3019C123.394 38.5008 122.707 37.5494 122.271 36.2198C121.676 34.4061 121.251 32.5535 120.684 30.7398C121.082 31.1404 121.426 31.591 121.513 32.1529C121.922 34.7788 123.056 37.0932 124.425 39.3019Z" fill="#64EC26"/>
<path d="M114.565 24.0025C114.145 23.9858 113.774 23.8857 113.442 23.5686C112.607 22.773 111.74 22.0386 110.633 21.6102C110.148 21.4211 109.243 20.9593 110.361 20.2639C110.944 20.3863 111.408 20.7423 111.855 21.1151C112.329 21.7938 112.94 22.2723 113.725 22.5226C113.84 22.5783 113.96 22.6395 114.074 22.6951C114.091 22.7841 114.145 22.8453 114.233 22.862L114.282 22.9176C114.385 22.9844 114.489 23.0512 114.587 23.1179C114.587 23.1179 114.598 23.1235 114.592 23.1235C114.598 23.3961 114.609 23.6687 114.614 23.9413L114.565 24.0025Z" fill="#96F432"/>
<path d="M22.2554 193.536C23.7769 195.673 24.4913 198.126 24.9985 200.669C24.2023 198.243 23.5315 195.773 22.2554 193.536Z" fill="#96F432"/>
<path d="M120.613 30.5005C119.195 29.1431 118.094 27.5686 117.417 25.6938C118.628 27.2015 119.664 28.8204 120.613 30.5005Z" fill="#64EC26"/>
<path d="M14.8933 183.205C15.8476 184.162 16.9983 184.969 17.331 186.421C16.4039 185.436 15.4932 184.44 14.8933 183.205Z" fill="#96F432"/>
<path d="M131.618 60.5708C130.74 59.3358 130.773 57.8837 130.669 56.465C131.215 57.7724 131.46 59.1633 131.618 60.5708Z" fill="#64EC26"/>
<path d="M114.625 23.9358C114.62 23.6631 114.609 23.3905 114.603 23.1179C115.416 23.7132 116.338 24.1861 116.85 25.1263C115.77 25.3878 115.689 23.7132 114.625 23.9358Z" fill="#64EC26"/>
<path d="M128.782 173.163C128.995 172.134 129.262 171.127 129.704 170.17C129.873 171.322 129.126 172.178 128.782 173.163Z" fill="#64EC26"/>
<path d="M20.7448 190.955C21.1756 191.645 21.601 192.335 22.0318 193.025C21.3938 192.468 21.0448 191.728 20.7448 190.955Z" fill="#96F432"/>
<path d="M134.083 81.9622C133.69 81.2333 133.718 80.5046 134.078 79.7757C134.279 80.499 134.241 81.2278 134.083 81.9622Z" fill="#64EC26"/>
<path d="M113.725 22.5171C112.94 22.2723 112.324 21.7883 111.855 21.1095C112.553 21.4823 113.311 21.7604 113.725 22.5171Z" fill="#64EC26"/>
<path d="M135.234 85.3392C134.476 85.0054 134.814 84.4657 134.977 83.9539C135.403 84.3489 135.343 84.8385 135.234 85.3392Z" fill="#64EC26"/>
<path d="M135.201 89.3504C134.808 88.8107 134.841 88.2711 135.185 87.7258C135.359 88.2655 135.332 88.8052 135.201 89.3504Z" fill="#64EC26"/>
<path d="M17.8 186.933C18.0944 187.3 18.3835 187.667 18.678 188.034C18.2635 187.767 17.9036 187.456 17.8 186.933Z" fill="#96F432"/>
<path d="M85.5258 1.35385C85.0896 1.37054 84.7623 1.15912 84.5006 0.825317C84.8932 0.892078 85.2477 1.04786 85.5258 1.35385Z" fill="#96F432"/>
<path d="M134.721 83.6868C134.377 83.5422 134.083 83.3641 134.268 82.9024C134.601 83.0581 134.759 83.3085 134.721 83.6868Z" fill="#64EC26"/>
<path d="M20.2921 190.388C20.4067 190.532 20.5157 190.682 20.6248 190.827C20.423 190.755 20.2485 190.66 20.2921 190.388Z" fill="#96F432"/>
<path d="M124.976 40.1976C124.736 40.0975 124.632 39.9139 124.654 39.658C124.85 39.7803 124.97 39.9528 124.976 40.1976Z" fill="#64EC26"/>
<path d="M128.902 173.781C128.864 173.97 128.886 173.942 128.935 173.792C128.935 173.786 128.902 173.781 128.902 173.781Z" fill="#64EC26"/>
<path d="M19.9159 189.776C19.9431 189.865 19.9977 189.937 20.0795 189.987C19.9322 189.992 19.8832 189.92 19.9159 189.776Z" fill="#96F432"/>
<path d="M114.593 23.1124C114.489 23.0456 114.385 22.9788 114.287 22.9121C114.391 22.9788 114.494 23.0456 114.593 23.1124Z" fill="#64EC26"/>
<path d="M114.238 22.862C114.151 22.8397 114.096 22.7841 114.08 22.6951C114.26 22.6228 114.254 22.7396 114.238 22.862Z" fill="#64EC26"/>
<path d="M128.51 173.703C128.499 173.642 128.521 173.603 128.575 173.581C128.597 173.792 128.7 173.859 128.897 173.781C128.902 173.781 128.93 173.786 128.935 173.792C128.793 173.759 128.651 173.731 128.51 173.703Z" fill="#64EC26"/>
<path d="M87.0146 12.2804C86.6874 12.3082 86.3929 12.247 86.153 12.0022C86.5565 11.7352 86.791 11.9911 87.0146 12.2804Z" fill="#64EC26"/>
<path d="M71.6742 8.34148C71.6633 8.54176 71.6469 8.73647 71.636 8.93676C71.4451 8.75873 71.167 8.61408 71.3361 8.28584C71.3524 8.25246 71.5542 8.32479 71.6742 8.34148Z" fill="#64EC26"/>
<path d="M22.5662 133.073C25.5601 134.993 25.5547 138.52 22.5553 140.901C22.2118 140.973 21.8682 141.051 21.5192 141.124C20.6521 141.179 19.8777 140.901 19.1688 140.417C18.089 139.671 16.9438 139.121 15.6677 138.759C14.1843 138.342 13.4209 136.523 14.2225 135.21C15.395 133.29 16.6929 131.443 18.7216 130.303C19.2451 130.008 19.7468 129.891 20.314 130.047C20.4721 130.614 20.9138 131.087 20.8429 131.727C20.603 132.662 20.0686 133.429 19.4905 134.175C18.727 135.154 18.0781 136.2 17.7072 137.374C19.8395 136.684 20.843 134.848 22.0209 133.196C22.2118 133.157 22.3863 133.118 22.5662 133.073Z" fill="#EEF9E3"/>
<path d="M29.0176 202.594C29.5957 202.549 29.8465 202.849 29.852 203.411C29.5739 203.139 29.2958 202.866 29.0176 202.594Z" fill="#64EC26"/>
<path d="M118.17 167.26C118.65 167.077 119.124 166.888 119.604 166.704C119.686 166.821 119.779 166.927 119.85 167.049C120.21 167.655 119.915 168.134 119.528 168.573C119.299 168.835 118.999 169.007 118.666 168.801C118.077 168.44 118.263 167.8 118.17 167.26Z" fill="#96F432"/>
<path d="M126.313 175.839L126.23 175.884L126.274 175.795L126.313 175.839Z" fill="#96F432"/>
<path d="M130.68 164.518C130.68 164.557 130.68 164.601 130.68 164.64C130.631 164.618 130.576 164.601 130.527 164.579C130.549 164.545 130.56 164.501 130.593 164.484C130.609 164.468 130.653 164.501 130.68 164.518Z" fill="#96F432"/>
<path d="M94.6221 126.725C94.5512 125.902 94.2404 125.179 93.7114 124.567C93.2479 124.033 92.7134 123.638 92.1299 124.422C91.6882 125.017 90.9793 124.561 90.4775 124.901C90.5757 124.177 90.9411 123.56 91.301 122.965C93.3515 119.565 93.8914 115.749 94.2404 111.888C94.5512 108.455 94.5785 105.017 94.3713 101.579C94.5131 101.484 94.6494 101.39 94.7912 101.295C95.0693 101.301 95.3474 101.306 95.6256 101.317C97.2834 101.406 97.7578 102.041 97.4143 103.704C97.3761 103.888 97.3543 104.082 97.2888 104.255C96.7108 105.707 97.3979 106.836 98.2159 107.904C98.6958 108.533 99.1376 108.539 99.6011 107.765C100.152 106.847 100.048 105.857 100.141 104.878C101.892 104.249 102.224 102.747 102.306 101.134C102.442 98.5356 102.071 95.9597 101.853 93.3783C101.957 91.0806 101.297 88.9164 100.73 86.7411C100.021 84.0095 99.3611 81.2612 98.3523 78.6186C98.2214 78.2792 98.2323 77.9064 98.5704 77.7451C99.0121 77.5337 99.0885 78.0066 99.2357 78.2681C99.5247 78.7799 99.5084 79.3585 99.5411 79.9259C99.5902 80.6381 99.6938 81.3446 100.201 81.901C100.359 82.0734 100.566 82.2125 100.817 82.1179C101.106 82.0122 101.057 81.7507 101.03 81.5171C100.839 79.9927 101.543 78.4628 100.817 76.8995C100.479 76.1762 101.03 75.3528 101.717 74.8299C102.486 74.2457 102.666 75.3695 103.249 75.3973C103.588 74.8076 103.233 74.407 102.879 74.051C102.333 73.5002 102.001 72.8103 101.81 72.0927C101.553 71.1357 101.341 70.279 100.114 70.1955C99.6229 70.1622 99.4429 69.578 99.263 69.1441C98.2923 66.8575 98.0905 64.3094 96.7326 62.0618C98.0959 61.8282 98.6576 62.9019 99.552 63.1801L99.5629 63.1912C99.6011 63.4916 99.7592 63.7086 100.021 63.8532C100.43 65.9006 101.144 67.8478 101.848 69.8005C102.121 70.546 102.48 71.2693 102.851 71.9703C103.026 72.3041 103.348 72.5655 103.762 72.5043C104.258 72.4265 104.247 71.9869 104.253 71.6198C104.264 70.7686 104.291 69.9285 104.149 69.0773C103.789 66.8853 102.6 64.9047 102.622 62.6237C103.751 62.5458 104.095 63.4972 104.515 64.2315C106.031 66.8853 106.571 69.884 107.241 72.8159C108.141 76.7715 108.463 80.8328 109.068 84.8384C109.134 85.2557 109.434 85.9177 108.85 86.0902C108.267 86.2627 108.016 85.6229 107.798 85.1611C106.843 83.1193 106.096 80.9719 104.842 79.0803C104.526 78.1457 104.411 77.1053 103.571 76.2708C103.293 77.4725 103.004 78.5128 103.909 79.4085C104.144 81.0052 103.915 82.6465 104.346 84.2265C104.384 84.3489 104.416 84.4768 104.455 84.5992C104.487 84.7661 104.52 84.933 104.553 85.0999C104.449 85.4059 104.291 85.7063 104.247 86.0235C103.708 89.9735 104.062 93.9458 103.997 97.9125C103.538 99.1642 103.484 100.477 103.478 101.79C103.462 105.134 103.664 108.477 103.358 111.815C103.053 112.294 102.884 112.783 102.96 113.384C103.086 114.375 102.851 115.309 102.257 116.127C101.008 115.482 100.495 115.682 100.059 117.156C98.9739 120.778 97.0216 123.883 94.6221 126.725ZM97.7742 117.017C97.8124 116.7 97.616 116.005 97.2343 115.415C96.8635 114.836 96.1818 114.475 95.8764 115.359C95.2002 117.318 94.6712 119.332 94.1477 121.34C94.0059 121.885 94.3767 122.375 94.8239 122.653C95.3965 123.009 95.6419 122.397 95.9309 122.091C97.1416 120.789 97.5942 119.176 97.7742 117.017Z" fill="#96F432"/>
<path d="M81.1468 49.2604C78.889 48.3591 76.5604 47.7639 74.1282 47.6637C72.6449 47.6303 71.1779 47.6637 69.9455 48.693C68.5821 49.3939 67.2024 50.056 65.73 50.4955C61.7817 51.2521 58.2261 53.1047 54.5614 54.8294C54.5232 54.2619 54.8395 54.0895 55.0467 53.8892C56.89 52.1645 58.5533 50.3175 60.0148 48.2034C62.0326 45.277 65.0865 43.9807 68.5712 43.9529C71.3415 43.9307 74.1064 43.9585 77.1603 43.0628C75.7152 42.0781 74.5154 41.2491 73.3048 40.4424C72.2904 39.7692 71.2706 39.0961 70.5562 38.078C70.2999 37.7108 69.8909 37.2268 70.1854 36.7984C70.5344 36.2921 71.1343 36.5925 71.5924 36.7483C75.088 37.9277 78.2128 39.7748 80.6941 42.5565C81.9157 43.9251 83.1645 45.2381 84.5333 46.4453C83.7535 47.469 82.5101 47.1463 81.2667 47.5135C82.9028 49.3884 84.9696 50.4788 86.8783 51.4747C88.8906 52.5261 90.7993 53.5442 92.3262 55.2411C92.3644 55.5582 92.5444 55.7474 92.8389 55.8419C93.2151 56.3371 93.406 56.8934 93.3897 57.5221C91.5137 56.6319 89.6159 55.803 88.2253 54.1173C87.6581 53.433 86.8019 53.1047 86.033 52.6875C84.7242 51.063 83.0991 49.9169 81.1468 49.2604ZM67.1315 45.9502C69.2474 45.7944 70.9816 45.8278 72.6885 45.4439C72.9939 45.3772 73.3757 45.3327 73.4084 44.9098C73.4302 44.6372 73.1684 44.4926 72.9448 44.4759C71.0089 44.3646 69.0947 44.3869 67.1315 45.9502Z" fill="#96F432"/>
<path d="M72.5304 151.327C71.5978 149.613 69.82 149.602 68.2658 149.135C65.1355 146.092 63.7722 142.014 62.1253 138.119C60.9637 135.371 60.113 132.522 60.0093 129.496C60.2493 129.618 60.6365 129.68 60.7074 129.869C61.1273 130.954 61.9289 130.776 62.7524 130.609C63.0196 130.976 62.9542 131.415 63.0305 131.833C63.4941 134.314 64.0012 136.762 66.5043 138.108C67.2351 138.503 67.6986 139.26 68.1894 139.961C69.0184 141.146 69.591 142.542 70.8016 143.421C71.047 143.794 75.1044 147.01 75.4752 147.065C76.7949 147.277 78.1146 147.494 79.4453 147.644C80.3942 147.75 80.7323 147.204 80.4542 146.331C80.007 144.923 80.6069 144.183 81.8611 143.783C83.4045 143.288 84.9369 142.776 86.4802 142.286C87.4727 141.969 88.0071 142.264 87.849 143.416C86.7474 143.972 85.6131 144.484 84.5497 145.107C83.8407 145.519 83.1863 146.081 84.1734 146.926C83.9825 147.755 83.6771 148.54 83.2299 149.263C82.2047 148.929 81.174 148.723 80.0888 148.907C78.3928 149.196 76.6968 149.291 74.9626 149.113C72.7539 148.884 72.6176 149.068 72.5304 151.327Z" fill="#96F432"/>
<path d="M96.8253 153.969C96.1218 153.714 95.3965 153.508 94.7803 153.051C101.63 147.427 105.524 140.178 106.292 131.215C106.418 131.082 106.631 130.965 106.652 130.815C107.11 127.755 108.31 124.867 108.725 121.796C109.444 120.149 109.008 118.658 108.152 117.218C108.447 116.656 108.741 116.099 109.03 115.537C109.543 115.465 110.061 115.393 110.573 115.32C110.59 115.432 110.612 115.549 110.628 115.66C110.813 115.827 110.999 115.994 111.179 116.166C111.206 117.435 112.258 118.297 112.384 119.565C112.651 122.269 111.817 124.728 110.982 127.204C109.963 129.613 109.854 132.283 108.986 134.731C106.521 141.691 103.44 148.273 97.8506 153.28C97.5452 153.552 97.2452 153.853 96.8253 153.969Z" fill="#96F432"/>
<path d="M41.8604 78.001C41.1296 76.4822 42.1331 75.4363 42.8311 74.318C43.6546 72.9939 44.9143 71.9424 45.2415 70.3068C47.1993 69.183 47.3302 67.258 47.3738 65.2942C47.4011 64.2315 47.5483 63.1912 48.4263 62.4846C48.9335 62.0785 49.5442 61.7836 49.6697 62.8741C49.6751 62.9186 49.6697 62.9742 49.686 63.0132C50.684 65.2385 50.1714 67.1078 48.9389 69.1941C47.4992 71.6253 46.2449 74.2123 45.1488 76.8772C44.5053 78.4349 44.4235 79.8202 44.7125 81.1944C45.1924 83.4309 44.3744 85.2334 43.5019 87.0972C43.2183 87.086 42.9293 87.0749 42.6457 87.0638C42.6348 86.6632 42.9238 86.0846 42.4548 85.9177C41.9095 85.723 41.5441 86.2793 41.2605 86.691C39.979 88.5381 39.5372 90.7468 38.7738 92.8164C38.2502 94.235 37.7431 95.6537 37.0014 96.9611C36.7396 97.4229 36.4724 98.1795 35.8671 98.0515C35.18 97.9013 35.4363 97.1002 35.4254 96.5883C35.3599 94.1404 36.3852 91.9818 37.394 89.8789C38.6701 87.2251 40.0335 84.6159 41.8713 82.2681C42.6021 81.3335 42.8147 79.9315 42.9347 78.663C43.0111 77.8118 42.3457 78.001 41.8604 78.001Z" fill="#96F432"/>
<path d="M81.1031 66.5793C81.7848 66.8686 82.5101 67.0801 83.1372 67.4584C83.928 67.9313 84.7187 68.4208 84.0916 69.6837C83.6935 70.4849 84.2443 71.286 84.8823 71.77C86.9383 73.3166 88.029 75.6811 89.6868 77.556C90.3739 78.3348 90.0685 78.7132 88.7215 78.8689C87.4182 77.6617 86.4147 76.154 84.975 75.0858C83.1427 73.7228 80.9941 73.0885 78.9054 72.3152C77.6402 71.8479 76.3641 71.4195 75.2898 70.5349C74.5863 69.9619 73.7737 69.3555 73.9155 68.3874C74.0791 67.2525 75.1207 66.9076 76.1023 66.7129C77.7547 66.3957 79.4344 66.6739 81.1031 66.5793Z" fill="#96F432"/>
<path d="M64.6775 115.982C65.2719 117.779 65.7464 119.599 65.5391 121.529C65.49 121.991 65.5827 122.558 65.0429 122.742C64.4103 122.953 64.3121 122.319 64.0994 121.941C63.7122 121.245 63.3469 120.533 62.9978 119.821C62.7742 119.359 62.6488 118.759 62.0217 118.77C61.2636 118.781 60.8656 119.387 60.6747 120.021C60.462 120.734 60.4075 121.501 60.2875 122.247C60.2275 122.62 60.2166 123.015 59.7858 123.176C59.0986 120.344 59.5622 117.529 59.9494 114.72C60.5329 110.447 61.4927 106.263 62.9433 102.202C63.0524 101.89 63.1505 101.568 63.3141 101.284C63.6195 100.744 64.0449 100.066 64.6666 100.294C65.3374 100.533 64.9229 101.262 64.8084 101.773C64.1376 104.767 63.1396 107.676 62.6216 110.714C62.398 112.027 62.3162 113.351 62.4143 114.669C62.5234 116.116 63.3305 116.544 64.6775 115.982Z" fill="#96F432"/>
<path d="M52.7345 118.119C52.26 118.119 51.7856 118.119 51.3111 118.119C51.1639 116.094 50.9567 114.074 50.4222 112.105C50.1059 110.936 50.046 109.751 50.5149 108.628C50.7222 108.138 50.4495 106.897 51.7965 107.609C52.211 107.826 52.3582 106.964 52.38 106.536C52.44 105.123 52.4018 103.698 52.4509 102.285C52.4782 101.568 52.3364 100.778 53.0126 100.232C52.9963 100.894 52.969 101.556 52.9744 102.219C52.9744 102.436 52.9635 102.73 53.2744 102.775C53.5198 102.808 53.7052 102.664 53.8415 102.452C54.2833 101.757 54.4414 100.967 54.5886 100.177C54.7904 99.053 55.0576 97.9514 55.5321 96.9166C55.7666 96.4103 56.0774 95.7984 56.7482 95.943C57.4408 96.0932 57.4135 96.7775 57.3972 97.345C57.3644 98.6413 57.1081 99.9208 56.5246 101.05C54.4741 105.011 53.9724 109.317 53.6179 113.674C53.4925 115.187 53.1435 116.656 52.7345 118.119Z" fill="#96F432"/>
<path d="M23.6896 117.206C23.1279 117.017 22.5717 116.828 22.01 116.639C22.1518 115.777 22.0264 114.914 21.7537 114.124C20.254 109.701 20.9357 105.295 21.7482 100.883C21.7755 100.744 21.781 100.6 21.7919 100.461C22.1627 99.5704 22.539 98.6803 23.0298 97.5119C23.4006 99.754 22.9916 101.651 22.828 103.554C22.7898 103.971 22.5935 104.394 22.9807 104.744C22.6262 106.436 23.4497 107.921 23.7824 109.496C23.7115 110.508 23.766 111.493 24.355 112.544C24.7858 111.426 24.933 110.464 24.7967 109.457C24.9876 107.509 25.1784 105.557 25.3693 103.609L25.4511 103.604C25.702 103.609 25.9583 103.621 26.2146 103.626C26.5636 103.932 26.8254 104.288 26.8853 104.772C26.9072 106.797 26.7054 108.795 26.4 110.797C26.0183 113.184 24.8294 115.181 23.6896 117.206Z" fill="#96F432"/>
<path d="M91.1538 84.488C92.6098 84.8551 94.1313 85.0833 94.7421 86.858C94.873 87.2419 95.4892 87.0916 95.8982 87.1028C96.629 88.4213 96.9562 89.8734 97.2343 91.3421C96.8853 91.4589 96.5363 91.5758 96.1873 91.6926L96.1655 91.6592C96.1927 91.2587 96.0673 90.9304 95.7074 90.7357C95.6692 90.4575 95.6855 90.1515 95.5819 89.9012C95.3038 89.2002 95.0039 88.3323 94.0441 88.6939C93.0897 89.05 93.6787 89.8344 93.8914 90.3741C94.6985 92.4436 95.222 94.5856 95.691 96.7497C96.2254 98.3631 97.1253 99.5481 98.9631 99.6149C98.9849 99.8986 99.0121 100.182 99.034 100.466C98.1941 100.544 97.4852 100.127 96.8471 99.6928C96.1982 99.2477 95.5656 98.9695 94.7912 99.0752L94.7857 99.053C94.7803 98.9584 94.7748 98.8638 94.7694 98.7637C94.6985 97.8736 94.6494 96.9778 94.5403 96.0933C94.4694 95.5369 94.3331 94.9861 94.1586 94.452C94.0386 94.096 93.7714 93.7232 93.346 93.8345C92.8443 93.9625 93.0025 94.4187 93.0734 94.7803C93.1443 95.1475 93.2861 95.5147 93.297 95.8819C93.3188 96.7275 93.3624 97.6232 92.299 97.9403C91.6773 96.4549 91.2846 94.9138 91.1592 93.3004C91.0174 91.509 90.5157 89.7843 90.1994 88.0319C89.954 86.7189 89.8068 85.3781 91.1538 84.488Z" fill="#96F432"/>
<path d="M72.4977 118.976C70.7089 115.465 71.4179 109.384 73.8992 106.998C75.2844 108.266 76.2932 109.802 76.9695 111.571C77.2258 113.023 78.0656 113.779 79.5217 113.835C79.7834 113.846 80.0397 114.007 80.3015 114.096C80.2906 114.291 80.2742 114.48 80.2633 114.675C80.2252 114.764 80.1815 114.853 80.1434 114.942C79.7398 115.398 79.3144 115.816 78.6655 115.849C78.0274 115.827 77.3894 115.81 76.7513 115.788C74.5645 115.076 74.33 115.231 74.1937 117.512C74.1719 117.885 74.1828 118.258 74.1828 118.636C73.6702 119.02 73.103 119.115 72.4977 118.976Z" fill="#96F432"/>
<path d="M41.4296 159.338C43.4201 159.093 43.3164 160.64 43.54 161.908C43.8563 164.762 44.8598 167.4 46.0595 169.959C46.9593 171.873 48.0391 173.703 48.9825 175.594C49.5715 176.779 50.035 178.031 49.866 179.405C49.8169 179.8 49.8224 180.334 49.3643 180.485C48.9825 180.607 48.699 180.234 48.4208 179.99C47.2756 178.966 46.5067 177.647 45.9941 176.229C44.0036 170.732 41.9149 165.258 41.4296 159.338Z" fill="#96F432"/>
<path d="M59.1368 31.1237C63.5704 30.6953 67.9004 31.7023 72.2741 32.1307C74.2809 32.6814 76.2114 33.3435 77.0676 35.5633C77.193 35.8915 77.613 36.2365 77.2585 36.5703C76.9531 36.854 76.5495 36.548 76.2223 36.4201C74.6845 35.8192 73.4084 34.7677 72.1486 33.7441C70.3163 32.2475 68.364 31.8747 66.1608 32.6258C64.2903 33.2656 62.387 33.5048 60.4074 33.21C59.5894 33.0876 58.7442 33.2656 57.9807 33.6773C56.0774 35.0848 54.436 36.8373 52.4018 38.0724C52.0419 38.2894 51.7038 38.9904 51.2839 38.4563C50.9185 37.9889 51.3766 37.4326 51.8129 37.1767C53.4871 36.192 54.6323 34.612 56.0611 33.3491C56.8409 32.2642 58.1007 31.8525 59.1368 31.1237Z" fill="#96F432"/>
<path d="M90.0031 118.358C89.7086 118.486 89.3269 118.53 89.1251 118.747C87.6363 120.361 85.6785 120.539 83.6989 120.65C82.3029 119.721 82.7228 118.508 83.1972 117.284C84.2879 117.401 85.035 116.789 85.6185 115.988C86.1912 115.198 86.4856 114.252 86.7692 113.318C86.8619 112.923 86.9546 112.522 87.0419 112.127C87.4018 111.921 87.7781 111.732 87.8435 111.248C89.8667 112.032 90.0631 112.283 90.074 114.408C90.0903 115.727 90.0303 117.039 90.0031 118.358Z" fill="#96F432"/>
<path d="M73.8665 55.2578C73.5447 55.4358 73.2339 55.6361 72.9012 55.7807C72.6285 55.9031 72.3122 56.0255 72.5522 56.3593C73.3975 57.5388 72.5685 58.1452 71.7396 58.568C70.5235 59.1855 69.2202 58.874 68.6748 57.8225C68.0531 56.6208 67.1915 55.9198 65.8718 55.7974C65.79 54.9351 66.2099 54.529 67.0115 54.3621C69.4056 53.8669 71.6633 54.3176 73.8665 55.2578Z" fill="#96F432"/>
<path d="M41.9368 110.469C43.2619 110.998 42.8747 112.299 43.2019 113.295C43.8727 115.32 43.8618 117.384 43.7855 119.471C43.7473 120.439 43.4419 121.323 43.0983 122.208C42.8747 122.792 42.5094 123.181 41.8168 122.937C41.6641 121.724 41.5877 120.544 41.8277 119.304C42.1603 117.624 41.6259 115.932 41.5441 114.247C41.4841 112.978 41.5168 111.699 41.9368 110.469Z" fill="#96F432"/>
<path d="M56.0556 85.9456C56.8682 85.1611 57.7244 84.5992 58.8369 85.3948C58.0516 89.445 55.8484 92.8665 54.1142 96.4994C54.076 95.5369 54.4305 94.6579 54.6814 93.7622C55.0958 92.3046 55.3576 90.8692 54.9977 89.3337C54.7032 88.0485 55.3794 86.9692 56.0556 85.9456Z" fill="#96F432"/>
<path d="M105.856 108.744C105.807 108.038 105.676 107.326 105.731 106.63C105.807 105.557 106.298 104.828 107.525 105.028C107.781 108.166 107.214 111.292 107.35 114.43C107.389 115.27 107.372 116.116 107.378 116.956C106.811 117.106 106.527 118.113 105.911 117.74C105.382 117.423 105.747 116.6 105.654 116.01C105.458 114.681 106.151 113.429 105.987 112.105C106.031 110.981 106.036 109.857 105.856 108.744Z" fill="#96F432"/>
<path d="M61.3018 62.3289C62.0762 62.3956 63.0142 62.2176 63.0251 63.4805C60.7619 64.6265 58.4987 65.7615 56.241 66.9131C55.7448 67.1635 55.254 67.4138 54.6814 67.4249C54.6868 66.6016 54.6868 65.7782 54.6923 64.9548C54.7414 64.9047 54.7959 64.8658 54.8559 64.838C55.9793 64.5932 57.1245 64.3985 57.7516 63.2301C59.055 63.4304 60.1511 62.7684 61.3018 62.3289Z" fill="#96F432"/>
<path d="M112.853 79.67C111.833 80.1318 111.806 81.5616 110.721 81.9621C110.628 79.8592 110.202 77.7618 110.655 75.6532C110.802 74.9578 110.944 74.012 111.659 73.9842C112.417 73.9564 112.542 74.9578 112.711 75.6032C113.06 76.9384 112.831 78.3125 112.853 79.67Z" fill="#96F432"/>
<path d="M92.3481 185.475C92.0645 185.942 91.6391 186.232 91.1483 186.443C89.6432 186.504 88.3289 186.037 87.2273 184.974C87.5927 183.45 88.8579 183.878 89.8558 183.723C90.8429 184.068 91.6991 184.618 92.3481 185.475Z" fill="#96F432"/>
<path d="M57.8444 56.2091C57.8062 56.9769 56.1374 58.835 55.3849 58.9185C54.8886 58.9741 54.3651 58.8128 54.2287 58.3455C53.9779 57.5165 54.4851 56.81 55.0849 56.4205C55.723 56.0033 56.5301 55.8419 57.2827 55.6361C57.6862 55.5193 57.8662 55.8086 57.8444 56.2091Z" fill="#96F432"/>
<path d="M65.5445 58.3677C64.6066 59.269 63.6849 60.1925 62.7142 61.0604C62.3652 61.372 61.9017 61.4665 61.4436 61.205C61.0509 60.9324 60.2602 61.1995 60.2057 60.6098C60.1511 60.0312 60.8546 59.7975 61.2854 59.4748C61.6126 59.23 61.9453 58.9964 62.278 58.7572C63.3686 58.6292 64.4539 58.5012 65.5445 58.3677Z" fill="#96F432"/>
<path d="M111.506 164.724C111.5 164.44 111.5 164.162 111.495 163.878C111.517 162.554 112.198 162.02 113.453 162.181C113.475 162.376 113.496 162.565 113.518 162.754C112.76 164.746 111.686 166.615 111.277 168.74C110.235 168.707 109.963 168.267 110.573 167.361C110.933 166.821 111.26 166.27 111.282 165.591C111.479 165.341 111.528 165.041 111.506 164.724Z" fill="#96F432"/>
<path d="M45.5088 82.2848C45.8632 82.7244 46.3486 82.563 46.7958 82.5797C47.3138 83.5255 47.9082 84.4601 47.1939 85.5728C46.7303 86.2961 46.2341 86.4073 45.7269 85.6062C45.0452 84.5436 44.958 83.4365 45.5088 82.2848Z" fill="#96F432"/>
<path d="M53.3344 68.3429C52.8381 69.5947 52.2492 70.7797 51.0658 71.77C50.5804 70.0676 51.213 68.8436 52.1292 67.692C52.5654 67.8422 52.7672 68.4542 53.3344 68.3429Z" fill="#96F432"/>
<path d="M55.7175 184.368C55.6576 184.819 55.7448 185.52 54.905 185.453C54.2015 185.397 53.6725 185.113 53.7325 184.223C53.7761 183.583 53.8906 183.172 54.6759 183.172C55.4885 183.166 55.7503 183.533 55.7175 184.368Z" fill="#EEF9E3"/>
<path d="M97.2943 200.591C97.2234 200.396 97.1525 200.207 97.0871 200.012C97.5834 199.328 97.6979 198.404 98.4123 197.859C98.7449 198.382 99.2248 198.627 99.8301 198.644C99.3939 199.845 98.7667 200.791 97.2943 200.591Z" fill="#96F432"/>
<path d="M117.33 163.283C117.881 162.988 118.224 161.753 118.852 162.359C119.424 162.904 118.655 163.794 118.246 164.44C118.017 164.801 117.652 165.007 117.194 164.94C117.243 164.384 117.286 163.833 117.33 163.283Z" fill="#96F432"/>
<path d="M110.579 115.315C110.066 115.387 109.548 115.459 109.035 115.532C109.046 115.393 109.041 115.248 109.074 115.115C109.237 114.397 109.335 113.312 110.181 113.446C111.173 113.601 110.59 114.636 110.579 115.315Z" fill="#64EC26"/>
<path d="M51.8729 57.3107C51.2457 58.301 50.8149 58.9686 49.8878 59.1466C50.215 57.9394 50.215 57.9393 51.8729 57.3107Z" fill="#96F432"/>
<path d="M80.9068 113.295C80.247 112.683 80.3178 111.871 80.3233 111.081C81.8939 111.582 82.0138 112.049 80.9068 113.295Z" fill="#96F432"/>
<path d="M73.7847 196.641C73.741 197.036 73.4902 197.103 73.1902 197.053C72.5794 196.952 72.4049 196.479 72.3286 195.951C72.274 195.589 72.4976 195.411 72.8085 195.461C73.4684 195.562 73.5938 196.151 73.7847 196.641Z" fill="#96F432"/>
<path d="M29.3503 164.501C29.2467 165.046 28.854 165.024 28.4886 164.991C28.0742 164.946 27.976 164.651 28.0469 164.284C28.1178 163.906 28.3632 163.722 28.734 163.761C29.1921 163.794 29.3394 164.112 29.3503 164.501Z" fill="#EEF9E3"/>
<path d="M44.5217 92.1822C44.5871 91.3532 44.5217 90.6967 45.2688 90.3907C45.3397 90.3629 45.5742 90.4964 45.5796 90.5688C45.6233 91.2809 45.3342 91.7872 44.5217 92.1822Z" fill="#4BE41E"/>
<path d="M77.8093 199.128C77.0403 199.133 76.6095 198.705 76.1896 197.865C77.1385 198.004 77.6238 198.365 77.8202 199.105L77.8093 199.128Z" fill="#4BE41E"/>
<path d="M39.6681 110.091C39.5918 110.313 39.4991 110.558 39.2319 110.553C38.9592 110.553 38.8501 110.336 38.861 110.08C38.8719 109.807 39.0355 109.657 39.3028 109.657C39.5754 109.657 39.7227 109.79 39.6681 110.091Z" fill="#4BE41E"/>
<path d="M111.184 116.16C110.999 115.994 110.813 115.821 110.633 115.654C110.835 115.649 111.037 115.637 111.244 115.626C111.222 115.804 111.206 115.982 111.184 116.16Z" fill="#64EC26"/>
<path d="M77.8256 199.105C77.9456 199.139 78.0656 199.167 78.1855 199.2C78.0165 199.4 77.9347 199.161 77.8093 199.122C77.8093 199.128 77.8256 199.105 77.8256 199.105Z" fill="#4BE41E"/>
<path d="M53.8415 97.2059C53.9397 96.9611 54.0324 96.7163 54.1306 96.4715C54.0324 96.7163 53.9342 96.9611 53.8415 97.2059Z" fill="#96F432"/>
<path d="M81.9757 99.0418C82.0684 99.142 82.1611 99.2421 82.2592 99.3367C82.1611 99.2421 82.0684 99.142 81.9757 99.0418Z" fill="#4BE41E"/>
<path d="M80.1379 114.937C80.1763 114.848 80.2203 114.758 80.2587 114.669C80.2203 114.764 80.1763 114.853 80.1379 114.937Z" fill="#4BE41E"/>
<path d="M104.45 84.5992C104.411 84.4768 104.379 84.3489 104.34 84.2265C104.379 84.3489 104.411 84.4768 104.45 84.5992Z" fill="#4BE41E"/>
<path d="M67.6223 163.911C69.5637 166.114 72.0559 167.361 74.8154 168.028C76.5932 168.457 78.4364 168.607 80.2524 168.885C80.5578 169.464 80.8632 170.037 81.1686 170.615C81.3595 171.027 81.9866 171.055 82.0302 171.683C81.3267 171.906 80.8741 172.373 80.8687 173.174C78.7854 173.708 76.9313 172.918 75.0935 172.117C72.8358 171.127 70.6053 170.075 68.473 168.818C67.9931 168.534 67.4969 168.251 66.9734 168.067C65.8663 167.678 65.3428 168.19 65.4246 169.358C65.5173 170.66 66.428 171.455 67.077 172.412C67.9168 173.658 68.8439 174.849 69.1874 176.368C68.6748 176.941 68.1949 176.607 67.7041 176.329C66.6298 175.722 65.8827 174.777 65.0919 173.836C63.8377 172.351 62.5179 170.943 60.7946 169.936C58.0952 168.351 56.5792 165.708 55.0631 163.021C53.7597 160.718 52.0528 158.648 50.5259 156.473C50.515 155.822 50.5041 155.171 50.4877 154.52C52.2164 154.303 52.2601 154.236 52.1401 151.655C52.2873 151.115 51.8292 150.264 52.6691 150.103C53.4107 149.958 53.907 150.631 54.0869 151.243C54.6814 153.307 55.9466 154.782 57.6753 155.922C58.3188 156.351 58.2697 157.168 58.5424 157.808C58.9187 158.698 59.3604 159.282 60.4238 158.704C61.0564 158.359 61.7817 158.481 62.4743 158.47C63.5268 159.75 64.563 161.041 65.6318 162.303C66.1881 162.971 66.668 163.75 67.6223 163.911Z" fill="#96F432"/>
<path d="M116.768 118.686C116.916 122.397 115.421 125.579 113.682 128.678C113.409 129.168 112.962 129.802 112.411 129.568C111.784 129.301 112.166 128.589 112.258 128.055C112.291 127.871 112.291 127.682 112.302 127.493C114.074 126.72 113.965 124.823 114.571 123.393C115.165 121.991 115.28 120.378 116.261 119.126C116.392 118.953 116.594 118.831 116.768 118.686Z" fill="#64EC26"/>
<path d="M81.6812 27.1291C81.9102 27.6465 82.1556 28.3308 81.2067 27.908C79.9797 27.3628 78.9708 27.5575 77.8147 28.1361C75.6443 29.2321 73.7956 27.9358 71.9741 26.9845C70.9162 26.4337 69.9018 25.7327 69.002 24.9427C68.2658 24.2918 67.6605 24.2807 66.9406 24.8148C66.5971 24.1082 66.2699 23.3905 65.9045 22.6895C65.1628 21.2709 64.9065 21.2264 63.6795 22.3001C63.5104 22.4503 63.4014 22.6728 63.2596 22.862C61.9671 22.8787 60.6692 22.8954 59.3767 22.9121C58.2697 22.8119 57.1627 22.6728 56.0556 22.6172C54.7904 22.5505 53.5252 22.595 52.5982 23.6854C51.6765 24.7758 51.9329 25.5769 53.2908 25.9052C54.5668 26.2112 55.8702 26.2056 57.1627 26.3113C57.2881 26.762 57.7189 26.9233 57.9916 27.2404C58.3133 27.6076 58.935 27.9025 58.6078 28.5144C58.2697 29.1375 57.5499 29.577 56.9609 29.2432C55.7066 28.5256 54.6268 29.182 53.4707 29.3934C49.5879 30.1056 48.9008 32.0639 48.5681 35.3741L48.5572 35.3797C47.9682 35.4909 47.8373 35.9917 47.6737 36.4646C45.8741 37.7553 44.538 39.6691 42.4167 40.5537C43.0711 39.1016 44.1945 38.0668 45.3615 37.1489C47.3411 35.5911 48.4263 33.6606 48.2573 31.0847C48.1209 28.9984 48.3281 27.0568 49.8878 25.4601C50.3677 24.965 50.5041 24.2028 50.5859 23.4907C52.4782 21.2876 54.8232 20.2528 57.7135 20.581C58.4988 20.67 59.284 20.5254 60.0257 20.2305C61.509 19.6463 62.976 19.4461 64.4102 20.3696C64.7484 20.5866 65.141 20.6255 65.4464 20.3473C66.2208 19.6408 67.1424 19.7075 68.0695 19.7409C68.7239 21.2319 70.0763 21.8606 72.2086 21.7994C73.2666 21.766 73.632 21.3599 73.2938 20.3306C75.1098 19.8689 76.4786 20.7757 77.5748 22.0275C79.0199 23.652 80.5523 25.2264 81.6812 27.1291Z" fill="#96F432"/>
<path d="M95.6964 25.093C95.9364 25.0596 96.1109 25.143 96.1981 25.3822C95.631 25.9553 96.0891 26.3781 96.3836 26.851C97.6924 28.9373 99.4756 30.6953 100.43 33.0208C100.517 33.2322 100.572 33.4603 100.643 33.6829C99.8737 33.8664 99.3448 34.4895 98.6576 34.8178C98.1341 34.6453 97.916 33.9888 97.3106 33.9388C95.9037 32.2809 94.5021 30.6174 93.0952 28.9595C92.8443 28.6591 92.5116 28.5144 92.1245 28.4978C91.7209 27.463 90.6411 27.0902 90.0249 26.2668C90.0849 25.5325 90.5321 25.232 91.1974 25.1486C91.8572 25.0651 92.1463 25.3989 92.4135 25.9887C92.997 27.2961 93.7714 26.3781 94.4149 26.0387C94.8784 25.7995 95.0475 25.1096 95.6964 25.093Z" fill="#96F432"/>
<path d="M60.0312 17.2318C62.6324 16.592 65.4355 16.8869 67.8786 15.4849C68.2931 16.4474 67.8895 17.0093 67.0115 17.3542C66.308 17.6268 65.5882 17.7993 64.8356 17.7325C63.2323 17.5823 61.629 17.3987 60.0312 17.2318Z" fill="#96F432"/>
<path d="M68.4676 19.5017C68.3312 19.5796 68.1949 19.6575 68.0531 19.7354C68.1949 19.6575 68.3312 19.5796 68.4676 19.5017Z" fill="#96F432"/>
<path d="M107.901 153.352C107.759 154.159 107.219 154.554 106.505 154.776C106.62 153.942 107.258 153.647 107.901 153.352Z" fill="#64EC26"/>
<path d="M103.975 149.341C104.107 149.252 104.123 149.285 104.046 149.413C104.052 149.413 103.975 149.341 103.975 149.341Z" fill="#64EC26"/>
<path d="M36.5433 31.6967C36.5433 32.164 36.516 32.6314 36.756 33.0597C36.7451 35.057 36.5924 35.2517 34.6292 35.8136C34.711 35.3797 35.1527 35.3352 35.409 35.0793C36.0634 34.4172 36.4833 33.744 36.1888 32.7315C35.9053 31.7523 35.1691 31.6522 34.3892 31.5576C34.4656 30.89 34.82 30.8344 35.3327 31.0959C35.7362 31.2961 36.1398 31.4964 36.5433 31.6967Z" fill="#96F432"/>
<path d="M33.1458 31.5465C32.2024 31.8024 31.4662 31.3128 30.73 30.8399C31.5262 31.1125 32.6169 30.3225 33.1458 31.5465Z" fill="#96F432"/>
<path d="M121.207 122.948C121.246 122.67 121.273 122.386 121.333 122.108C121.431 121.635 121.736 121.295 122.2 121.379C122.784 121.485 122.664 122.002 122.571 122.408C122.445 122.959 122.271 123.499 122.113 124.038C121.464 123.977 121.311 123.482 121.207 122.948Z" fill="#96F432"/>
<path d="M125.145 135.76C125.259 136.6 124.796 137.997 124.24 138.414C124.109 138.514 123.885 138.62 123.76 138.57C123.514 138.47 123.558 138.197 123.574 137.963C123.634 137.352 124.245 136.495 125.145 135.76Z" fill="#96F432"/>
<path d="M28.9358 77.5059C29.7047 72.8882 30.6373 68.3095 32.366 63.9534C32.6714 63.1856 33.2058 61.8226 33.9857 62.1508C34.82 62.5013 34.122 63.7197 33.8766 64.5431C33.3694 66.2622 32.8241 67.9646 32.0606 69.5891C31.2426 71.3249 31.1772 73.2499 30.9863 75.1247C30.8827 76.1595 30.5446 77.0441 29.9501 77.8564C29.7593 78.1178 29.5902 78.4906 29.2085 78.3626C28.794 78.2291 28.9249 77.8341 28.9358 77.5059Z" fill="#96F432"/>
<path d="M24.5731 78.5685C24.2459 75.8202 24.9221 73.2276 25.811 70.6851C26.1982 69.5836 26.4654 68.4097 27.2889 67.514C27.6052 67.1691 27.9488 66.6962 28.4396 66.9076C28.974 67.1412 28.8049 67.7532 28.6904 68.1705C27.9433 70.9967 27.2125 73.8285 26.0237 76.5045C25.6965 77.2388 25.3584 77.9621 25.3693 78.7966C25.113 78.8077 24.8512 78.8188 24.5949 78.8244C24.6004 78.741 24.5894 78.6519 24.5731 78.5685Z" fill="#96F432"/>
<path d="M25.2112 89.89C26.7272 88.8998 26.8962 87.4644 26.5036 85.8399C26.6181 85.7119 26.7327 85.5784 26.8526 85.4504C27.1198 87.648 28.2269 89.6786 27.9488 91.9986C27.8179 93.1224 27.7524 94.2295 27.2944 95.2699C26.7981 95.4757 26.2909 95.6315 25.7401 95.5759C25.1784 94.1572 25.4511 92.6996 25.5765 91.2587C25.6202 90.7357 25.7892 90.2239 25.2112 89.89Z" fill="#96F432"/>
<path d="M37.6177 55.0241C37.8849 55.8586 37.9121 56.6375 37.1214 57.2216C35.7417 57.5777 34.4874 57.995 34.1766 59.7641C34.0457 60.5096 33.0313 60.5875 32.3497 61.0103C34.2965 58.5402 33.9748 55.2578 35.4254 52.6318C35.7362 52.2034 36.0471 51.7695 36.3579 51.3411C36.4288 51.6972 36.4997 52.0532 36.5652 52.4093C35.8562 53.1214 36.3961 54.4566 37.6177 55.0241Z" fill="#96F432"/>
<path d="M38.861 47.0795C38.2557 47.9864 38.1139 49.4051 36.5652 49.2882C37.0178 47.9975 37.4704 46.7068 37.9285 45.4216C38.6047 43.5245 39.9353 42.2227 41.6968 41.0321C41.7568 42.0391 41.206 42.4786 40.7861 43.0016C39.8263 44.1977 38.7302 45.3382 38.861 47.0795Z" fill="#96F432"/>
<path d="M22.1682 89.929C22.1682 89.5952 22.1682 89.2614 22.1682 88.9276C22.8062 89.9178 23.7333 90.1626 24.8185 89.9957C24.295 90.8692 24.3113 91.9095 24.0059 92.8442C23.8914 93.1836 23.8587 93.6954 23.3788 93.6565C22.9589 93.6231 22.8662 93.1558 22.7626 92.7997C22.4954 91.8539 22.8716 90.7746 22.1682 89.929Z" fill="#96F432"/>
<path d="M46.7358 48.1811C47.3902 48.2034 47.9628 48.1811 47.8973 48.9544C47.8428 49.5998 47.3356 49.9002 46.8339 49.711C46.2831 49.4996 45.2524 49.9224 45.247 49.1102C45.2415 48.3647 46.185 48.2479 46.7358 48.1811Z" fill="#96F432"/>
<path d="M41.7513 48.7096C42.9183 48.0309 44.0854 47.3466 45.2579 46.6679C44.9525 48.1255 43.7527 48.7041 42.6566 49.355C42.0131 49.7277 41.8986 49.1492 41.7513 48.7096Z" fill="#37981A"/>
<path d="M37.105 52.6374C37.9612 51.9475 38.7356 51.113 39.8863 50.9239C39.5809 51.814 39.2155 52.6597 38.2721 53.0435C37.7649 53.2494 37.2905 53.3773 37.105 52.6374Z" fill="#96F432"/>
<path d="M32.9005 38.6399C33.1131 37.7052 33.124 36.6537 34.2038 36.2086C34.3674 37.3491 33.6803 38.0167 32.9005 38.6399Z" fill="#96F432"/>
<path d="M30.7191 62.6571C30.2446 63.2301 29.792 63.9701 29.0831 62.9019C29.6448 62.9575 30.1247 62.4012 30.7191 62.6571Z" fill="#64EC26"/>
<path d="M19.1306 78.6408C18.8034 79.1304 18.7543 79.6867 18.7707 80.2542C18.4816 79.6255 17.4728 78.8244 19.1306 78.6408Z" fill="#64EC26"/>
<path d="M24.5949 78.8244C24.4531 78.9635 24.3059 79.1026 24.1641 79.2417C23.7769 79.2584 23.5097 79.0692 23.3461 78.7187C23.7551 78.6686 24.1641 78.6186 24.5731 78.5685C24.5894 78.6519 24.6003 78.741 24.5949 78.8244Z" fill="#64EC26"/>
<path d="M47.6683 36.459C47.8319 35.9861 47.9628 35.4854 48.5517 35.3741C48.4263 35.8748 48.2682 36.3533 47.6683 36.459Z" fill="#64EC26"/>
<path d="M27.6434 58.6626C27.5779 58.9519 27.4089 59.1633 27.1526 59.3024C27.1526 58.963 27.3216 58.7516 27.6434 58.6626Z" fill="#64EC26"/>
<path d="M23.3197 78.6964C23.2373 78.6964 23.1933 78.6575 23.1988 78.5685L23.3251 78.5573L23.3197 78.6964Z" fill="#64EC26"/>
<path d="M20.8484 131.732C21.0284 132.406 21.132 133.134 22.0318 133.201C20.8539 134.854 19.8504 136.689 17.7182 137.379C18.0835 136.211 18.7325 135.165 19.5014 134.18C20.074 133.435 20.603 132.667 20.8484 131.732Z" fill="#96F432"/>
<path d="M102.29 196.496C104.416 196.841 105.213 197.843 104.591 199.411C104.138 200.546 102.9 200.925 101.897 200.296C101.297 199.923 101.112 199.467 101.499 198.905C101.995 198.176 102.066 197.331 102.284 196.518C102.279 196.518 102.29 196.496 102.29 196.496Z" fill="#96F432"/>
<path d="M95.9309 71.7366C94.9384 69.539 94.3549 67.1746 93.226 65.0327C93.0352 64.6655 92.9752 64.226 92.588 63.9868C92.5171 63.2079 92.7189 62.5347 93.4933 62.2788C94.3767 61.9839 94.5403 62.8629 94.873 63.3581C96.4163 65.678 97.4579 68.2094 97.8832 70.9911C97.8887 71.0356 97.8778 71.1024 97.9051 71.1302C99.7101 72.7324 98.5322 74.5795 98.2759 76.6825C97.736 75.2916 97.2943 74.1622 96.8689 73.0329C96.6671 72.5043 96.5908 71.8979 95.9309 71.7366Z" fill="#96F432"/>
<path d="M65.5336 58.3844C65.6263 58.2898 65.719 58.1897 65.8172 58.0951C65.7245 58.1897 65.6263 58.2898 65.5336 58.3844Z" fill="#96F432"/>
<path d="M90.772 134.442C93.4387 132.05 95.3965 128.967 98.0905 126.603C98.2759 127.655 97.8832 128.656 97.8287 129.691C97.3325 129.691 96.9943 130.008 96.6235 130.292C94.2894 132.072 93.2751 134.408 93.7059 137.368C93.0297 138.664 92.8497 140.411 90.8974 140.523C90.5102 139.888 90.7611 139.271 90.9192 138.637C91.2737 137.229 91.6009 135.81 90.772 134.442Z" fill="#96F432"/>
<path d="M71.0907 141.185C70.4962 141.007 70.1145 140.617 69.94 140.011C69.8091 138.375 70.2127 138.053 71.7124 138.459C75.2298 139.41 78.7091 140.634 82.4447 140.272C83.0609 140.211 83.7807 140.289 83.7753 141.123C83.7698 141.986 82.9845 141.975 82.4174 141.936C80.3942 141.786 78.3601 141.635 76.3532 141.335C74.5918 141.073 72.8467 141.151 71.0907 141.185Z" fill="#96F432"/>
<path d="M104.46 109.568C103.997 110.269 104.024 111.22 103.353 111.81C103.653 108.472 103.457 105.128 103.468 101.785C103.473 100.472 103.522 99.1587 103.986 97.9069C104.4 98.1684 104.864 98.2185 105.333 98.2518C105.474 102.063 105.578 105.863 104.46 109.568Z" fill="#37981A"/>
<path d="M99.5629 63.2023C99.8738 63.308 100.032 63.525 100.021 63.8644C99.7592 63.7197 99.6011 63.5027 99.5629 63.2023Z" fill="#64EC26"/>
<path d="M92.3262 55.2411C92.6098 55.3412 92.7843 55.5359 92.8389 55.8419C92.5498 55.7474 92.3644 55.5582 92.3262 55.2411Z" fill="#64EC26"/>
<path d="M96.16 91.6536C95.8492 91.4255 95.6692 91.1307 95.7019 90.7301C96.0618 90.9304 96.1873 91.2531 96.16 91.6536Z" fill="#64EC26"/>
<path d="M94.7807 99.0418C94.7587 98.9751 94.7368 98.9139 94.7258 98.8471C94.7203 98.8193 94.7532 98.7859 94.7642 98.7526C94.7697 98.8527 94.7752 98.9473 94.7807 99.0418Z" fill="#64EC26"/>
<path d="M111.506 164.724C111.522 165.041 111.479 165.341 111.282 165.597C111.255 165.28 111.304 164.979 111.506 164.724Z" fill="#64EC26"/>
<path d="M85.5913 168.134C88.9888 166.993 92.408 166.003 96.0455 166.365C96.6726 166.426 97.3107 166.598 97.5506 167.21C97.8287 167.939 97.1416 168.323 96.7162 168.69C94.1313 170.938 90.9411 171.578 87.7127 172.067C87.0255 172.173 86.3329 172.217 85.6404 172.29C85.624 170.904 85.6076 169.519 85.5913 168.134Z" fill="#96F432"/>
</svg>
