<svg width="138" height="222" viewBox="0 0 138 222" fill="none" xmlns="http://www.w3.org/2000/svg">
<path d="M63.5446 72.5628C63.0647 72.5683 62.7757 72.5794 62.6175 72.2846C62.4375 71.9508 62.5466 71.6337 62.7538 71.3666C63.6918 70.1649 64.9788 69.5251 66.4185 69.3415C67.2856 69.2358 67.5965 69.8311 67.0457 70.6044C66.1295 71.8729 64.6516 72.0732 63.5446 72.5628Z" fill="#4BE41E"/>
<path d="M63.5446 60.3677C62.4594 60.4957 61.3687 60.6292 60.2835 60.7571C60.1417 59.9894 60.4907 59.5109 61.1505 59.2049C61.9358 58.8378 62.7157 58.4539 63.501 58.0811C64.8916 58.5373 64.2753 59.3273 63.8227 60.0895C63.73 60.1841 63.6373 60.2843 63.5391 60.3788L63.5446 60.3677Z" fill="#4BE41E"/>
<path d="M38.4971 105.047C38.4371 105.415 38.3389 106.105 38.2189 106.794C38.1699 107.073 38.099 107.412 37.7663 107.406C37.33 107.406 37.3355 107 37.2919 106.683C37.161 105.743 37.3082 104.814 37.4173 103.89C37.4664 103.451 37.679 102.944 38.1208 102.983C38.6934 103.034 38.4425 103.64 38.4971 104.018C38.5298 104.241 38.4971 104.48 38.4971 105.047Z" fill="#4BE41E"/>
<path d="M101.904 81.4086C100.999 80.5128 101.288 79.4781 101.566 78.2708C102.406 79.1109 102.52 80.1457 102.836 81.0803C102.531 81.1971 102.22 81.3028 101.904 81.4086Z" fill="#4BE41E"/>
<path d="M20.07 80.1568C19.3283 80.1902 18.5867 80.218 17.8505 80.2514C18.5867 78.944 18.0032 77.4975 18.2486 76.1344C18.6412 73.9592 18.6685 71.8061 19.7373 69.6586C20.8389 67.4333 21.3134 64.7795 21.3734 62.1424C21.4115 60.3844 22.0278 58.7321 22.9712 57.2522C23.233 56.8405 23.6583 56.3287 24.2146 56.618C24.7272 56.885 24.4655 57.4525 24.3618 57.8976C23.991 59.4553 23.5656 61.002 23.2493 62.5708C23.1021 63.3108 22.8076 64.1898 23.7565 64.7016C23.5875 65.1856 23.462 65.6863 23.2493 66.1481C22.1259 68.5181 21.2534 70.966 20.8771 73.5808C20.8062 74.0593 20.4845 74.6101 21.1934 74.8938C20.3481 76.5461 20.31 78.3765 20.07 80.1568Z" fill="#4BE41E"/>
<path d="M35.6177 57.0241C36.8392 56.796 38.099 56.7348 39.2005 56.0283C39.6804 55.7223 40.1985 55.8057 40.5912 56.2397C41.0329 56.7237 40.8202 57.2411 40.493 57.6528C39.0588 59.4665 37.1228 60.7015 35.3777 62.148C35.0505 62.4206 34.5597 62.5097 34.2379 62.1202C33.9325 61.753 34.2652 61.4137 34.4833 61.1188C34.9033 60.5569 35.4213 60.0339 35.1214 59.2217C35.9121 58.6375 35.8849 57.8586 35.6177 57.0241Z" fill="#4BE41E"/>
<path d="M23.7347 97.5758C24.28 97.6315 24.7872 97.4757 25.2889 97.2699C25.0163 98.5995 25.0926 99.9459 25.0762 101.292C24.5854 102.16 24.5582 103.111 24.58 104.074C24.4546 104.597 24.3291 105.114 24.2037 105.637C23.9474 105.632 23.6965 105.621 23.4402 105.615C23.2821 102.922 23.6856 100.252 23.7347 97.5758Z" fill="#4BE41E"/>
<path d="M21.7769 111.501C22.115 111.49 22.4531 111.473 22.7858 111.462C22.9276 112.469 22.7803 113.432 22.3441 114.55C21.7606 113.498 21.706 112.514 21.7769 111.501Z" fill="#4BE41E"/>
<path d="M76.9981 125.093C78.7869 127.735 80.6683 128.247 83.1877 127.168C86.5798 125.71 88.1667 123.468 88.0031 120.358C87.7086 120.486 87.3269 120.53 87.1251 120.747C85.6363 122.361 83.6786 122.539 81.699 122.65C82.2225 123.251 82.7351 123.857 83.275 124.442C83.8912 125.115 83.6458 125.387 82.866 125.51C80.8755 125.827 78.6778 124.703 77.7234 122.906C76.8782 121.321 76.6219 119.618 76.6546 117.849C76.0165 117.827 75.3785 117.81 74.7404 117.788C74.7023 120.48 75.5475 122.939 76.9981 125.093Z" fill="#4BE41E"/>
<path d="M81.35 115.974C81.2136 115.946 81.0773 115.902 80.941 115.902C80.3302 115.913 79.5122 115.479 79.1904 116.236C78.825 117.081 79.7358 117.415 80.2157 117.843C80.6737 118.255 81.1537 118.6 81.1973 119.284C82.288 119.401 83.0351 118.789 83.6186 117.988C84.1912 117.198 84.4857 116.252 84.7693 115.318C84.5893 115.106 84.4093 114.895 84.2185 114.689C83.7876 114.216 83.4277 113.471 82.6915 113.665C81.8899 113.877 82.2825 114.689 82.228 115.245C82.1789 115.846 81.9389 116.102 81.35 115.974Z" fill="#4BE41E"/>
<path d="M75.6239 103.618C76.7582 103.323 77.6089 102.633 78.2306 101.671C78.6123 101.081 79.0486 100.819 79.7194 100.986C79.8012 101.014 79.8884 101.036 79.9757 101.047C80.0684 101.148 80.1611 101.248 80.2593 101.342L80.2484 101.353C81.6226 103.768 81.7262 106.477 81.9171 109.148C81.9771 109.999 82.1407 110.756 82.7787 111.295C83.7276 112.091 84.3657 113.126 85.0474 114.133C85.4073 113.927 85.7836 113.738 85.849 113.254C85.2764 111.607 84.1203 110.272 83.504 108.63C82.746 106.611 82.8551 104.858 84.4747 103.351C85.9363 101.993 85.3037 100.324 85.1455 98.7275C85.6527 98.6162 85.7454 98.9834 85.8981 99.3506C86.5907 101.008 86.5634 102.772 86.6507 104.513C86.7434 106.266 87.2942 107.846 88.1285 109.348C88.4285 109.893 88.8865 110.183 89.5082 110.11C90.2499 110.021 90.2935 109.393 90.3753 108.836C90.4299 108.469 90.4189 108.085 90.3862 107.712C90.0263 103.618 88.2539 100.002 86.5852 96.3686C86.1162 95.3449 85.3855 94.1822 83.8803 95.0723C81.9171 93.5924 78.3397 93.5034 76.2183 94.8776C75.433 95.3839 75.1004 96.0904 75.204 97.0362C75.2803 97.7539 75.5639 98.3992 75.8311 99.0501C75.8148 99.7734 75.6021 100.424 75.1822 101.02C74.795 101.57 74.6641 102.205 74.6695 102.883C74.6913 103.557 74.9368 103.796 75.6239 103.618Z" fill="#4BE41E"/>
<path d="M74.964 113.565C75.2203 115.017 76.0602 115.774 77.5162 115.829C77.778 115.841 78.0343 116.002 78.2961 116.091C78.4978 115.824 78.6996 115.557 78.9068 115.29C78.247 114.678 78.3179 113.866 78.3233 113.076C77.1345 112.731 76.1201 113.671 74.964 113.565Z" fill="#4BE41E"/>
<path d="M109.506 202.741C109.119 200.766 109.817 199.158 111.071 197.706C112.696 195.831 113.116 193.422 113.749 191.125C114.245 189.322 114.725 187.659 116.933 187.353C117.566 187.264 117.882 186.646 117.877 185.951C117.871 185.239 117.871 184.532 117.899 183.82C117.92 183.241 117.991 182.668 118.624 182.418C119.066 182.245 119.442 182.001 118.984 181.511C118.646 181.149 118.264 181.244 117.882 181.578C116.693 182.624 113.269 182.707 111.987 181.75C112.489 180.621 112.991 179.492 113.487 178.362C115.537 178.262 115.859 177.939 115.892 175.831C115.919 173.9 115.177 172.181 114.447 170.468C115.183 170.306 115.597 169.667 116.17 169.26C116.263 169.8 116.083 170.44 116.661 170.801C116.993 171.007 117.299 170.829 117.522 170.573C117.91 170.134 118.204 169.655 117.844 169.049C117.773 168.927 117.681 168.821 117.599 168.704C118.117 167.519 118.711 166.362 118.248 164.977C118.04 164.37 118.471 163.931 118.946 163.591C119.077 165.85 119.131 168.114 119.382 170.356C119.491 171.33 119.437 172.114 118.749 172.804C118.155 173.405 117.904 174.106 118.499 174.807C119.208 175.647 120.009 176.882 121.138 176.459C122 176.137 123.597 176.638 123.717 174.913C124.617 174.696 124.214 174.006 124.23 173.466C125.174 173.845 125.593 174.818 124.895 175.441C124.066 176.17 124.11 176.916 124.285 177.8L124.241 177.884L124.323 177.839C124.563 177.845 124.803 177.845 125.048 177.85C122.932 181.6 120.396 185.077 118.4 188.905C117.942 189.784 117.375 190.574 116.497 191.102C115.93 191.447 115.576 191.987 115.456 192.694C115.09 194.897 114.272 196.961 113.361 198.975C112.565 200.716 111.453 202.19 109.506 202.741Z" fill="#4BE41E"/>
<path d="M112.614 139.719C113.111 137.087 113.536 134.456 112.396 131.529C113.454 132.075 113.356 133.037 114.169 133.354C114.779 132.219 114.425 130.945 114.55 129.738C116.017 129.437 116.519 128.175 117.097 127.029C117.452 126.328 117.681 125.56 118.15 124.914C118.499 124.926 118.853 124.937 119.202 124.948C119.306 125.482 119.458 125.977 120.107 126.044C120.107 126.433 120.113 126.823 120.113 127.207C119.595 127.73 119.322 128.353 119.295 129.104C119.164 133.059 117.495 136.481 115.668 139.841C115.221 140.664 114.73 141.46 114.256 142.272C113.301 141.699 113.776 140.158 112.614 139.719Z" fill="#4BE41E"/>
<path d="M117.975 146.222C117.871 144.531 119.131 143.302 119.404 141.705C119.731 139.78 120.522 137.944 120.511 135.947C120.511 135.607 120.8 135.491 121.045 135.357C122.703 136.531 123.172 136.498 123.827 135.14C124.099 134.823 124.323 134.439 124.645 134.194C125.397 133.632 125.959 133.849 126.177 134.778C126.401 135.73 126.215 136.676 125.953 137.577C125.49 139.19 125.364 140.904 124.377 142.367C123.717 143.34 123.063 143.452 122.201 142.801C121.345 142.155 120.876 142.423 120.609 143.396C120.375 144.258 120.096 145.104 119.835 145.961C119.213 146.05 118.591 146.133 117.975 146.222ZM123.145 137.76C122.245 138.489 121.634 139.352 121.58 139.958C121.558 140.192 121.52 140.464 121.765 140.564C121.885 140.614 122.109 140.509 122.245 140.409C122.796 140.002 123.259 138.6 123.145 137.76Z" fill="#4BE41E"/>
<path d="M111.458 164.187C111.84 162.479 112.603 160.949 113.52 159.491C113.863 159.524 114.212 159.558 114.556 159.591C114.436 160.287 114.349 160.988 114.185 161.666C113.956 162.618 114.289 162.801 115.101 162.451C116.568 161.817 117.697 160.676 118.962 159.736C119.186 159.569 119.366 159.335 119.6 159.196C120.151 158.885 120.865 158.356 121.318 159.063C121.787 159.792 120.953 160.059 120.462 160.365C119.273 161.099 119.6 162.579 118.951 163.586C118.477 163.925 118.046 164.365 118.253 164.971C118.722 166.362 118.122 167.514 117.604 168.699C117.124 168.888 116.65 169.071 116.17 169.255C115.597 169.661 115.183 170.301 114.447 170.462C114.185 170.167 113.923 169.872 113.667 169.578C113.847 168.498 114.823 167.892 115.199 166.929C115.657 166.996 116.023 166.79 116.252 166.429C116.661 165.783 117.43 164.899 116.857 164.348C116.23 163.747 115.881 164.977 115.336 165.271C115.068 163.842 114.223 163.669 113.056 164.17C112.554 164.381 112.042 164.554 111.529 164.749C111.502 164.57 111.48 164.376 111.458 164.187Z" fill="#4BE41E"/>
<path d="M117.975 146.222C118.597 146.139 119.218 146.055 119.835 145.966C119.251 147.435 118.673 148.909 118.068 150.373C117.915 150.745 117.751 151.268 117.228 151.146C116.715 151.024 116.715 150.478 116.786 150.083C117.032 148.754 116.623 147.202 117.975 146.222Z" fill="#4BE41E"/>
<path d="M74.7459 210.291C74.675 209.284 73.8243 208.683 73.508 207.798C73.4262 207.57 73.2026 207.448 72.9408 207.498C72.6082 207.565 72.4718 207.837 72.4991 208.121C72.5809 208.961 71.9919 209.623 71.9756 210.441C71.9646 210.953 71.7356 211.353 71.1357 211.359C71.0703 210.519 71.0703 209.69 70.6667 208.894C70.2577 208.087 69.6088 207.815 68.8508 207.915C68.1254 208.01 68.2727 208.794 68.1745 209.3C67.9564 210.396 68.4417 211.42 68.6163 212.477C67.5856 213.028 66.6585 213.662 65.9768 214.686C65.0661 216.054 64.4608 216.138 63.0756 215.348C62.7538 215.164 62.4212 214.986 62.1158 214.769C61.3469 214.23 60.7415 214.307 60.0544 215.025C58.5438 216.6 57.6549 216.538 56.0789 214.997C53.2485 212.227 52.0652 208.566 51.029 204.905C50.4073 202.713 49.453 200.677 48.7059 198.546C48.2151 197.139 47.8878 195.748 47.9315 194.268C49.1858 194.785 50.3473 195.564 51.7816 195.753C51.6398 195.336 50.74 195.414 51.149 194.78C51.6998 193.917 51.3944 192.955 51.558 192.048C53.4994 192.026 54.0338 193.528 54.3992 194.991C54.7646 196.449 55.4135 197.105 56.8914 196.621C56.7769 197.255 56.6024 197.89 56.5588 198.535C56.4824 199.692 57.4804 200.432 58.5329 199.954C59.0564 199.715 59.4763 199.247 59.9399 198.88C62.5848 199.269 64.8425 200.549 66.8712 202.224C68.5563 203.62 70.4595 204.722 71.9319 206.402C72.7063 207.286 73.0662 206.591 73.3934 205.862C74.6532 203.041 75.9565 202.329 78.9941 202.741C79.9702 203.231 80.9519 203.72 81.928 204.215C81.2191 204.455 81.0009 205.406 80.1666 205.456C79.4195 204.955 79.0377 205.573 78.6887 206.029C77.0309 208.204 76.5237 210.574 77.6144 213.184C77.1726 213.595 76.6491 213.829 76.1256 213.456C75.6184 213.095 75.8911 212.527 75.9565 212.026C76.0983 211.053 76.3165 210.012 74.7459 210.291ZM53.3358 198.218C52.5996 198.329 51.4217 197.817 51.378 199.358C51.3453 200.621 52.8395 202.513 53.8757 202.563C54.8682 202.613 55.8007 201.4 55.8062 200.054C55.8117 198.568 55.3427 198.212 53.3358 198.218ZM64.788 206.352C64.7771 205.395 62.8411 203.759 61.9195 203.887C61.4341 203.954 61.3305 204.238 61.3196 204.655C61.276 205.801 62.6175 207.242 63.7682 207.342C64.5153 207.403 64.7552 207.008 64.788 206.352ZM62.9393 210.68C62.9393 209.601 62.034 208.349 61.325 208.421C60.5507 208.499 60.4361 209.106 60.447 209.768C60.4689 210.886 61.3414 212.254 62.0176 212.127C62.8193 211.971 62.792 211.197 62.9393 210.68Z" fill="#4BE41E"/>
<path d="M98.7245 198.785C99.2426 198.696 99.7607 198.607 100.279 198.518C100.061 199.325 99.9897 200.176 99.4935 200.905C99.1063 201.467 99.2971 201.923 99.8916 202.296C100.895 202.925 102.138 202.546 102.586 201.411C103.207 199.842 102.416 198.841 100.284 198.496C100.35 198.246 100.491 198.062 100.737 197.984C102.809 197.756 104.298 198.591 105.378 200.427C106.021 201.523 105.972 202.235 104.789 202.563C103.676 202.869 102.853 203.442 101.915 204.143C100.617 205.111 98.7354 204.755 97.1703 203.993C96.5486 203.687 95.9924 203.253 95.2998 203.103C95.2943 202.93 95.2943 202.763 95.2889 202.591C96.7668 202.791 97.3884 201.845 97.8247 200.638C98.3919 200.154 98.3864 199.381 98.7245 198.785Z" fill="#4BE41E"/>
<path d="M83.3405 214.825C82.6043 215.771 82.9805 216.516 83.6895 217.289C84.6984 218.391 85.909 219.097 87.3106 219.537C87.6214 219.637 88.1286 219.726 88.0577 220.216C88.0086 220.577 87.5669 220.6 87.2724 220.689C85.1892 221.312 83.0569 221 80.941 220.95C80.0684 220.928 80.3302 220.06 80.2157 219.504C80.7665 218.141 80.4556 216.917 79.6649 215.759C79.8448 213.951 80.9192 213.451 82.3534 214.469C82.6043 214.647 82.9533 214.68 83.2587 214.786C83.2587 214.775 83.3405 214.825 83.3405 214.825Z" fill="#4BE41E"/>
<path d="M81.9389 204.204C80.9628 203.715 79.9811 203.219 79.005 202.73C78.9723 202.641 78.9177 202.557 78.9068 202.468C78.825 201.868 77.7671 201.534 78.1979 200.983C78.5633 200.516 79.474 200.694 80.0575 200.894C82.1298 201.606 84.4148 201.089 86.4216 202.101C85.2928 203.598 83.7222 204.137 81.9389 204.204Z" fill="#4BE41E"/>
<path d="M78.8687 219.315C78.7541 219.682 78.9723 220.277 78.3342 220.288C77.9143 220.299 77.7289 219.921 77.5708 219.559C77.0418 218.358 76.9273 217.122 77.2436 215.837C77.3908 215.248 77.7889 214.981 78.3179 214.864C78.8796 214.736 79.0541 215.109 79.1304 215.576C77.8598 216.739 78.3888 218.029 78.8687 219.315Z" fill="#4BE41E"/>
<path d="M95.2943 202.591C95.2998 202.763 95.2998 202.93 95.3052 203.103C93.9637 203.292 92.8512 204.282 91.4442 204.249C91.2425 203.804 91.0352 203.353 90.8335 202.908C90.8607 202.697 90.8825 202.485 90.9098 202.274C92.2677 201.673 93.6747 201.773 95.0816 202.012C95.1525 202.201 95.2234 202.396 95.2943 202.591Z" fill="#4BE41E"/>
<path d="M90.3481 207.047C89.9391 207.036 89.5355 207.025 89.1265 207.019C88.4612 206.201 88.6358 205.929 89.9718 205.667L90.0427 205.723C90.0591 206.062 90.2281 206.29 90.5117 206.463C91.1661 206.847 90.3481 206.83 90.3481 207.047Z" fill="#4BE41E"/>
<path d="M77.9034 193.901C79.0377 193.723 79.0323 193.222 78.4706 192.321C77.9252 191.453 76.8182 190.518 77.4835 189.439C78.1979 188.282 79.5122 188.972 80.5592 189.122C82.9369 189.461 85.2819 190.112 87.7195 189.784C88.5321 189.673 89.192 189.467 89.1483 188.443C89.6337 188.232 90.0591 187.942 90.3481 187.475C91.586 187.497 92.404 186.668 93.2166 185.923C94.2473 184.972 95.398 184.337 96.7559 184.092C98.9154 183.697 100.66 182.702 101.757 180.671C102.089 180.053 102.602 179.547 103.218 179.186C103.48 179.03 103.747 178.679 104.069 178.974C104.336 179.224 104.222 179.592 104.129 179.909C103.725 181.216 102.825 182.184 101.915 183.119C99.5044 185.589 97.1321 188.109 94.3291 190.145C93.9746 190.401 93.7074 190.707 93.642 191.164C92.9984 191.475 92.4204 191.853 91.6078 191.625C90.7626 191.386 90.3699 191.954 90.3208 192.777C87.8014 193.561 85.4837 194.858 83.0133 195.776C81.2245 196.443 79.5013 196.549 78.007 195.047C77.9743 194.663 77.9361 194.285 77.9034 193.901Z" fill="#4BE41E"/>
<path d="M54.0556 87.9455C53.7012 86.5658 52.2942 86.1486 51.558 85.1193C52.9868 81.887 55.6099 80.0956 58.7292 78.8883C59.5309 78.5768 60.3543 78.5879 61.1833 78.549C62.443 78.4822 62.7102 79.1999 62.2085 80.1456C60.7797 82.8328 59.2255 85.4476 56.8314 87.3948C55.7298 86.5992 54.8737 87.1611 54.0556 87.9455Z" fill="#4BE41E"/>
<path d="M64.6898 191.62C64.7007 190.68 64.3899 189.917 63.6809 189.261C63.1083 188.732 62.6066 188.098 62.4157 187.286C66.304 186.501 69.467 188.243 72.5264 190.323C73.3389 190.874 74.0751 191.531 74.8822 192.087C75.6621 192.621 75.4712 193.022 74.8004 193.439C73.8025 194.062 72.8317 193.65 71.8556 193.367C70.6177 193.011 69.527 192.193 68.1909 192.137C67.1275 191.23 65.9332 191.247 64.6898 191.62Z" fill="#4BE41E"/>
<path d="M38.4971 126.277C38.1153 127.029 38.0772 128.113 36.8447 128.036C36.1685 125.137 35.5849 122.227 36.2448 119.24C36.3702 118.678 36.343 117.754 36.9974 117.749C37.6627 117.743 37.8645 118.611 38.0444 119.245C38.677 121.554 38.3226 123.935 38.4971 126.277Z" fill="#4BE41E"/>
<path d="M83.5913 170.134C83.6077 171.519 83.624 172.905 83.6404 174.29C82.0589 174.657 80.4883 175.063 78.8632 175.169C78.8687 174.368 79.3213 173.906 80.0248 173.678C79.9812 173.049 79.3486 173.021 79.1632 172.61C80.2266 172.738 81.1755 172.682 81.2736 171.252C81.9226 170.623 82.6861 170.228 83.5913 170.134Z" fill="#4BE41E"/>
<path d="M137.591 139.68C137.291 137.788 137.231 135.874 137.144 133.966C136.986 134.239 137.204 134.728 136.626 134.856C136.593 134.472 136.577 134.15 136.533 133.827C136.478 133.393 136.675 132.742 135.966 132.759C135.333 132.776 135.175 133.326 135.164 133.894C135.148 134.706 135.066 135.518 134.635 136.214C134.33 136.703 134.068 137.187 133.926 137.744C133.817 138.167 133.724 138.623 134.144 138.906C134.662 139.251 135.006 138.834 135.344 138.511C135.791 138.078 136.091 137.555 136.266 136.948C136.364 136.609 136.522 136.253 136.909 136.714C137.215 137.076 137.291 140.32 136.909 140.598C135.595 141.571 135.873 142.99 135.78 144.314C136.478 143.101 136.511 141.571 137.531 140.492C137.678 140.347 137.635 139.952 137.591 139.68Z" fill="#4BE41E"/>
<path d="M122.976 106.561C122.48 106.822 122.687 107.462 122.834 107.979C123.396 109.943 123.592 111.968 123.396 113.993C123.308 114.906 123.227 116.091 121.754 115.924C121.378 115.879 121.143 116.185 121.007 116.469C119.731 119.167 118.384 121.843 118.15 124.914C118.499 124.926 118.853 124.937 119.202 124.948C119.24 124.67 119.267 124.386 119.327 124.108C119.426 123.635 119.731 123.295 120.195 123.379C120.778 123.485 120.658 124.002 120.565 124.408C120.44 124.959 120.265 125.499 120.107 126.038C120.107 126.428 120.113 126.812 120.113 127.201C121.432 128.008 121.482 128.247 120.445 129.504C120.969 129.415 121.356 130.333 121.787 129.488C122.381 128.319 122.921 127.201 122.294 125.743C121.351 123.551 121.678 121.204 122.021 118.917C122.152 118.06 122.529 118.027 123.074 118.722C123.919 119.791 124.825 119.601 125.244 118.277C125.501 117.476 125.626 116.631 125.812 115.807C125.882 115.279 125.959 114.75 126.03 114.222C125.773 111.829 125.163 109.521 124.252 107.306C124.066 106.828 123.554 106.26 122.976 106.561Z" fill="#4BE41E"/>
<path d="M118.717 80.7465C118.804 78.8438 118.177 77.0135 118.182 75.1275C118.188 73.6476 117.631 72.6796 116.186 72.3291C115.526 73.4529 115.27 74.6156 115.477 75.9564C115.783 77.9203 117.064 79.5114 117.342 81.4865C117.413 81.9983 117.762 82.6492 118.439 82.8384C118.651 82.1596 118.684 81.4586 118.717 80.7465Z" fill="#4BE41E"/>
<path d="M118.308 58.3482C118.984 59.8615 118.962 61.4526 119 63.0771C119.038 64.6627 119.491 66.2037 120.255 67.6224C120.391 67.8728 120.576 68.1287 120.893 68.0897C121.236 68.0452 121.291 67.7059 121.334 67.4444C121.433 66.7935 121.482 66.1314 121.536 65.6307C121.433 62.5653 120.391 59.9338 119.322 57.3134C119.148 56.885 119.006 56.2508 118.455 56.4344C118.002 56.5846 118.04 57.2244 118.084 57.6917C118.1 57.9143 118.215 58.1368 118.308 58.3482Z" fill="#4BE41E"/>
<path d="M98.43 35.0152C98.5173 35.2267 98.5718 35.4548 98.6427 35.6773C99.0463 35.9944 99.488 36.2114 100.006 36.2448C100.001 35.7162 100.121 35.2489 100.579 34.9374C100.551 34.7983 100.53 34.6592 100.502 34.5145C99.5098 33.4185 98.3973 32.4116 97.5738 31.1987C96.9194 30.2307 95.7906 29.4852 95.8233 28.0944C94.9889 28.5506 94.689 27.7383 94.1982 27.3767C93.631 27.9497 94.0891 28.3725 94.3836 28.8454C95.6924 30.9317 97.4757 32.6953 98.43 35.0152Z" fill="#4BE41E"/>
<path d="M121.002 78.5267C120.767 80.1512 121.34 81.6589 121.547 83.2167C121.705 84.3906 121.923 85.5477 122.638 86.5325C122.632 89.2752 122.6 92.0125 122.643 94.7552C122.665 95.9402 122.769 97.1809 124.241 97.5425L124.345 97.4813C124.334 96.9583 124.912 96.5745 124.71 96.0181C123.936 93.8706 124.301 91.6397 124.323 89.4477C124.334 88.1236 124.028 87.1612 122.867 86.5436C123.09 83.7508 122.719 80.9802 122.474 78.2152C122.436 77.7757 122.469 76.9578 121.765 77.058C121.078 77.1525 121.089 77.8981 121.002 78.5267Z" fill="#4BE41E"/>
<path d="M121.318 70.9271C121.143 70.5488 120.914 70.2817 120.484 70.6767C119.753 71.3499 119.148 74.7936 119.649 75.6504C119.982 76.2179 120.353 76.3903 120.734 75.6504C121.209 74.7324 121.705 73.8312 121.514 72.941C121.493 72.1232 121.591 71.5001 121.318 70.9271Z" fill="#4BE41E"/>
<path d="M16.8634 105.715C18.1068 107.123 18.0577 107.501 16.4544 108.925C16.4544 109.309 16.4926 109.699 16.7434 109.999C18.1831 111.751 18.2813 113.554 17.3706 115.663C16.5962 117.454 16.9452 118.021 18.554 119.045C19.0066 118.784 19.5901 119.034 20.01 118.644C20.1518 117.782 20.0264 116.92 19.7537 116.13C18.254 111.707 18.9357 107.301 19.7483 102.889C19.7755 102.75 19.781 102.605 19.7919 102.466C18.783 101.798 17.7687 101.131 16.7598 100.458C16.858 102.21 16.0072 103.979 16.8634 105.715Z" fill="#4BE41E"/>
<path d="M11.2137 109.02C12.5716 107.373 13.346 105.404 14.1749 103.462C14.4912 102.722 13.9786 102.689 13.4823 102.666C12.5007 102.705 11.5082 102.922 10.5375 102.544C10.003 102.956 9.23409 103.156 9.21228 104.041C9.17956 105.643 9.08139 107.245 9.7249 108.781C10.1884 109.882 10.4502 109.943 11.2137 109.02Z" fill="#4BE41E"/>
<path d="M37.1446 181.984C36.7956 182.935 36.0812 183.358 35.1487 183.492C35.6449 184.376 36.2066 185.216 37.0465 185.812C37.6354 185.216 38.2353 185.061 39.0042 185.567C39.6586 185.995 40.4276 186.19 41.2129 186.262C41.3492 185.506 41.0929 184.688 41.5346 183.976C40.8911 182.679 39.7514 182.006 38.4971 181.483C37.8917 181.222 37.3955 181.311 37.1446 181.984Z" fill="#4BE41E"/>
<path d="M18.314 132.052C18.4721 132.62 18.9139 133.093 18.843 133.732C19.0229 134.406 19.1266 135.134 20.0264 135.201C20.2063 135.162 20.3808 135.118 20.5608 135.079C19.6883 133.694 19.9391 131.986 19.3065 130.534C18.7175 130.856 18.5485 131.474 18.314 132.052Z" fill="#4BE41E"/>
<path d="M64.7116 220.861C62.9829 221.078 62.4757 220.728 62.0776 219.058C62.0013 218.747 61.8377 218.558 61.565 218.447C60.4416 218.001 59.34 217.495 58.1893 217.145C57.3822 216.9 56.5315 216.944 56.5806 218.191C56.6188 219.059 56.1007 219.292 55.4136 219.492C54.372 219.798 53.3903 219.303 52.376 219.342C52.7905 220.711 54.1156 220.433 55.0373 220.789C58.5656 222.157 62.1703 221.89 65.7641 221.022C65.4478 220.761 65.0934 220.811 64.7116 220.861Z" fill="#4BE41E"/>
<path d="M105.378 118.956C104.811 119.106 104.527 120.113 103.911 119.74C103.382 119.423 103.747 118.6 103.654 118.01C103.458 116.681 104.151 115.429 103.987 114.105C103.376 114.661 102.776 115.173 102.367 115.907C102.771 115.167 103.376 114.661 103.987 114.105C104.031 112.981 104.036 111.857 103.856 110.744C103.807 110.038 103.676 109.326 103.731 108.63C103.807 107.557 104.298 106.828 105.525 107.028C105.476 106.233 105.361 105.437 105.394 104.641C105.552 101.109 105.181 97.5981 104.974 94.082C104.898 92.7913 104.898 91.4338 104.216 90.2433C103.704 89.1695 103.513 87.9178 102.547 87.0944C102.444 87.4004 102.286 87.7008 102.242 88.0179C101.702 91.9679 102.057 95.9402 101.991 99.9069C102.406 100.168 102.869 100.218 103.338 100.252C103.48 104.057 103.584 107.857 102.466 111.562C102.002 112.263 102.029 113.215 101.359 113.804C101.053 114.283 100.884 114.772 100.96 115.373C101.086 116.363 100.851 117.298 100.257 118.116C99.8098 121.999 98.7845 125.643 96.096 128.603C96.2814 129.654 95.8888 130.656 95.8342 131.685C96.7122 134.428 94.7654 138.061 91.7169 139.363C91.0407 140.659 90.8607 142.406 88.9084 142.517C88.6684 143.29 87.7632 143.802 88.0413 144.781C90.9752 143.93 93.6856 142.684 95.9051 140.442C96.6959 139.641 97.6339 138.906 99.0299 138.923C98.6973 139.641 98.4082 140.219 98.1683 140.815C98.0538 141.104 97.8029 141.471 98.0919 141.738C98.4519 142.072 98.8227 141.766 99.0681 141.516C100.093 140.481 101.086 139.429 101.479 137.938C101.806 136.703 102.127 135.463 102.586 134.278C102.858 133.577 103.213 132.687 104.303 133.204C104.429 133.07 104.641 132.954 104.663 132.803C105.121 129.744 106.321 126.856 106.736 123.785C107.455 122.138 107.019 120.647 106.163 119.206C105.896 119.129 105.634 119.04 105.378 118.956ZM103.829 96.6301C103.829 96.6356 103.829 96.6467 103.829 96.6523C103.829 96.6467 103.829 96.6412 103.829 96.6301Z" fill="#4BE41E"/>
<path d="M96.1123 53.5081C96.0523 53.8474 95.8724 53.9809 95.5343 53.9587C94.5254 53.9031 94.5581 54.6931 94.6017 55.3217C94.6726 56.3677 95.2289 57.1799 96.0796 57.7641C96.8649 58.3037 97.4375 59.0103 97.8738 59.8726C98.5009 61.1133 99.199 62.315 99.8697 63.5278C100.082 61.6919 100.082 61.6919 101.626 62.5653C101.86 62.6988 102.133 62.8991 102.378 62.6321C102.646 62.3428 102.482 62.0034 102.351 61.7085C101.009 58.7488 99.3517 55.9726 97.6011 53.2577C97.0994 52.4844 96.3741 52.0004 96.1123 53.5081Z" fill="#4BE41E"/>
<path d="M38.1262 96.4186C37.7336 97.8763 37.5427 99.3895 37.6736 100.919C37.6954 101.192 37.6572 101.548 37.9626 101.659C38.268 101.771 38.4807 101.498 38.6443 101.281C38.8406 101.025 39.037 100.747 39.146 100.441C40.433 96.7636 41.0329 92.9359 41.5019 89.0861C41.2183 89.0749 40.9293 89.0638 40.6457 89.0527C39.6477 91.4505 38.8079 93.9095 38.1262 96.4186Z" fill="#4BE41E"/>
<path d="M42.0909 102.761C42.0745 101.031 42.1127 99.3005 42.129 97.5758C42.069 97.1808 42.2217 96.6968 41.6328 96.4743C40.9565 97.3644 40.7111 98.4048 40.6893 99.5008C40.6566 101.531 40.6621 103.562 40.6512 105.593C41.611 104.897 42.1018 103.979 42.0909 102.761Z" fill="#4BE41E"/>
<path d="M43.5088 84.2849C43.8632 84.7244 44.3486 84.563 44.7958 84.5797C44.6976 82.0984 46.2682 80.1401 47.1025 77.72C45.1993 78.5935 43.6669 81.581 43.5088 84.2849Z" fill="#4BE41E"/>
<path d="M91.6078 191.62C90.7625 191.381 90.3699 191.948 90.3208 192.777C91.3842 193.027 92.4531 193.2 93.5492 193.2C93.8546 192.894 94.3563 192.844 94.5472 192.393C94.2473 191.981 93.9419 191.57 93.6419 191.158C92.9984 191.475 92.4204 191.848 91.6078 191.62Z" fill="#4BE41E"/>
<path d="M52.6923 66.9548C51.6234 67.6614 51.029 68.8241 50.1292 69.692C50.5655 69.8422 50.7618 70.4542 51.3344 70.343C51.8797 70.1761 52.2997 69.8367 52.6814 69.4194C52.6869 68.6016 52.6869 67.7782 52.6923 66.9548Z" fill="#4BE41E"/>
<path d="M53.8648 65.3414C53.5158 65.831 53.1886 66.3373 52.8559 66.838C53.9793 66.5932 55.1245 66.3985 55.7517 65.2302C55.07 64.3734 54.4428 64.5236 53.8648 65.3414Z" fill="#4BE41E"/>
<path d="M81.8135 186.568C80.7283 187.08 79.6321 186.935 78.5687 186.552C73.857 184.838 69.1725 183.052 65.1151 179.948C64.8588 179.753 64.5589 179.608 64.259 179.492C63.9209 179.352 63.5337 179.158 63.2119 179.447C62.8683 179.753 63.0919 180.154 63.1901 180.504C63.3701 181.138 63.5882 181.761 63.7682 182.396C63.8445 182.663 63.9154 183.002 63.6864 183.202C63.4409 183.419 63.1519 183.23 62.9283 183.069C62.2303 182.568 61.6359 182.351 61.3414 183.481C61.265 183.764 61.0687 184.015 60.7251 183.759C60.3707 183.492 60.6379 183.341 60.8179 183.108C61.4395 182.301 61.205 181.728 60.2725 181.45C59.4763 181.211 58.6747 180.977 57.8621 180.81C56.9296 180.621 56.6569 181.055 57.0005 181.928C57.0659 182.101 57.175 182.262 57.284 182.412C58.6856 184.376 60.5288 185.862 62.4212 187.291C62.612 188.104 63.1192 188.738 63.6864 189.267C64.3953 189.923 64.7061 190.685 64.6952 191.625C64.2862 191.809 63.8718 191.987 63.4628 192.171C61.4777 190.863 59.7272 189.25 57.993 187.648C53.5812 183.57 50.4946 178.562 48.4441 172.871C48.155 171.803 47.8551 170.746 46.4918 170.674C45.1284 169.438 44.4195 167.736 43.4924 166.195C42.9634 165.316 42.4889 164.42 41.551 163.92C41.3274 162.651 41.431 161.104 39.4405 161.349C38.6225 157.867 38.3825 154.261 37.2155 150.846C36.8665 149.822 37.0846 148.687 37.6572 147.697C38.5352 147.802 38.9988 148.754 39.8877 148.832C40.5312 153.75 42.9961 157.961 45.0248 162.328C45.6301 163.63 46.7753 163.48 47.3698 162.1C47.866 160.943 48.155 159.691 48.5368 158.479C50.0637 160.654 51.7706 162.718 53.074 165.027C54.5955 167.714 56.1061 170.356 58.8056 171.942C60.5288 172.955 61.854 174.357 63.1028 175.842C63.8936 176.782 64.6352 177.722 65.715 178.334C66.2058 178.613 66.6912 178.952 67.1983 178.373C67.4819 178.607 67.7001 178.907 68.0927 179.019C70.6013 179.703 72.9626 180.827 75.5093 181.417C77.7725 181.939 79.9102 181.978 82.0044 180.888C85.1946 179.23 88.5321 178.001 92.0005 177.055C97.3666 175.592 102.018 172.871 105.541 168.381C106.207 167.53 107.063 166.662 106.97 165.539C106.692 162.195 106.828 158.957 108.372 155.892C108.562 155.513 108.672 154.834 108.257 154.567C107.804 154.273 107.292 154.59 106.899 154.979C106.627 155.252 106.321 155.463 105.907 155.363C105.972 155.191 105.988 154.974 106.103 154.846C108.148 152.615 109.239 149.9 110.008 146.996C110.667 144.498 111.311 141.989 112.62 139.735C113.781 140.175 113.307 141.716 114.267 142.289C113.82 143.001 114.469 143.635 114.409 144.347C114.289 145.766 113.705 146.985 113.083 148.197C112.265 149.794 112.325 150.84 113.487 152.142C113.972 152.687 113.814 153.132 113.58 153.683C112.838 155.452 112.958 155.691 114.708 156.109C114.31 157.243 113.918 158.373 113.525 159.508C112.603 160.965 111.84 162.501 111.458 164.203C110.198 164.042 109.522 164.576 109.495 165.9C109.239 165.978 108.83 165.978 108.742 166.145C107.794 167.936 106.387 169.472 105.879 171.502C104.309 173.6 102.831 175.753 100.524 177.16C98.2773 178.529 95.9487 179.631 93.4238 180.326C91.586 180.832 89.8354 181.5 88.3085 182.757C87.1905 183.681 86.9124 184.571 87.8504 185.745C86.8524 185.895 85.5927 185.472 85.2219 186.997C84.911 186.785 84.6056 186.574 84.2948 186.362C84.333 186.184 84.3657 186.006 84.4093 185.834C84.6384 184.983 84.6602 184.22 83.5858 183.976C82.5006 183.731 82.0807 184.426 81.8844 185.328C81.7971 185.711 81.8353 186.145 81.8135 186.568Z" fill="#4BE41E"/>
<path d="M90.1354 126.428C89.6937 127.023 88.9847 126.567 88.483 126.906C87.0597 128.058 86.3507 129.821 85.0037 131.062C82.2498 133.605 76.6491 132.703 75.7711 129.499C75.7166 128.898 75.3294 128.464 75.0076 128.019C74.495 127.312 73.5898 126.94 73.3771 125.977C73.3116 126.072 73.2462 126.138 73.1916 126.188C73.2462 126.138 73.3116 126.072 73.3771 125.977C73.3171 124.119 72.8808 122.344 72.1773 120.636C71.6701 121.02 71.1084 121.115 70.4977 120.976C68.7089 117.465 69.4179 111.384 71.8992 108.998C71.8447 107.573 72.919 106.566 73.2135 105.27C73.388 104.035 72.6845 103.74 71.7083 103.918C70.1814 104.202 68.9816 105.009 68.1363 106.377C67.2311 107.84 66.7348 109.459 66.2931 111.095C65.6005 113.671 64.7661 116.163 62.6775 117.977C63.2719 119.774 63.7463 121.593 63.5391 123.524C63.49 123.985 63.5827 124.553 63.0429 124.736C62.4103 124.948 62.3121 124.314 62.0994 123.935C61.7122 123.24 61.3468 122.528 60.9978 121.816C60.7742 121.354 60.6488 120.753 60.0217 120.764C59.2637 120.775 58.8656 121.382 58.6747 122.016C58.462 122.728 58.4075 123.496 58.2875 124.241C58.2275 124.614 58.2166 125.009 57.7858 125.17C57.0278 127.307 57.7258 129.393 58.0148 131.496C58.2548 131.618 58.642 131.68 58.7129 131.869C59.1328 132.954 59.9344 132.776 60.7579 132.609C60.7852 132.509 60.807 132.403 60.8288 132.303C60.807 132.408 60.7852 132.509 60.7579 132.609C61.0251 132.976 60.9597 133.415 61.036 133.833C61.4995 136.314 62.0067 138.762 64.5098 140.108C65.2406 140.503 65.7041 141.26 66.1949 141.961C67.0238 143.146 67.5965 144.542 68.8071 145.421C69.0525 145.794 73.1098 149.01 73.4807 149.065C74.8004 149.277 76.1201 149.494 77.4508 149.644C78.3997 149.75 78.7378 149.204 78.4596 148.331C78.0125 146.923 78.6123 146.183 79.8666 145.783C81.4099 145.288 82.9423 144.776 84.4857 144.286C85.4782 143.969 86.0126 144.264 85.8545 145.416C86.667 145.516 87.316 145.015 88.0413 144.787C87.7577 143.802 88.6684 143.296 88.9084 142.523C88.5212 141.888 88.772 141.271 88.9302 140.637C89.2792 139.229 89.6064 137.81 88.7775 136.447C87.7359 137.415 86.6616 138.306 85.1128 138.111C84.5402 138.039 83.9894 137.916 83.7767 137.287C83.5695 136.687 83.9621 136.319 84.3657 135.975C85.2928 135.196 86.3125 134.556 87.376 133.988C89.65 132.781 91.3897 131.018 92.633 128.731C92.5622 127.908 92.2513 127.184 91.7223 126.572C91.2479 126.038 90.7189 125.643 90.1354 126.428ZM66.0859 128.597C66.124 127.93 66.0368 127.301 66.5658 127.051C67.1275 126.789 67.5746 127.284 67.82 127.707C69.4452 130.478 71.4956 132.915 73.4752 135.418C73.7806 135.808 74.0806 136.403 73.6661 136.842C73.2898 137.243 72.7281 136.887 72.4064 136.631C69.936 134.662 66.7566 133.315 66.2222 129.577C66.1677 129.198 66.1186 128.826 66.0859 128.597ZM80.412 143.936C78.3887 143.786 76.3546 143.635 74.3478 143.335C72.5918 143.073 70.8412 143.146 69.0852 143.185C68.4908 143.007 68.1091 142.617 67.9346 142.011C67.8037 140.375 68.2072 140.058 69.7069 140.459C73.2244 141.41 76.7036 142.634 80.4392 142.272C81.0555 142.211 81.7753 142.289 81.7699 143.124C81.7699 143.991 80.9846 143.98 80.412 143.936Z" fill="#4BE41E"/>
<path d="M50.3364 48.985C49.164 48.2117 49.0276 47.4661 49.9165 46.3034C50.6855 45.302 51.6343 44.4285 52.3051 43.3659C53.8157 40.9681 55.0427 38.3533 57.7149 37.0181C57.2023 36.2559 56.2152 36.5007 55.9753 35.6717C54.072 37.0793 52.4305 38.8317 50.3964 40.0668C50.0365 40.2838 49.6984 40.9848 49.2785 40.4507C48.9131 39.9834 49.3712 39.427 49.8075 39.1711C51.4817 38.1808 52.6269 36.6064 54.0557 35.3435C53.9684 35.2823 53.8866 35.2322 53.8048 35.1933C53.8866 35.2322 53.9739 35.2767 54.0557 35.3435C54.8409 34.2586 56.1007 33.8469 57.1368 33.1181C61.5704 32.6897 65.9005 33.7023 70.2741 34.1251C71.8283 32.8399 74.2278 33.4575 75.144 35.3212C75.5203 36.089 75.9402 37.4075 76.8291 37.0236C77.5871 36.7009 76.7636 35.6105 76.4146 34.9818C75.8911 34.0416 76.2674 33.5465 77.0527 33.2238C78.7814 32.5061 80.5265 32.0666 82.4297 32.673C83.7004 33.0792 85.0419 33.3351 86.378 32.8177C86.7598 32.8511 86.9561 33.1626 87.2178 33.3796C87.3051 33.6911 87.5614 34.1084 87.4469 34.2976C86.6343 35.6328 87.5505 36.2781 88.3903 36.9513C88.9684 37.4186 89.5355 37.9472 90.1899 38.2531C93.0911 39.6106 95.1907 41.8471 97.1485 44.3395C98.2719 45.7693 99.4062 47.3827 101.495 47.5385C101.489 46.8597 101.299 46.2255 100.939 45.6636C99.957 44.1615 99.1444 42.5926 98.9972 40.7511C97.6393 39.7942 96.4232 38.7483 96.6577 36.8067C96.1341 36.6342 95.916 35.9777 95.3107 35.9276C93.9037 34.2697 92.5022 32.6063 91.0952 30.9484C90.8443 30.648 90.5117 30.5033 90.1245 30.4866C89.6991 30.7537 89.2792 30.8761 88.8484 30.8927C89.2847 30.8761 89.6991 30.7537 90.1245 30.4866C89.7209 29.4518 88.6412 29.0791 88.0249 28.2557C88.0849 27.5213 88.5321 27.2209 89.1974 27.1374C89.8573 27.054 90.1463 27.3878 90.4135 27.9775C90.997 29.2849 91.7714 28.367 92.4149 28.0276C92.873 27.7828 93.0475 27.0929 93.6965 27.0762C93.4947 26.4198 93.2984 25.7577 93.0966 25.1012C92.3004 24.9343 92.2186 24.2166 92.0877 23.6102C91.9023 22.7813 91.5642 22.0469 91.1061 21.3515C90.5717 21.307 89.9991 21.524 89.5246 21.1067C88.5157 19.4377 88.4885 18.3695 89.4374 17.407C88.7175 15.738 88.0358 15.3208 86.7761 15.7936C86.4053 17.8298 85.1783 18.7089 83.7658 17.9467C82.8878 17.4738 82.7842 16.8229 83.6186 16.2777C84.3057 15.8326 85.1237 15.5934 85.8872 15.2707C85.5982 14.9369 85.3091 14.5975 85.0201 14.2581C84.6929 14.2859 84.3984 14.2248 84.1585 13.98C83.9894 13.9744 83.8204 13.9688 83.6513 13.9633C83.1496 12.2219 82.168 11.0147 80.2702 10.8366C79.4685 11.0981 79.0323 10.5918 78.6233 10.0299C77.5217 9.73508 76.3983 9.50141 75.3185 9.12866C73.857 8.62796 72.4827 8.34979 71.2557 9.65163C70.9776 9.94649 70.5795 10.1245 70.2359 10.3526C70.045 10.3415 69.8596 10.3359 69.6688 10.3248C69.6579 10.5251 69.6415 10.7198 69.6306 10.9201C70.2959 11.571 70.9612 12.2219 71.6265 12.8728C71.0158 13.3179 70.4704 12.8951 69.9251 12.7115C67.8255 12.0105 65.7205 12.1719 63.6373 12.6837C62.4485 12.9785 62.3121 13.7797 63.1847 14.6754C63.441 14.9424 63.7409 15.1817 63.8118 15.5822C64.7934 15.8715 65.5405 16.4279 65.8732 17.4571C66.2876 18.4196 65.8841 18.9815 65.0061 19.3264C64.3026 19.599 63.5828 19.7715 62.8302 19.7047C61.2269 19.5601 59.6236 19.3765 58.0257 19.2096C57.2623 19.2318 56.5042 19.2541 55.7408 19.2763C55.6808 19.3876 55.5826 19.6101 55.5553 19.599C54.2956 19.204 53.2267 19.777 52.1306 20.2499C49.862 21.2235 47.7515 22.6811 45.1339 22.5532C44.305 22.1137 43.6724 21.4294 43.0016 20.7951C41.371 19.2596 40.9239 19.1873 38.9497 20.1609C37.39 20.9287 35.8413 21.7242 34.2871 22.5087C33.5836 21.7409 33.6708 20.9454 34.0853 20.0441C34.9633 18.1358 36.4848 16.6059 37.1174 14.5641C37.281 12.8895 38.3117 12.2108 39.8332 12.0884C39.8059 11.4208 40.0949 10.6364 40.5585 10.4861C43.0016 9.68501 44.6049 7.61542 46.7154 6.39703C49.5021 4.78364 52.7741 4.82815 55.9098 4.64455C58.2711 4.51103 60.6434 4.63899 62.9992 4.49434C63.8282 4.44427 64.4062 4.47209 64.8916 5.22315C65.4915 6.14668 66.2222 6.20231 66.893 5.27878C67.2475 4.79477 67.6401 4.6835 68.2127 4.77808C70.634 5.16752 73.0771 5.30104 75.5257 5.17308C77.3308 5.0785 79.0323 5.47907 80.6792 6.1578C82.8715 7.05908 85.1783 7.6488 87.2942 8.75592C88.0958 9.17317 88.9357 9.22325 89.6555 8.6224C90.5499 7.87134 91.3624 8.19958 92.235 8.61127C92.6276 8.80043 92.9166 9.28444 93.4402 9.13423C93.5711 8.90613 93.4565 8.76705 93.3366 8.6224C91.417 6.21344 88.7284 5.18977 85.9308 4.36638C85.5109 4.24399 84.9547 4.41089 84.7693 3.79891C84.3712 3.59307 84.0167 3.27596 83.5204 3.32603C83.0841 3.34272 82.7569 3.13131 82.4952 2.7975C81.8462 2.1132 81.1536 1.54573 80.1284 1.54017C74.7404 1.52348 69.4452 0.438615 64.0845 0.143754C56.0243 -0.301319 48.2041 0.31622 41.5619 5.76837C38.628 8.17732 35.2741 10.1968 33.9108 14.1135C33.8508 14.2804 33.7144 14.4362 33.5781 14.553C31.9475 15.9661 30.8787 17.7965 30.0716 19.7659C28.0756 24.6117 25.6434 29.0846 21.5533 32.5117C19.1266 34.5423 16.8198 36.7455 14.8075 39.2546C13.2423 41.2129 12.5498 43.5773 11.4973 45.7693C9.85033 49.1964 8.42153 52.7236 7.19452 56.3398C6.45831 58.5151 6.36015 60.9185 4.94226 62.8434C5.30219 63.0993 5.49851 63.4332 5.56395 63.8949C5.89661 66.1481 5.90751 66.1481 8.11614 66.1092C8.34519 66.1036 8.57968 66.0925 8.80873 66.0813C8.89053 66.0424 8.9287 65.9756 8.92325 65.8811C9.11412 64.9019 8.03979 64.3177 8.14341 63.3887C8.34518 61.6195 8.57423 59.8503 8.85781 58.0923C8.95597 57.4747 8.98869 56.6514 9.8067 56.5568C10.4993 56.4789 11.0446 56.8127 11.5572 57.4358C12.0481 58.0366 12.3262 59.1771 13.515 58.86C13.3732 57.9198 12.7188 57.1743 12.6425 56.1896C12.5661 55.2494 12.9479 54.9879 13.755 55.0602C16.3453 55.2994 17.0052 56.2341 16.6016 59.0881C17.9214 59.1493 18.1504 60.1841 18.4013 61.1967C18.963 63.2106 18.4885 64.9853 17.2833 66.6488C16.847 67.2497 16.5907 67.984 16.269 68.6683C15.0965 71.183 13.6023 73.5808 12.8715 76.2679C11.8354 80.1011 13.226 83.7507 14.1749 87.3948C14.9602 90.4101 15.8709 93.3921 15.8709 96.5466C15.8709 97.9374 15.9145 99.2671 16.7598 100.43C17.7687 101.097 18.783 101.765 19.7919 102.438C20.1627 101.548 20.539 100.658 21.0298 99.4896C21.4006 101.732 20.9916 103.629 20.828 105.532C20.7899 105.949 20.5935 106.372 20.9807 106.722C21.6842 106.143 22.2732 105.32 23.3639 105.587L23.4457 105.582C23.2821 102.894 23.6856 100.224 23.7347 97.5424C23.173 96.1238 23.4457 94.6662 23.5711 93.2252C23.6147 92.7023 23.7892 92.1904 23.2112 91.8566C23.0803 91.89 22.9494 91.929 22.8185 91.9623C22.295 92.8358 22.3168 93.8761 22.006 94.8108C21.8915 95.1502 21.8587 95.662 21.3788 95.6231C20.9589 95.5897 20.8662 95.1224 20.7626 94.7663C20.4954 93.8261 20.8717 92.7468 20.1627 91.9011C20.0318 92.3073 19.9337 92.7635 19.3502 92.6133C18.8375 92.4797 18.374 92.196 18.2431 91.6619C17.7087 89.4644 17.5778 87.2557 18.2268 85.047C18.0086 83.9622 17.0161 83.2945 16.7653 82.2319C16.4762 81.5977 15.4728 80.7966 17.1252 80.6185C17.3651 80.4906 17.6051 80.3571 17.845 80.2291C18.5812 78.9217 17.9977 77.4752 18.2431 76.1122C18.6358 73.9369 18.663 71.7838 19.7319 69.6364C20.8335 67.411 21.3079 64.7573 21.3679 62.1202C21.4061 60.3622 22.0223 58.7098 22.9658 57.2299C23.2275 56.8183 23.6529 56.3064 24.2092 56.5957C24.7218 56.8628 24.46 57.4302 24.3564 57.8753C23.9856 59.4331 23.5602 60.9797 23.2439 62.5486C23.0967 63.2885 22.8022 64.1675 23.7511 64.6794C23.582 65.1634 23.4566 65.6641 23.2439 66.1203C22.1205 68.4903 21.248 70.9382 20.8717 73.553C20.8008 74.0315 20.479 74.5822 21.188 74.866C20.3481 76.5183 20.31 78.3487 20.07 80.1345C20.4136 80.3626 20.7735 80.5462 21.1989 80.5462L21.3243 80.5351L21.3188 80.6686L21.3516 80.6908C21.7606 80.6408 22.1696 80.5907 22.5786 80.5406C22.2514 77.7923 22.9276 75.1998 23.8165 72.6573C24.2037 71.5557 24.4709 70.3819 25.2944 69.4861C25.6107 69.1412 25.9542 68.6683 26.445 68.8797C26.9795 69.1134 26.8104 69.7254 26.6959 70.1426C25.9488 72.9688 25.218 75.8006 24.0292 78.4766C23.702 79.211 23.3639 79.9342 23.3748 80.7687C26.2542 82.4378 24.9563 85.0693 24.8472 87.4226C25.1144 89.6201 26.2215 91.6508 25.9433 93.9707C25.8125 95.0945 25.747 96.2017 25.2835 97.242C25.0108 98.5717 25.0871 99.918 25.0708 101.264C26.2433 102.31 26.0742 103.262 24.5745 104.046C24.4491 104.569 24.3237 105.086 24.1982 105.609C24.5473 105.915 24.8036 106.277 24.869 106.755C25.8561 107.039 25.9979 107.735 25.7852 108.641C25.6161 109.376 25.4307 110.121 25.3871 110.867C25.3544 111.49 25.5671 112.185 26.2651 112.297C26.9522 112.402 27.1649 111.746 27.3067 111.195C27.6175 109.96 27.8902 108.719 28.1792 107.479C28.6101 105.621 29.7171 104.052 30.3115 102.255C31.8985 97.459 33.8835 92.8358 36.1085 88.3127C36.6484 87.2167 37.3355 86.0707 37.2701 84.8634C37.1446 82.6102 37.9681 81.0469 39.855 79.9787C39.1242 78.4599 40.1277 77.414 40.8257 76.2958C41.6492 74.9717 42.9089 73.9202 43.2361 72.2845C42.4017 71.539 41.5673 70.8603 41.7582 69.4861C41.9109 68.3957 42.6962 67.9006 43.3452 67.2608C44.6376 65.9868 44.7631 65.347 43.8251 63.8727C43.427 63.244 43.3124 62.6209 43.4106 61.8643C43.7269 59.4664 45.4447 58.1201 47.0644 56.7237C48.3732 55.5943 49.742 54.5428 50.8654 53.2132C52.556 51.2382 52.4305 50.3703 50.3364 48.985ZM53.5376 35.1209C53.5812 35.1265 53.6248 35.1432 53.663 35.1543C53.6194 35.1432 53.5812 35.1321 53.5376 35.1209ZM74.7077 14.6086C74.9749 14.4974 75.1767 14.2915 75.4003 14.1024C75.5094 14.0078 75.6293 13.9188 75.7602 13.852C75.6239 13.9188 75.5094 14.0078 75.4003 14.1024C75.1767 14.286 74.9749 14.4974 74.7077 14.6086C74.5277 15.3819 74.5168 16.2053 74.0915 16.8952C73.8952 17.2123 73.6007 17.5072 73.1917 17.4515C72.7118 17.3903 72.7172 16.9341 72.6627 16.5781C72.4936 15.5043 72.5809 14.425 72.7118 13.3513C74.1951 12.4834 74.2387 12.5112 74.7077 14.6086ZM41.3329 26.3752C41.1747 26.4698 41.022 26.57 40.8693 26.6701C41.022 26.57 41.1747 26.4698 41.3329 26.3752ZM38.5952 27.805C38.8843 27.7383 38.9988 27.9497 39.1624 28.0999C39.615 28.8565 39.506 29.6799 39.4569 30.5033C39.3096 30.6313 39.1624 30.7592 39.0206 30.8872C38.5843 30.7592 38.1426 30.6368 37.7009 30.5089C37.0683 28.6229 37.2428 28.111 38.5952 27.805ZM36.2285 23.7604C36.9756 23.7382 37.0574 24.3502 37.1065 25.0345C36.9156 25.4573 37.0956 26.2862 36.2285 26.2529C35.4704 26.225 35.2905 25.5352 35.2796 24.9232C35.2632 24.339 35.5577 23.7827 36.2285 23.7604ZM28.7082 32.801L28.73 32.8455C29.5262 33.1181 30.6169 32.3281 31.1459 33.5521C31.5603 33.5576 31.9748 33.5576 32.3893 33.5632C32.4602 32.8956 32.8201 32.8399 33.3327 33.1014C33.7308 33.3073 34.1398 33.502 34.5434 33.7023C34.5434 34.1696 34.5161 34.6369 34.756 35.0653C34.7451 37.0626 34.5979 37.2573 32.6347 37.8192C32.4929 37.9527 32.3511 38.0807 32.2093 38.2142C32.3675 39.3547 31.6803 40.0279 30.9059 40.6454C29.9843 41.6524 29.0191 42.0307 27.9447 40.8568C27.9611 41.5578 27.8248 42.1976 27.5739 42.804C27.8302 42.192 27.9611 41.5522 27.9447 40.8568C26.8868 39.1488 26.7613 37.2517 26.7668 35.2934C26.7723 33.8747 27.4158 33.107 28.7082 32.801ZM25.1526 61.3079C25.1526 60.963 25.3162 60.7516 25.6379 60.6681C25.578 60.9574 25.4089 61.1633 25.1526 61.3079ZM19.7101 39.555C20.3536 38.8206 21.0025 38.1029 21.8587 37.847C22.4859 37.8804 22.7804 38.0139 22.5949 38.637C22.2841 39.644 21.6188 40.3227 20.7681 40.8346C20.3809 41.0682 19.9119 41.0348 19.6174 40.701C19.3065 40.345 19.3883 39.9166 19.7101 39.555ZM26.8595 67.4945C27.852 66.8046 28.7955 66.0313 28.9863 64.646C28.8991 64.6404 28.8064 64.646 28.7191 64.6571C28.2447 65.2301 27.792 65.9701 27.0831 64.9019C27.0177 64.2732 27.0722 63.6613 27.1649 63.0437C27.0776 63.6613 27.0177 64.2732 27.0831 64.9019C27.6503 64.9575 28.1247 64.4012 28.7191 64.6571C28.8064 64.646 28.8936 64.6404 28.9863 64.646C28.79 66.0257 27.852 66.8046 26.8595 67.4945ZM31.8712 66.5431C31.364 68.2622 30.8187 69.9646 30.0552 71.5891C29.2372 73.3249 29.1718 75.2498 28.9809 77.1247C28.8773 78.1595 28.5392 79.0441 27.9447 79.8563C27.7539 80.1178 27.5848 80.4906 27.2031 80.3626C26.7941 80.2291 26.9195 79.8285 26.9359 79.5003C27.7048 74.8827 28.6373 70.304 30.366 65.9478C30.6714 65.1801 31.2059 63.817 31.9857 64.1453C32.8146 64.5013 32.1166 65.7141 31.8712 66.5431ZM40.6512 51.3494C40.0131 51.7277 39.8932 51.1491 39.7459 50.7041L39.6696 50.6985L39.5987 50.7207C38.7752 51.2493 38.2953 52.056 37.8808 52.9183C37.5755 53.8084 37.2101 54.6541 36.2666 55.038C35.7595 55.2438 35.285 55.3773 35.0996 54.6318C34.9196 54.5539 34.7451 54.4816 34.5652 54.4037C33.8562 55.1158 34.3907 56.4511 35.6122 57.0185C36.8338 56.7904 38.0935 56.7292 39.1951 56.0227C39.675 55.7167 40.1931 55.8001 40.5857 56.2341C41.0275 56.7181 40.8148 57.2355 40.4876 57.6472C39.0533 59.4609 37.1174 60.6959 35.3723 62.1424C35.0451 62.415 34.5543 62.5041 34.2325 62.1146C33.9271 61.7474 34.2598 61.4081 34.4779 61.1132C34.8978 60.5513 35.4159 60.0284 35.116 59.2161C33.7363 59.5722 32.482 59.9894 32.1711 61.7586C32.0402 62.5041 31.0259 62.582 30.3442 63.0048C32.2911 60.5346 31.9694 57.2522 33.42 54.6263C32.1711 54.3759 31.1568 52.9294 31.3586 51.6943C31.4567 51.0935 31.7512 50.832 32.3838 50.8543C33.1309 50.8821 33.8017 51.1714 34.4997 51.3606L34.5597 51.2771C35.0124 49.9864 35.465 48.6957 35.9231 47.4105C36.5993 45.5134 37.9299 44.2116 39.6914 43.021C39.7514 44.028 39.2006 44.4675 38.7807 44.9904C37.8209 46.1866 36.7193 47.3271 36.8556 49.0684C38.2081 49.1185 39.0751 48.3674 39.7732 47.2826C40.842 45.6358 41.9818 44.0502 43.7105 43.0321C44.2668 42.7039 44.8121 42.2588 45.4884 42.6761C46.1537 43.0877 45.592 43.7053 45.6792 44.2227C46.1264 45.6803 44.8503 46.3646 44.2995 47.366C44.0377 47.8445 43.6015 48.2283 43.247 48.6512C42.9471 50.1199 41.7473 50.6985 40.6512 51.3494ZM44.8339 51.7055C44.2831 51.4941 43.2525 51.9169 43.247 51.1046C43.2416 50.3647 44.1795 50.2479 44.7358 50.1755C45.3902 50.1978 45.9628 50.1755 45.8974 50.9488C45.8428 51.5998 45.3357 51.9002 44.8339 51.7055ZM46.5572 37.3741C46.4318 37.8804 46.2736 38.3588 45.6738 38.459C43.8741 39.7497 42.5381 41.6635 40.4167 42.5481C41.0711 41.096 42.1945 40.0612 43.3615 39.1433C45.3411 37.5855 46.4263 35.655 46.2573 33.0792C46.1209 30.9929 46.3282 29.0513 47.8879 27.4546C48.3678 26.9594 48.5041 26.1972 48.5859 25.4851C48.5204 25.435 48.4605 25.3961 48.4005 25.3683C48.4605 25.3961 48.5259 25.435 48.5913 25.4907C50.4837 23.282 52.8286 22.2528 55.7189 22.581C56.5042 22.67 57.2895 22.5254 58.0312 22.2305C59.5145 21.6463 60.9815 21.4461 62.4157 22.3696C62.7538 22.5866 63.1465 22.6255 63.4519 22.3473C64.2263 21.6464 65.1479 21.7075 66.075 21.7409C66.2059 21.6686 66.3422 21.5907 66.4731 21.5184C68.1527 21.3404 69.7397 21.7799 71.3048 22.3307C73.1208 21.8689 74.4896 22.7757 75.5857 24.0275C77.0254 25.6631 78.5578 27.2431 79.6867 29.1403C79.9157 29.6577 80.1611 30.342 79.2122 29.9191C77.9852 29.3739 76.9763 29.5686 75.8202 30.1472C73.6497 31.2432 71.801 29.947 69.9796 28.9956C68.9216 28.4448 67.9073 27.7439 67.0075 26.9538C66.2713 26.3029 65.666 26.2918 64.9461 26.8259C64.668 27.4991 64.5916 28.3836 63.5282 28.2279C62.0994 27.5825 61.0469 26.6757 61.2705 24.8731C59.9781 24.8898 58.6801 24.9065 57.3877 24.9232C56.2806 24.8231 55.1736 24.684 54.0666 24.6283C52.8014 24.5616 51.5362 24.6061 50.6091 25.6965C49.6875 26.7869 49.9438 27.5881 51.3017 27.9163C52.5778 28.2223 53.8811 28.2167 55.1736 28.3169C55.299 28.7675 55.7299 28.9289 56.0025 29.246C56.3243 29.6132 56.946 29.908 56.6188 30.52C56.2806 31.1431 55.5608 31.5826 54.9718 31.2488C53.7175 30.5311 52.6378 31.1876 51.4816 31.399C47.5988 32.1111 46.9117 34.0695 46.579 37.3797L46.5572 37.3741Z" fill="#4BE41E"/>
<path d="M39.8768 148.826C38.9879 148.748 38.5243 147.797 37.6463 147.691C38.3116 145.304 38.0662 142.979 37.4882 140.592C36.8883 138.116 37.0137 135.529 37.0519 132.981C37.0792 131.329 37.0683 129.677 36.8447 128.041C38.0771 128.119 38.1153 127.034 38.497 126.283C39.6641 126.589 39.8877 125.916 39.8222 124.942C40.5148 125.187 40.8802 124.798 41.1038 124.213C41.4419 123.334 41.7527 122.444 41.7909 121.476C41.8673 119.39 41.8782 117.332 41.2074 115.301C40.8747 114.299 41.2674 113.003 39.9422 112.475C39.8004 110.138 39.9967 107.84 40.6675 105.587C41.6219 104.897 42.1127 103.979 42.1018 102.761C42.0854 101.031 42.1236 99.3005 42.1399 97.5758C43.127 97.893 43.3124 97.0585 43.5851 96.4632C43.9723 95.6064 44.234 94.694 44.5994 93.8261C44.9103 93.0862 45.4447 92.7413 46.0991 93.3977C46.6717 93.9763 46.9662 93.6425 47.3043 93.1863C48.2041 91.9624 48.7713 90.5604 49.2784 89.1417C49.8074 87.6563 50.5818 86.3322 51.5743 85.1305C52.3105 86.1597 53.7175 86.5714 54.072 87.9567C53.3903 88.9804 52.7196 90.0597 53.0195 91.3448C53.3794 92.8803 53.1176 94.3157 52.7032 95.7733C52.4469 96.669 52.0979 97.5536 52.136 98.5105L52.1469 98.4771C52.0488 98.7219 51.9561 98.9667 51.8579 99.2115C51.8634 100.302 51.3889 101.253 51.029 102.238C50.3528 102.783 50.4946 103.573 50.4673 104.291C50.4182 105.71 50.4564 107.128 50.3964 108.541C50.38 108.97 50.2273 109.838 49.8129 109.615C48.4659 108.903 48.7386 110.144 48.5313 110.633C48.0623 111.757 48.1223 112.942 48.4386 114.11C48.9731 116.08 49.1803 118.094 49.3275 120.124C48.5313 121.437 48.4004 122.806 48.6677 124.341C48.9512 125.96 48.9785 127.624 49.0603 129.271C49.3602 135.402 48.2478 141.538 49.0658 147.669C49.333 149.683 49.6002 151.702 50.151 153.661C50.271 156.236 50.2273 156.309 48.4986 156.526C48.335 156.364 48.1332 156.225 48.0078 156.036C46.5572 153.866 46.0064 151.396 45.6956 148.837C45.4665 146.968 45.292 145.071 44.5503 143.307C44.1577 142.378 43.5142 141.677 42.4562 141.738C41.3601 141.799 41.2728 142.79 41.082 143.602C40.6621 145.332 40.553 147.146 39.8768 148.826Z" fill="#4BE41E"/>
<path d="M92.7258 100.853C92.7203 100.825 92.753 100.791 92.7639 100.758C92.693 99.868 92.6439 98.9722 92.5349 98.0877C92.464 97.5313 92.3277 96.9805 92.1531 96.4464C92.0332 96.0904 91.7659 95.7176 91.3406 95.8289C90.8389 95.9569 90.997 96.4131 91.0679 96.7747C91.1388 97.1419 91.2806 97.5091 91.2915 97.8762C91.3133 98.7219 91.3569 99.6176 90.2935 99.9347C90.5171 101.426 91.3951 102.527 92.3713 103.573C92.5131 103.479 92.6494 103.384 92.7912 103.289C92.7912 102.544 92.7857 101.804 92.7857 101.064L92.7803 101.042C92.7585 100.981 92.7312 100.919 92.7258 100.853Z" fill="#4BE41E"/>
<path d="M97.0285 102.461C96.1887 102.538 95.4797 102.121 94.8417 101.687C94.1927 101.242 93.5601 100.964 92.7858 101.07C92.7858 101.81 92.7912 102.555 92.7912 103.301C93.0693 103.306 93.3475 103.312 93.6256 103.323C95.2834 103.412 95.7579 104.046 95.4143 105.71C95.3761 105.893 95.3543 106.088 95.2889 106.26C94.7108 107.712 95.3979 108.842 96.2159 109.91C96.6958 110.539 97.1376 110.544 97.6011 109.771C98.1519 108.853 98.0483 107.863 98.141 106.883C97.443 105.493 97.4811 103.913 97.0285 102.461Z" fill="#4BE41E"/>
<path d="M93.6856 98.7441C94.22 100.358 95.1198 101.543 96.9576 101.609C96.903 98.7386 96.0305 96.0459 95.2289 93.3365C94.8798 93.4533 94.5308 93.5702 94.1818 93.687L94.16 93.6536C93.8492 93.4255 93.6692 93.1307 93.7019 92.7301C93.6637 92.4519 93.6801 92.1459 93.5819 91.8956C93.3038 91.1946 93.0039 90.3267 92.0441 90.6883C91.0898 91.0444 91.6787 91.8288 91.8914 92.3685C92.693 94.4381 93.2166 96.58 93.6856 98.7441Z" fill="#4BE41E"/>
<path d="M110.853 81.67C111.856 84.9914 112.347 88.3906 112.303 91.8733C112.287 93.0973 112.189 94.3324 112.56 95.5396C112.707 96.0181 112.865 96.4409 113.438 96.4854C113.978 96.5244 114.31 96.2017 114.545 95.7733C115.008 94.9277 114.91 94.0041 114.665 93.1474C114.212 91.5896 114.125 90.0986 114.954 88.6299C115.232 88.1403 115.292 87.5895 115.216 86.9887C114.785 83.5393 113.443 80.2291 113.672 76.6741C113.678 76.5628 113.558 76.446 113.498 76.3347C113.056 76.4349 113.083 76.8354 112.942 77.1025C112.756 77.453 112.756 78.1206 112.271 78.0149C111.769 77.9036 111.458 77.2082 111.578 76.7631C111.807 75.9175 111.447 75.1775 111.442 74.3875C112.723 72.8131 112.205 71.2108 111.529 69.5974C111.333 69.119 111.093 68.6516 110.962 68.1565C110.858 67.7726 110.935 67.3053 111.475 67.4055C112.712 67.6336 112.56 66.7879 112.593 66.0257C112.647 64.6182 112.363 63.1828 112.898 61.8142C113.28 61.6918 113.661 61.5694 114.043 61.447C116.088 62.4262 116.557 64.2343 116.53 66.3206C116.524 66.7378 116.601 67.1829 116.743 67.5723C117.37 69.2692 116.71 70.788 116.175 72.3235C115.516 73.4473 115.259 74.6101 115.466 75.9508C115.772 77.9147 117.053 79.5059 117.332 81.4809C117.402 81.9927 117.751 82.6436 118.428 82.8328C119.573 86.1987 119.507 89.7704 120.156 93.2197C120.369 94.3491 120.075 95.6231 121.231 96.5355C121.694 96.9027 121.094 97.5202 120.685 97.893C120.593 97.6649 120.473 97.4089 120.222 97.4201C118.559 97.4813 116.901 97.5592 115.237 97.6537C114.927 97.6704 114.698 97.9152 114.719 98.2212C114.91 100.524 114.523 102.872 115.139 105.142C115.483 106.411 116.464 106.861 117.757 106.527C118.34 106.377 118.924 106.249 119.507 106.116C118.76 110.845 117.888 115.546 116.35 120.091C115.979 119.824 115.761 119.407 115.772 119.001C115.815 117.181 115.085 115.373 115.75 113.543C116.012 112.82 115.663 112.152 115.254 111.562C115.134 111.39 114.921 111.39 114.758 111.512C114.196 111.935 114.229 112.575 114.207 113.192C114.119 115.707 114.289 118.205 114.747 120.681C114.572 120.825 114.37 120.948 114.234 121.12C113.252 122.372 113.138 123.985 112.543 125.387C111.938 126.817 112.047 128.714 110.275 129.488C109.839 129.387 109.402 129.287 108.966 129.187C109.806 126.711 110.635 124.252 110.368 121.549C110.242 120.286 109.19 119.418 109.162 118.149C109.179 117.971 109.2 117.799 109.217 117.621C111.382 114.995 111.36 111.918 110.967 108.764C110.929 108.447 110.88 108.119 110.52 107.946C109.37 107.401 108.595 105.737 109.353 104.636C110.422 103.072 110.019 101.465 109.991 99.8735C109.959 98.2824 109.849 96.6634 109.2 95.1502C108.977 94.6217 108.786 93.9986 108.29 93.7593C106.817 93.0584 107.15 92.1515 107.81 91.0611C108.442 90.0152 108.382 88.8079 108.41 87.6173C108.437 86.3934 108.595 85.175 108.699 83.951C109.806 83.5616 109.833 82.1374 110.853 81.67Z" fill="#4BE41E"/>
<path d="M44.4031 187.197C45.8374 187.325 46.7317 188.087 47.168 189.5C47.4134 190.296 47.8224 191.036 48.1605 191.798C47.4734 192.56 47.1625 193.361 47.9478 194.257C47.9042 195.742 48.2314 197.128 48.7222 198.535C49.4639 200.666 50.4237 202.702 51.0454 204.894C52.0815 208.56 53.2649 212.221 56.0952 214.986C57.6658 216.527 58.5602 216.583 60.0708 215.014C60.7579 214.296 61.3632 214.218 62.1321 214.758C62.4375 214.975 62.7647 215.147 63.0919 215.337C64.4771 216.132 65.0824 216.049 65.9932 214.675C66.6748 213.645 67.6074 213.017 68.6326 212.466C70.1923 213.289 70.4486 213.172 71.1521 211.353C71.7465 211.348 71.981 210.947 71.9919 210.435C72.0083 209.617 72.5918 208.955 72.5154 208.115C72.4882 207.832 72.63 207.553 72.9572 207.492C73.2135 207.442 73.4425 207.565 73.5243 207.793C73.8352 208.677 74.6913 209.278 74.7622 210.285C74.8659 212.266 73.977 213.695 72.4282 214.814C70.6558 216.093 68.938 217.445 67.1929 218.758C66.8166 219.042 66.3476 219.264 66.713 219.865C67.5038 221.173 66.5112 220.983 65.7859 221.022C65.4642 220.761 65.1097 220.811 64.728 220.856C62.9992 221.072 62.4921 220.722 62.094 219.053C62.0176 218.741 61.854 218.552 61.5814 218.441C60.458 217.996 59.3564 217.49 58.2057 217.139C57.3986 216.894 56.5479 216.939 56.5969 218.185C56.6351 219.053 56.117 219.287 55.4299 219.487C54.3883 219.793 53.4067 219.298 52.3924 219.337C52.3924 219.136 52.3924 218.931 52.3924 218.73C52.5887 218.263 52.8232 217.807 52.7196 217.262C52.5505 216.366 51.5307 215.771 50.9308 216.288C50.4346 216.716 50.7127 217.423 50.5491 217.985C49.982 218.191 49.5075 218.04 48.9731 217.757C47.1462 216.789 45.5538 215.62 44.4031 213.796C43.3452 212.11 41.6819 210.986 40.2094 209.701C39.3478 208.95 38.8897 209.206 38.5734 210.296C38.3716 211.003 38.9443 212.093 37.8917 212.371C37.1446 212.572 36.5393 211.843 35.8849 211.515C32.8528 209.974 29.8752 208.343 27.8629 205.4C27.8575 204.838 27.6066 204.538 27.0286 204.583L26.9795 204.577C26.8759 201.729 25.8833 199.197 24.0183 197.128C21.9296 194.813 21.2207 191.865 20.1027 189.094C20.7626 189.211 21.4115 189.266 22.006 188.838C22.1041 188.871 22.1968 188.899 22.295 188.933C22.8512 190.223 23.3475 191.547 23.9801 192.799C25.7306 196.282 28.3755 199.225 29.8152 202.925C30.2461 204.037 31.4185 204.583 32.6238 204.788C33.3654 204.916 34.3797 205.039 34.4779 205.801C34.7724 208.071 35.9449 208.099 37.5973 207.398C37.7554 207.331 37.9681 207.348 38.1481 207.381C39.6968 207.637 40.0949 206.68 40.1331 205.395C40.1713 204.21 40.1058 203.025 40.1822 201.845C40.2749 200.443 41.1802 199.637 42.309 199.826C45.5265 200.36 45.6301 200.254 44.8721 197.055C44.8503 196.961 44.8339 196.872 44.8176 196.777C44.6976 196.427 44.6431 196.032 44.4467 195.726C43.7051 194.546 43.6342 193.356 44.3213 192.148C44.9594 191.03 45.1448 189.917 44.5285 188.71C44.2831 188.254 44.3159 187.714 44.4031 187.197ZM43.9941 207.904C43.9996 208.644 44.3322 209.284 45.1666 209.234C45.941 209.189 46.5245 208.677 46.6336 207.82C46.7154 207.197 45.6574 205.979 45.1121 206.107C44.2559 206.307 44.0868 207.064 43.9941 207.904Z" fill="#4BE41E"/>
<path d="M94.8253 155.969C95.038 156.876 95.6324 156.392 96.0142 156.236C97.1703 155.764 97.9283 154.796 98.73 153.872C99.6407 152.815 100.513 151.68 101.975 151.341L102.051 151.413C102.144 152.604 101.528 153.494 100.84 154.339C100.519 154.74 100.126 155.079 99.7607 155.446C99.0081 156.214 97.8629 157.132 98.6536 158.161C99.3026 159.001 100.622 158.523 101.642 158.1C102.618 157.694 103.354 156.765 104.511 156.771C101.751 160.253 98.321 162.812 94.3727 164.749C91.1825 166.312 87.9377 167.163 84.4148 166.401C81.4481 165.761 78.5687 165.789 75.673 166.941C73.8134 167.68 71.9483 167.102 70.165 166.234C69.1016 165.717 68.2291 164.698 66.893 164.838C66.1895 163.441 65.1261 162.351 63.9918 161.321C63.141 160.543 62.1103 159.858 62.4594 158.417C63.5773 158.84 64.1717 159.958 65.2242 160.52C66.9802 161.455 68.8726 161.906 70.7758 162.284C72.51 162.634 74.1297 163.347 75.8475 163.736C76.4801 163.881 77.3253 164.248 77.6907 163.391C78.0397 162.573 77.4508 161.945 76.8509 161.466C76.1201 160.887 75.373 160.348 74.5278 159.931C71.7792 158.579 69.4234 156.709 67.5637 154.217C66.8821 153.299 66.3967 152.298 66.2604 151.14C67.8092 151.608 69.587 151.619 70.5249 153.332C70.8194 153.866 71.1139 154.412 71.6265 154.757C74.4623 156.676 77.5162 157.867 80.99 157.716C81.5408 157.694 81.9771 157.605 82.2334 157.032C82.4952 156.453 82.4897 155.903 82.0807 155.446C81.7426 155.068 81.2791 154.812 80.9137 154.451C80.3247 153.872 79.9103 153.238 80.8537 152.609C81.3881 152.253 81.4372 151.808 81.2191 151.263C81.6663 150.54 81.9717 149.755 82.1625 148.926C83.7058 149.282 85.271 149.393 86.847 149.393C87.8668 149.393 88.8757 149.572 89.8518 149.878C90.8171 150.183 90.9207 150.734 90.1081 151.346C89.4047 151.875 88.5866 152.248 87.905 152.798C86.7379 153.744 86.847 154.573 88.2158 155.207C89.7373 155.914 91.2752 155.814 92.7694 155.051C93.3966 155.508 94.1218 155.714 94.8253 155.969Z" fill="#4BE41E"/>
<path d="M50.1401 153.655C49.5893 151.691 49.3275 149.677 49.0549 147.663C48.2369 141.532 49.3439 135.402 49.0494 129.265C48.9676 127.618 48.9403 125.949 48.6568 124.336C48.3896 122.806 48.5204 121.432 49.3166 120.119C49.7911 120.119 50.2655 120.119 50.74 120.119C50.7236 125.894 50.7127 131.668 50.6909 137.438C50.6854 140.041 51.2035 142.395 53.4285 144.064C54.6392 144.976 54.9446 146.462 55.1681 147.83C55.7026 151.118 57.464 153.772 59.0891 156.52C59.3509 156.965 59.7872 157.121 60.1853 157.349C59.5799 158.456 60.3162 159.441 60.4743 160.476C59.7817 160.487 59.0564 160.365 58.4238 160.709C57.3604 161.288 56.9187 160.704 56.5424 159.814C56.2752 159.174 56.3243 158.356 55.6753 157.928C53.9466 156.782 52.6814 155.313 52.087 153.249C51.9125 152.637 51.4107 151.964 50.6691 152.108C49.8293 152.264 50.2873 153.115 50.1401 153.655Z" fill="#4BE41E"/>
<path d="M60.4689 160.476C60.3107 159.441 59.5745 158.462 60.1798 157.349C61.0633 157.433 61.805 157.833 62.4648 158.412C62.1158 159.853 63.141 160.543 63.9972 161.316C65.1315 162.345 66.1949 163.436 66.8984 164.832C66.4731 165.194 66.0477 165.55 65.6278 165.911C64.6734 165.75 64.1935 164.971 63.6318 164.309C62.5575 163.046 61.5214 161.755 60.4689 160.476Z" fill="#4BE41E"/>
<path d="M6.32196 160.131C6.95456 160.059 6.98183 159.53 6.96547 159.057C6.87821 156.615 7.32539 154.128 6.32742 151.758C5.97295 150.907 6.0711 149.972 6.24016 149.093C6.45284 147.958 6.27288 146.84 6.26743 145.716C6.26198 143.046 4.98042 140.564 5.26945 137.866C5.3458 137.171 5.04041 136.687 4.28239 136.581C3.41529 136.459 3.28986 135.852 3.43711 135.107C3.5898 134.339 3.94973 133.916 4.80046 134.189C5.60211 134.445 5.96204 134.039 6.19108 133.26C6.48557 132.247 6.24016 131.162 6.67643 130.189C4.86045 129.71 4.54415 129.198 4.57687 126.778C4.5387 126.355 4.4678 125.933 4.46235 125.51C4.45689 123.101 4.56596 120.681 3.65524 118.372C3.508 117.999 3.37167 117.371 3.55708 117.142C4.77865 115.668 4.51143 113.893 4.47871 112.241C4.41872 108.947 5.72209 105.732 4.09152 102.31C2.96266 99.9514 3.2735 97.1364 5.8257 95.1947C7.02545 94.2823 7.09089 93.1474 5.84751 92.4019C4.19513 91.4116 4.50598 90.0486 4.43508 88.6299C4.39691 87.8788 4.23876 87.1333 4.07516 86.399C3.85702 85.4087 3.79703 84.4184 4.04789 83.4448C4.45144 81.8815 4.68049 80.307 4.5496 78.6881C4.49507 77.3918 4.31511 76.0788 5.00224 74.8771C5.80934 73.2025 5.38397 71.3444 5.74935 69.5974C5.8257 69.2303 5.95658 68.7963 5.5803 68.5571C5.15493 68.2845 4.74592 68.5571 4.46235 68.8575C4.14605 69.1857 3.84066 69.5807 3.6716 70.0036C2.75543 72.3124 2.18827 74.7102 2.55365 77.2082C2.92448 79.7229 2.79906 82.1986 2.34642 84.6799C1.98105 86.6827 1.49569 88.7467 2.37914 90.6828C2.90812 91.8456 2.57547 92.5132 1.80654 93.242C1.61567 93.4256 1.49569 93.6926 1.34845 93.9263C1.06487 94.7886 1.20666 95.6732 1.20666 96.5522C1.43025 96.5911 1.71383 96.5633 1.86653 96.6857C2.26463 97.0084 2.7827 100.207 2.53729 100.714C2.3028 101.203 2.2319 101.687 2.36278 102.221C2.69544 103.612 2.51548 104.981 2.37914 106.405C2.17191 108.58 1.55568 110.555 0.955807 112.625C0.0450877 115.768 -0.156689 119.218 0.44864 122.439C0.792205 124.252 1.04306 126.016 1.09759 127.835C1.11941 128.575 1.52842 129.165 1.85017 129.794C2.52094 131.112 2.34097 131.924 1.09759 132.737C0.612239 133.054 0.557706 133.593 0.225048 133.977C0.0450855 134.417 0.0341794 134.851 0.257769 135.274C0.557707 135.78 0.634056 136.498 1.343 136.642C2.92449 136.97 3.20261 137.371 2.93539 139.046C2.62455 140.998 2.75543 142.868 3.45347 144.759C3.96609 146.156 4.77865 147.574 4.42963 149.132C3.99881 151.04 3.98245 152.86 4.35328 154.807C4.63686 156.287 4.84409 157.778 5.25855 159.23C5.43306 159.786 5.68937 160.198 6.32196 160.131Z" fill="#4BE41E"/>
<path d="M20.0918 189.105C19.7101 188.421 19.0884 187.937 18.7721 187.169C18.0959 185.517 18.2486 184.81 19.7483 183.764C19.8464 182.78 19.9773 181.8 20.0373 180.81C20.1845 178.357 19.7428 177.789 17.3597 177.266C17.1361 177.216 16.8907 177.216 16.678 177.144C14.5075 176.387 12.108 175.914 11.8135 172.899C11.7372 172.109 11.1101 171.931 10.4338 171.753C9.69762 171.558 8.96141 171.18 10.0848 170.401C10.2702 169.856 10.4611 169.311 10.6465 168.765C10.6247 167.914 10.352 167.119 9.68127 166.657C9.00504 166.184 8.87961 165.883 9.51766 165.283C9.88304 164.943 10.2648 164.226 9.6649 163.964C8.67783 163.536 8.31246 162.684 7.72894 161.817C7.55443 163.402 6.70916 164.648 6.09292 165.989C5.66756 166.907 5.80934 167.875 6.17472 168.754C6.50738 169.555 6.46375 170.457 6.76369 171.191C7.61987 173.294 7.35266 175.67 8.73782 177.695C10.2212 179.87 11.2137 182.401 12.4243 184.777C12.5825 184.921 12.7406 185.061 12.8933 185.205C13.8477 186.162 14.9983 186.969 15.331 188.421C15.4891 188.593 15.6418 188.766 15.8 188.938C16.0945 189.305 16.3835 189.673 16.678 190.04C16.8961 190.763 17.3215 191.336 17.9214 191.781C17.9486 191.87 18.0032 191.943 18.085 191.993C18.1559 192.126 18.2268 192.26 18.2976 192.388C18.4122 192.532 18.5212 192.682 18.6303 192.827L18.6412 192.933L18.7448 192.955C19.1756 193.645 19.601 194.335 20.0318 195.025C20.1082 195.197 20.1791 195.37 20.2554 195.536C21.7769 197.673 22.4913 200.126 22.9985 202.669C22.9167 202.941 22.9003 203.203 23.1076 203.431C24.1764 204.583 25.6161 204.421 26.9686 204.588C26.865 201.74 25.8724 199.208 24.0074 197.139C21.9187 194.824 21.2098 191.876 20.0918 189.105Z" fill="#4BE41E"/>
<path d="M107.586 27.5213C110.002 29.335 112.233 31.4435 115.145 32.4783C115.516 32.6118 115.848 33.0903 116.257 32.7009C116.617 32.3559 116.464 31.8775 116.257 31.5103C115.417 30.0249 114.987 28.2612 113.4 27.2876C112.974 27.0262 112.707 26.531 112.571 26.0081C112.151 25.9914 111.78 25.8912 111.447 25.5741C110.613 24.7785 109.746 24.0442 108.639 23.6158C108.153 23.4266 107.248 22.9649 108.366 22.2695C108.017 21.8188 107.554 21.5796 106.997 21.5184C107.025 22.2138 106.856 22.7201 106.048 22.3306C105.012 21.8299 104.914 22.5866 105.143 23.1652C105.754 24.7174 106.141 26.4364 107.586 27.5213Z" fill="#4BE41E"/>
<path d="M113.503 41.9695C114.234 42.5092 114.867 43.1267 114.828 44.1615L114.839 44.1671C115.199 44.4897 115.265 45.1184 115.935 45.1184C116.917 45.1129 117.288 44.3451 116.803 43.1267C115.685 40.3116 113.765 38.064 111.785 35.8609C110.717 34.6703 109.473 33.6745 108.126 32.8288C107.739 32.584 107.259 32.3114 106.839 32.6786C106.501 32.9735 106.801 33.3852 106.883 33.7357C108.088 38.9875 108.093 38.9875 112.772 41.5634C113.012 41.6969 113.28 41.8026 113.503 41.9695Z" fill="#4BE41E"/>
<path d="M116.099 56.5346C115.537 53.9921 114.741 51.5219 113.645 49.1686C113.356 48.5399 113.062 47.4773 112.162 47.7833C111.387 48.0448 111.633 49.0907 111.796 49.6915C112.865 53.675 112.342 57.7974 112.903 61.8142C113.285 61.6918 113.667 61.5694 114.049 61.447C113.956 60.4568 114.627 59.8392 115.243 59.3163C116.17 58.5374 116.344 57.6361 116.099 56.5346Z" fill="#4BE41E"/>
<path d="M44.8012 196.783C44.2504 196.866 43.7923 196.627 43.3888 196.304C42.6798 195.748 41.9981 195.77 41.1856 196.126C40.3839 196.477 39.5114 196.699 38.6497 196.866C37.4118 197.111 36.5229 197.745 36.043 198.947C35.7431 199.698 35.225 200.254 34.4506 200.404C32.711 200.744 31.0368 200.56 29.5535 199.448C28.73 198.83 28.4301 198.001 28.5391 196.972C28.7954 194.563 28.2119 193.534 26.0197 192.56C24.8854 192.054 23.8601 191.547 23.8601 189.984C23.8601 189.027 23.1512 188.743 22.2786 188.933C22.8349 190.223 23.3311 191.547 23.9637 192.799C25.7143 196.282 28.3592 199.225 29.7989 202.925C30.2297 204.037 31.4022 204.583 32.6074 204.788C33.349 204.916 34.3634 205.039 34.4615 205.801C34.756 208.071 35.9285 208.099 37.5809 207.398C37.739 207.331 37.9517 207.348 38.1317 207.381C39.6804 207.637 40.0785 206.68 40.1167 205.395C40.1549 204.21 40.0894 203.025 40.1658 201.845C40.2585 200.443 41.1638 199.637 42.2926 199.826C45.5101 200.36 45.6137 200.254 44.8557 197.055C44.8394 196.966 44.823 196.877 44.8012 196.783Z" fill="#4BE41E"/>
<path d="M24.5909 157.789C24.2691 156.303 23.2166 155.152 21.9623 154.267C21.4661 155.079 20.6917 155.408 19.8082 155.552C19.5683 156.298 19.5683 157.032 19.8846 157.761C20.9207 160.125 21.4443 162.684 22.5513 165.027C22.993 165.956 23.3311 166.94 23.4566 167.986C23.6747 169.761 23.9201 171.536 24.1873 173.305C24.3019 174.056 24.6618 174.829 25.5016 174.612C27.154 174.19 27.5848 175.258 27.8411 176.454C28.0102 177.25 28.3319 177.85 28.9591 178.312C29.3353 178.835 29.7116 179.364 30.0879 179.892C30.726 179.642 31.3095 179.875 31.8875 180.115C32.302 179.364 32.3838 178.262 33.6326 178.39C33.7417 178.184 33.8071 177.917 33.9707 177.784C35.7267 176.387 35.7376 176.387 34.6851 174.345C34.407 173.806 34.0362 173.316 33.7308 172.788C32.6128 170.84 30.786 169.361 30.1206 167.107C30.017 166.757 29.8698 166.167 29.2863 166.412C28.7518 166.635 28.7246 167.13 28.9645 167.614C29.5371 168.749 29.5862 169.967 29.5698 171.208C29.5589 172.081 29.8152 172.821 30.8078 172.977C31.4076 173.071 31.6749 173.411 31.7512 174.012C31.8385 174.724 31.5113 175.18 30.9877 175.564C30.4915 175.931 30.017 175.836 29.5971 175.447C29.0845 174.974 28.4955 174.535 28.1192 173.962C26.9522 172.204 25.8234 170.407 24.7654 168.576C24.3073 167.786 23.7292 166.896 24.2528 165.917C25.6925 163.258 25.1689 160.493 24.5909 157.789Z" fill="#4BE41E"/>
<path d="M20.5553 142.907C20.2118 142.979 19.8682 143.057 19.5192 143.129C19.8846 144.876 20.2336 146.645 19.9827 148.425C19.8191 149.572 19.7864 150.645 20.3045 151.697C20.5881 151.786 20.8662 151.869 21.1498 151.958C21.117 151.074 21.7715 150.534 22.175 149.872C24.2309 146.523 23.7947 144.659 20.5553 142.907Z" fill="#4BE41E"/>
<path d="M86.7215 80.8689C87.2833 81.7145 87.8777 82.5324 88.3903 83.4058C88.9411 84.3405 89.6773 85.264 89.1538 86.4879C90.6098 86.8551 92.1313 87.0832 92.7421 88.858C92.873 89.2418 93.4892 89.0916 93.8982 89.1028C91.7169 82.4879 90.2335 75.6393 87.605 69.169C86.3016 65.9645 86.7924 65.4026 90.1845 65.92C90.3208 65.9423 90.4571 65.9645 90.5935 65.9868C90.5226 65.2079 90.7244 64.5347 91.4987 64.2788C92.3822 63.9839 92.5458 64.863 92.8785 65.3581C94.4218 67.678 95.4634 70.2094 95.8887 72.9911C95.8942 73.0356 95.8833 73.1024 95.9105 73.1302C97.7156 74.7324 96.5377 76.5795 96.2814 78.6825C95.7415 77.2916 95.2998 76.1623 94.8744 75.0329C94.6781 74.5099 94.6017 73.9091 93.9364 73.7477C95.6106 79.8897 97.2739 86.0317 98.9808 92.1626C99.2808 93.2364 99.0626 94.4603 99.8643 95.3894C99.9679 93.0917 99.308 90.9276 98.7409 88.7523C98.0319 86.0206 97.3721 83.2723 96.3632 80.6297C96.2323 80.2903 96.2432 79.9176 96.5813 79.7562C97.023 79.5448 97.0994 80.0177 97.2466 80.2792C97.5357 80.791 97.5193 81.3696 97.552 81.9371C97.6011 82.6492 97.7047 83.3557 98.2119 83.9121C98.37 84.0845 98.5773 84.2236 98.8281 84.1291C99.1171 84.0234 99.0681 83.7619 99.0408 83.5282C98.8499 82.0038 99.5534 80.4739 98.8281 78.9106C98.49 78.1873 99.0408 77.3639 99.7279 76.841C100.497 76.2568 100.677 77.3806 101.26 77.4085C101.598 76.8187 101.244 76.4182 100.89 76.0621C100.344 75.5113 100.012 74.8215 99.8206 74.1038C99.5643 73.1413 99.3516 72.2901 98.1246 72.2067C97.6338 72.1733 97.4539 71.5891 97.2739 71.1552C96.3032 68.8686 96.1014 66.3206 94.7435 64.073C96.1069 63.8393 96.6686 64.913 97.5629 65.1912L97.5738 65.2023C97.8847 65.308 98.0428 65.525 98.0319 65.8644C98.4409 67.9117 99.1553 69.8589 99.8588 71.8117C100.131 72.5572 100.491 73.2804 100.862 73.9814C101.037 74.3152 101.358 74.5767 101.773 74.5155C102.269 74.4376 102.258 73.9981 102.264 73.6309C102.275 72.7797 102.302 71.9396 102.16 71.0884C101.8 68.8964 100.611 66.9159 100.633 64.6349C100.001 64.0451 98.9645 64.2565 98.4682 63.2718C96.8703 60.1118 94.5417 57.4469 92.4694 54.6151C89.9936 51.2382 87.076 48.462 82.5497 48.4453C81.7699 49.469 80.5265 49.1463 79.2831 49.5135C80.9191 51.3884 82.986 52.4788 84.8947 53.4747C86.907 54.5261 88.8157 55.5442 90.3426 57.2411C90.6262 57.3412 90.8007 57.536 90.8552 57.8419C91.2261 58.3371 91.4224 58.8934 91.406 59.5221C89.5301 58.6319 87.6323 57.803 86.2417 56.1173C85.6745 55.433 84.8183 55.1047 84.0494 54.6875C83.8967 54.999 83.6731 55.3106 83.3132 55.1604C81.5463 54.4316 79.943 53.4691 79.0432 51.6443C78.9995 51.5608 79.1195 51.3939 79.1686 51.266C76.9109 50.3647 74.5823 49.7694 72.1501 49.6693C72.0192 50.9656 70.285 51.8557 68.8835 51.3105C68.5508 51.1825 68.2727 50.9044 67.9673 50.6985C66.6039 51.3995 65.2242 52.0616 63.7518 52.5011C63.8827 53.814 64.9734 54.0644 65.8895 54.426C67.5365 55.0714 69.3088 55.1826 71.0103 55.5999C72.5918 55.9893 74.2114 56.3955 75.4548 58.0311C74.026 58.0589 72.9953 57.4636 71.8828 57.2689C71.5611 57.4469 71.2502 57.6472 70.9176 57.7919C70.6449 57.9143 70.3286 58.0366 70.5686 58.3705C71.4138 59.5499 70.5849 60.1563 69.756 60.5791C68.5399 61.1967 67.2365 60.8851 66.6912 59.8336C66.0695 58.6319 65.2079 57.931 63.8881 57.8086C63.7627 57.9031 63.6373 57.9977 63.5064 58.0923C64.897 58.5485 64.2808 59.3385 63.8281 60.1007C63.7354 60.1953 63.6427 60.2954 63.5446 60.39C63.5446 60.39 63.5555 60.3789 63.55 60.3789C62.612 61.2801 61.6904 62.2037 60.7197 63.0715C60.3707 63.3831 59.9071 63.4777 59.4491 63.2162C59.4 63.5889 59.3509 63.9617 59.3018 64.34C60.0762 64.4068 61.0142 64.2287 61.0251 65.4916C61.8704 65.2524 62.7157 64.9909 63.5718 64.7739C67.1984 63.8337 70.8358 63.7781 74.3969 65.002C76.3055 65.6585 78.2851 66.3762 79.0977 68.596C79.7794 68.8853 80.5047 69.0967 81.1318 69.475C81.9226 69.9479 82.7133 70.4375 82.0862 71.7004C81.6881 72.5071 82.2389 73.3027 82.8769 73.7867C84.9328 75.3333 86.0235 77.6978 87.6814 79.5726C88.3739 80.3293 88.0685 80.7076 86.7215 80.8689Z" fill="#4BE41E"/>
<path d="M39.6041 50.7263C40.6839 48.4342 42.4399 46.7596 44.4031 45.2686C44.8394 44.9348 45.2593 44.5788 45.6901 44.2283C46.1373 45.6859 44.8557 46.3702 44.3104 47.3716C44.0486 47.85 43.6124 48.2339 43.2579 48.6567C42.0909 49.341 40.9238 50.0198 39.7513 50.6985L39.675 50.6929L39.6041 50.7263Z" fill="#4BE41E"/>
</svg>
