<svg width="104" height="175" viewBox="0 0 104 175" fill="none" xmlns="http://www.w3.org/2000/svg">
<path d="M91.9878 97.1927C92.4241 97.2929 92.8603 97.393 93.2966 97.4932C93.2803 97.6823 93.2803 97.8715 93.253 98.0551C93.1603 98.5892 92.7785 99.3013 93.4057 99.5683C93.9565 99.802 94.4037 99.1677 94.6763 98.6782C96.416 95.5793 97.9157 92.3915 97.763 88.6863C97.3049 86.2106 97.1304 83.7182 97.2231 81.1979C97.2449 80.5804 97.2122 79.9461 97.7739 79.5178C97.9375 79.3954 98.1556 79.4009 98.2701 79.5678C98.6791 80.1631 99.0282 80.8252 98.7664 81.5484C98.0956 83.3788 98.8264 85.1869 98.7882 87.0061C98.7773 87.4123 98.9954 87.8295 99.3663 88.0966C99.1045 90.4499 98.0411 92.5918 97.6812 94.9229C97.5339 95.8631 97.4412 96.7866 97.5503 97.7268C97.4248 98.9341 97.7793 100.214 97.1685 101.343C96.3614 101.026 96.4542 100.063 95.3962 99.5182C96.536 102.445 96.1106 105.076 95.6143 107.708C94.3001 109.961 93.662 112.475 93.0021 114.968C92.2332 117.872 91.1425 120.587 89.0975 122.818C88.983 122.94 88.9666 123.157 88.9012 123.335C88.2631 123.63 87.6251 123.931 87.5051 124.759L87.5106 124.754C86.3544 124.748 85.6182 125.677 84.6421 126.084C83.6223 126.506 82.2971 126.99 81.6536 126.145C80.8628 125.116 82.0081 124.198 82.7606 123.43C83.1206 123.063 83.5132 122.718 83.8404 122.323C84.5275 121.477 85.1492 120.587 85.0511 119.396C85.122 119.268 85.1111 119.235 84.9802 119.324C83.5187 119.658 82.6516 120.798 81.7354 121.855C80.9337 122.779 80.1757 123.752 79.0196 124.22C78.6379 124.376 78.0434 124.86 77.8307 123.953C78.2507 123.836 78.5451 123.536 78.8614 123.252C84.4512 118.239 87.5324 111.663 89.9973 104.703C90.8589 102.267 90.968 99.6017 91.9878 97.1927Z" fill="#37981A"/>
<path d="M96.4868 146.368C95.9851 147.497 95.4834 148.626 94.9817 149.756C93.422 150.93 91.6006 151.681 90.1063 152.972C88.3831 154.463 88.2467 155.019 89.3374 157.027C90.0518 158.34 89.6373 159.442 88.2467 159.937C87.5323 160.193 86.7852 160.121 86.049 160.154C84.991 160.204 83.9167 160.215 82.9624 161.022C83.3987 161.65 84.0967 161.806 84.6802 162.118C86.5126 163.108 86.5671 163.792 84.9092 165.005C84.5002 165.306 84.1294 165.656 83.7422 165.984C83.4914 166.062 83.355 166.246 83.2896 166.496L83.2787 166.518C82.7606 166.607 82.2425 166.696 81.7245 166.785C80.5083 165.895 80.2357 166.023 79.4068 167.859C78.6924 168.404 78.5724 169.328 78.0816 170.012C76.6691 169.773 75.2676 169.673 73.9097 170.274C72.4155 170.213 70.9213 170.157 69.427 170.096C67.4202 169.083 65.1352 169.601 63.0629 168.888C62.4794 168.688 61.5687 168.51 61.2033 168.977C60.7725 169.528 61.8304 169.862 61.9122 170.463C61.9231 170.552 61.9777 170.641 62.0104 170.724C58.9674 170.307 57.664 171.025 56.4043 173.845C56.0771 174.574 55.7172 175.27 54.9428 174.385C53.4704 172.711 51.5671 171.603 49.882 170.207C47.8534 168.527 45.5956 167.253 42.9507 166.863C42.9889 166.062 43.0162 165.261 43.0816 164.46C43.1307 163.887 42.9507 163.431 42.4872 163.119C41.931 162.746 41.511 163.164 41.1239 163.464C40.6876 163.803 40.3058 164.221 39.9023 164.605C38.4244 165.089 37.7755 164.432 37.4101 162.975C37.0447 161.511 36.5103 160.009 34.5689 160.031C33.4782 159.269 32.3384 159.214 31.1605 159.792C30.8278 159.03 30.4134 158.29 30.1734 157.495C29.7371 156.076 28.8428 155.314 27.4085 155.191C27.2504 153.862 27.4249 152.465 26.4924 150.874C26.5796 152.271 26.6451 153.266 26.7269 154.513C25.7398 153.667 25.5598 152.421 24.54 151.97C23.8965 150.674 22.7568 150.001 21.5025 149.478C20.8972 149.222 20.4009 149.311 20.15 149.984C19.801 150.935 19.0866 151.358 18.1596 151.492C17.9905 151.225 17.8214 150.958 17.6524 150.685C18.6831 148.721 18.4322 147.642 16.649 146.396C16.758 146.19 16.8235 145.923 16.9871 145.789C18.7431 144.393 18.754 144.393 17.7015 142.351C17.4233 141.811 17.0525 141.322 16.7471 140.793C15.6292 138.846 13.8023 137.366 13.137 135.113C13.0334 134.762 12.8861 134.173 12.3026 134.418C11.7682 134.64 11.7409 135.135 11.9808 135.619C12.5535 136.754 12.6025 137.973 12.5862 139.213C12.5753 140.087 12.8316 140.827 13.8241 140.982C14.424 141.077 14.6912 141.416 14.7675 142.017C14.8548 142.729 14.5276 143.185 14.0041 143.569C13.5078 143.937 13.0334 143.842 12.6134 143.453C12.1008 142.98 11.5119 142.54 11.1356 141.967C9.96854 140.209 8.83968 138.418 7.78172 136.582C7.32364 135.792 6.74558 134.902 7.26911 133.922C8.70335 131.258 8.17982 128.498 7.59631 125.789C7.27456 124.303 6.22205 123.152 4.96777 122.267C4.99504 121.388 4.32972 120.765 4.16066 119.958C4.12794 119.074 4.78235 118.534 5.1859 117.872C7.23638 114.517 6.80011 112.659 3.56079 110.901C6.56562 108.514 6.56561 104.987 3.57169 103.073C2.69915 101.688 2.95001 99.98 2.31741 98.528C2.33923 96.208 2.85184 93.966 3.29902 91.7128C3.92617 90.2607 4.48242 88.7864 4.6951 87.2064C5.83486 85.1813 7.0237 83.184 7.39453 80.8029C7.70538 78.8056 7.90715 76.8028 7.87989 74.7777C8.86695 75.0615 9.00874 75.7513 8.79606 76.6637C8.627 77.3981 8.44159 78.1436 8.39796 78.8891C8.36524 79.5122 8.57792 80.2076 9.27596 80.3189C9.96309 80.4246 10.1758 79.7681 10.3176 79.2118C10.6284 77.9767 10.9011 76.7361 11.1901 75.4954C11.6209 73.6372 12.728 72.0683 13.3224 70.2714C14.9093 65.4757 16.8944 60.8525 19.1194 56.3294C19.6592 55.2335 20.3464 54.0874 20.2809 52.8801C20.1555 50.627 20.979 49.0636 22.8658 47.9954C23.3512 47.9954 24.0165 47.8063 23.9402 48.6464C23.8202 49.9148 23.6075 51.3168 22.8768 52.2515C21.039 54.5992 19.6756 57.2085 18.3995 59.8622C17.3906 61.9652 16.3599 64.1238 16.4308 66.5717C16.4472 67.0835 16.1909 67.8902 16.8726 68.0349C17.4779 68.1628 17.7451 67.4118 18.0069 66.9445C18.754 65.637 19.2557 64.2128 19.7792 62.7997C20.5427 60.7301 20.9844 58.5214 22.266 56.6744C22.5496 56.2627 22.9149 55.7119 23.4603 55.9011C23.9293 56.068 23.6402 56.6466 23.6511 57.0471C22.6532 59.445 21.8133 61.904 21.1317 64.4131C20.739 65.8707 20.5481 67.3839 20.679 68.9139C20.7008 69.1865 20.6627 69.5426 20.9681 69.6538C21.2735 69.7651 21.4861 69.4925 21.6497 69.2755C21.8461 69.0196 22.0424 68.7414 22.1514 68.4354C23.4385 64.758 24.0383 60.9304 24.5073 57.0805C25.3799 55.2168 26.1924 53.4142 25.718 51.1777C25.4235 49.8036 25.5107 48.4183 26.1542 46.8605C27.2558 44.1956 28.5101 41.6142 29.9444 39.1774C31.1768 37.0912 31.6949 35.2219 30.6915 32.9965C30.6751 32.9575 30.6806 32.9019 30.6751 32.8574C30.5551 31.767 29.9389 32.0618 29.4317 32.468C28.5538 33.169 28.4011 34.2149 28.3792 35.2775C28.3302 37.2469 28.1993 39.1719 26.247 40.2901C25.4126 39.5446 24.5782 38.8715 24.7691 37.4917C24.9218 36.4013 25.7071 35.9062 26.356 35.2664C27.6485 33.9923 27.7739 33.3526 26.8359 31.8783C26.4378 31.2496 26.3233 30.6265 26.4215 29.8698C26.7378 27.472 28.4556 26.1257 30.0752 24.7293C31.3841 23.5999 32.7529 22.5484 33.8763 21.2187C35.5614 19.2215 35.4414 18.3536 33.3418 16.9739C32.1694 16.2005 32.033 15.455 32.9219 14.2923C33.6909 13.2909 34.6398 12.4174 35.3105 11.3548C36.8211 8.95697 38.0481 6.34217 40.7203 5.00695C40.2077 4.24476 39.2206 4.48955 38.9861 3.6606C39.7496 3.24891 40.5894 3.07088 41.4129 3.19328C43.3925 3.48814 45.2957 3.24891 47.1662 2.60912C49.3749 1.85806 51.3217 2.2308 53.1541 3.72736C54.4138 4.75659 55.6899 5.80252 57.2278 6.40337C57.5604 6.53133 57.964 6.83731 58.2639 6.55358C58.6184 6.22533 58.1985 5.87484 58.073 5.5466C57.2169 3.3268 55.2863 2.67032 53.2795 2.11397C54.8337 0.828825 57.2332 1.44636 58.1494 3.3101C58.5257 4.07786 58.9456 5.39639 59.8345 5.01252C60.5925 4.68984 59.769 3.5994 59.42 2.97074C58.8965 2.03052 59.2728 1.53538 60.0581 1.2127C61.7868 0.495023 63.5319 0.0555098 65.4351 0.661922C66.7058 1.06805 68.0473 1.32397 69.3834 0.812137C69.7651 0.845517 69.9615 1.15707 70.2232 1.37404C70.3105 1.68559 70.5668 2.10285 70.4523 2.29201C69.6397 3.62723 70.5559 4.27258 71.3957 4.94575C71.9738 5.41308 72.5409 5.94161 73.1953 6.2476C76.0965 7.60507 78.1961 9.84156 80.1539 12.334C81.2773 13.7638 82.4116 15.3772 84.5002 15.5329C88.2904 22.9823 90.9953 30.8601 93.3675 38.8659C93.7165 40.0398 94.0928 41.2025 94.4582 42.3708C94.4582 43.1608 94.8181 43.9008 94.5945 44.7464C94.4745 45.1915 94.7799 45.8869 95.2871 45.9982C95.7724 46.1039 95.7724 45.4363 95.9578 45.0858C96.0996 44.8187 96.0724 44.4182 96.5141 44.318C96.5741 44.4293 96.6941 44.5461 96.6886 44.6574C96.4596 48.2124 97.8011 51.5227 98.2319 54.972C98.3083 55.5728 98.2483 56.1236 97.9702 56.6132C97.1412 58.0819 97.2285 59.5674 97.6811 61.1307C97.9265 61.9874 98.0301 62.911 97.5612 63.7566C97.3267 64.185 96.994 64.5132 96.4541 64.4687C95.8815 64.4242 95.7234 64.0014 95.5761 63.5229C95.2053 62.3212 95.3034 61.0862 95.3198 59.8567C95.3634 56.374 94.8726 52.9803 93.8692 49.6534C93.8474 48.2959 94.0764 46.9162 93.7274 45.5865C93.5584 44.9467 93.4329 43.9397 92.6749 43.9675C91.955 43.9954 91.8187 44.9356 91.6715 45.6366C91.2188 47.7451 91.6442 49.8425 91.7369 51.9455C91.6333 53.1694 91.4751 54.3878 91.4479 55.6118C91.4206 56.8023 91.4806 58.0096 90.848 59.0555C90.1881 60.1459 89.8555 61.0528 91.3279 61.7538C91.8242 61.993 92.0096 62.6161 92.2386 63.1446C92.8876 64.6523 92.9967 66.2768 93.0294 67.868C93.0621 69.4535 93.4656 71.0614 92.3913 72.6303C91.6387 73.7318 92.4131 75.3953 93.5584 75.9405C93.9183 76.113 93.9673 76.4468 94.0055 76.7583C94.3982 79.9072 94.42 82.9893 92.255 85.6153C92.0532 85.6208 91.8514 85.632 91.6442 85.6431C91.6278 85.5318 91.606 85.415 91.5897 85.3037C91.6006 84.625 92.1841 83.5902 91.1916 83.4288C90.3517 83.2953 90.2536 84.3802 90.0845 85.0979C90.0518 85.2314 90.0573 85.376 90.0464 85.5151C89.7519 86.077 89.4574 86.6334 89.1684 87.1953C88.9066 87.1118 88.6503 87.0284 88.3885 86.9393C88.3831 86.0993 88.3994 85.2536 88.3612 84.4136C88.2249 81.2758 88.7921 78.1492 88.5358 75.0114C88.4867 74.2158 88.3722 73.4203 88.4049 72.6247C88.563 69.0919 88.1922 65.5814 87.985 62.0653C87.9086 60.7746 87.9086 59.4171 87.2269 58.2266C86.7143 57.1528 86.5235 55.9011 85.5582 55.0777C85.5255 54.9108 85.4928 54.7439 85.46 54.577C85.4219 54.4546 85.3891 54.3266 85.351 54.2042C84.9202 52.6242 85.1546 50.983 84.9147 49.3863C85.2255 49.2806 85.5364 49.1693 85.8472 49.0636C87.0961 50.9552 87.8486 53.1027 88.803 55.1444C89.0211 55.6062 89.272 56.246 89.8555 56.0735C90.4335 55.9011 90.1336 55.2446 90.0736 54.8218C89.4683 50.8105 89.1465 46.7548 88.2467 42.7992C87.576 39.8617 87.0361 36.8686 85.52 34.2149C85.1001 33.4805 84.7511 32.5292 83.6277 32.6071C82.9951 32.0173 81.959 32.2287 81.4627 31.244C79.8648 28.084 77.5362 25.4191 75.464 22.5873C72.9881 19.2103 70.0705 16.4342 65.5442 16.4175C64.1754 15.2103 62.9266 13.8973 61.705 12.5287C59.2292 9.74697 56.0989 7.89992 52.6033 6.72048C52.1397 6.5647 51.5453 6.26428 51.1963 6.77055C50.9018 7.19893 51.3054 7.67739 51.5671 8.05014C52.2815 9.06824 53.3013 9.74141 54.3156 10.4146C55.5263 11.2213 56.726 12.0502 58.1712 13.035C55.1118 13.9307 52.3524 13.9028 49.5821 13.9251C46.0974 13.9529 43.0434 15.2548 41.0257 18.1756C39.5696 20.2897 37.9009 22.1367 36.0576 23.8614C35.845 24.0617 35.5287 24.2341 35.5723 24.8016C39.237 23.0714 42.7926 21.2187 46.7409 20.4677C46.8717 21.7806 47.9624 22.031 48.8786 22.3926C50.5255 23.038 52.2979 23.1493 53.9993 23.5665C55.5808 23.9559 57.2005 24.3621 58.4439 25.9977C57.0151 26.0255 55.9844 25.4303 54.8719 25.2355C52.6687 24.2953 50.411 23.8447 48.0224 24.3398C47.2153 24.5067 46.7954 24.9129 46.8826 25.7752C46.7572 25.8698 46.6263 25.9643 46.5009 26.0589C45.7156 26.4372 44.9358 26.8155 44.1505 27.1827C43.4906 27.4887 43.1416 27.9672 43.2834 28.7349C42.9507 28.9741 42.6181 29.2022 42.2909 29.447C41.8601 29.7697 41.162 29.9978 41.2111 30.582C41.2656 31.1773 42.0564 30.9046 42.449 31.1773C42.3999 31.55 42.3509 31.9227 42.3018 32.3011C41.1511 32.7406 40.055 33.4026 38.7516 33.2023C38.0754 32.3456 37.4483 32.4958 36.8702 33.3136C36.5212 33.8032 36.194 34.3095 35.8613 34.8102C35.8013 34.838 35.7468 34.8769 35.6977 34.927C34.6288 35.6335 34.0344 36.7963 33.1346 37.6642C32.2184 38.8158 31.5858 40.0398 32.0712 41.7422C33.2546 40.7519 33.8436 39.5669 34.3398 38.3151C34.8852 38.1482 35.3051 37.8088 35.6868 37.3916C36.2594 37.386 36.7502 37.1357 37.2465 36.8798C39.5042 35.7337 41.7674 34.5932 44.0305 33.4471C44.8758 33.2079 45.7211 32.9464 46.5773 32.7295C50.2038 31.7892 53.8412 31.7336 57.4023 32.9575C59.311 33.614 61.2905 34.3317 62.1031 36.5515C60.4398 36.6461 58.7602 36.3679 57.1023 36.6962C56.1207 36.8909 55.0791 37.2358 54.9155 38.3707C54.7737 39.3332 55.5917 39.9452 56.2898 40.5182C57.3641 41.3973 58.6402 41.8312 59.9054 42.2985C61.9995 43.0663 64.1481 43.7005 65.975 45.0691C67.4093 46.1373 68.4181 47.6505 69.7215 48.8522C70.2832 49.6979 70.8776 50.5157 71.3903 51.3891C71.941 52.3238 72.6773 53.2473 72.1537 54.4713C70.8122 55.3614 70.954 56.7022 71.1939 58.0152C71.5157 59.7732 72.0174 61.4923 72.1537 63.2837C72.2792 64.8915 72.6718 66.4382 73.2935 67.9236C73.5171 69.4146 74.3951 70.5162 75.3712 71.5621C75.5785 75.0003 75.5512 78.444 75.2404 81.8711C74.8913 85.7321 74.3515 89.5486 72.301 92.9478C71.941 93.5431 71.5757 94.1607 71.4775 94.8839C70.0542 96.0355 69.3452 97.7991 67.9982 99.0398C65.2443 101.582 59.6436 100.681 58.7656 97.4765C58.7111 96.8756 58.3239 96.4417 58.0021 95.9966C57.4895 95.2901 56.5843 94.9173 56.3716 93.9548C56.3116 92.0966 55.8753 90.3219 55.1718 88.6139C55.1773 88.2412 55.1609 87.8629 55.1827 87.4957C55.3136 85.2147 55.5536 85.0534 57.7404 85.771C57.7022 88.4582 58.542 90.9228 59.9981 93.0758C61.7868 95.7184 63.6682 96.2303 66.1877 95.151C69.5797 93.6933 71.1667 91.4513 71.0031 88.3413C71.0303 87.0228 71.0849 85.7098 71.0794 84.3913C71.0685 82.2605 70.8722 82.0157 68.849 81.2313C68.2764 79.5845 67.1202 78.2493 66.504 76.6081C65.746 74.5886 65.855 72.8361 67.4802 71.3284C68.9417 69.9709 68.3091 68.3019 68.1509 66.7052C68.6581 66.5939 68.7508 66.9611 68.9035 67.3283C69.5961 68.9862 69.5688 70.7498 69.6561 72.4912C69.7488 74.2437 70.2996 75.8236 71.1339 77.3258C71.4339 77.871 71.892 78.1603 72.5137 78.088C73.2553 77.999 73.2989 77.3703 73.3807 76.8139C73.4353 76.4468 73.4244 76.0629 73.3917 75.6901C73.0317 71.5955 71.2594 67.9792 69.5906 64.3463C69.1216 63.3227 68.3909 62.1599 66.8857 63.0501C64.9225 61.5702 61.3451 61.4812 59.2237 62.8553C58.4384 63.3616 58.1058 64.0682 58.2094 65.0139C58.2857 65.7316 58.5693 66.377 58.8365 67.0279C58.8202 67.7511 58.6075 68.4021 58.1876 68.9973C57.8004 69.5481 57.6695 70.1824 57.6749 70.8611C57.6804 71.5454 57.9312 71.7846 58.6129 71.6066C59.7472 71.3117 60.598 70.6219 61.2196 69.6594C61.6014 69.0697 62.0377 68.8082 62.7084 68.9751C62.7902 69.0029 62.8775 69.0252 62.9647 69.0363C63.0574 69.1364 63.1502 69.2366 63.2483 69.3311L63.2374 69.3423C64.6117 71.7568 64.7153 74.4662 64.9062 77.1366C64.9661 77.9878 65.1297 78.7445 65.7678 79.2841C66.7167 80.0797 67.3547 81.1145 68.0419 82.1214C67.9492 82.5164 67.8564 82.917 67.7692 83.312C67.5892 83.1006 67.4093 82.8892 67.2184 82.6833C66.7876 82.2104 66.4277 81.465 65.6914 81.6597C64.8898 81.8711 65.2824 82.6833 65.2279 83.2397C65.1679 83.8461 64.9334 84.0964 64.339 83.9685C64.2027 83.9407 64.0663 83.8962 63.93 83.8962C63.3192 83.9073 62.5012 83.4733 62.1795 84.23C61.8141 85.0756 62.7248 85.4094 63.2047 85.8378C63.6628 86.2495 64.1427 86.5944 64.1918 87.2787C63.7119 88.4971 63.2974 89.7099 64.6935 90.6446C65.217 91.2454 65.7296 91.8518 66.2695 92.436C66.8857 93.1092 66.6403 93.3818 65.8605 93.5042C63.87 93.8213 61.6723 92.6975 60.7179 90.9005C59.8727 89.3149 59.6164 87.6125 59.6491 85.8434C60.298 85.81 60.7234 85.3927 61.1269 84.9365C61.1651 84.8475 61.2087 84.7585 61.2469 84.6695C61.2578 84.4748 61.2742 84.2856 61.2851 84.0909C61.4869 83.8238 61.6886 83.5568 61.8959 83.2897C63.0029 82.0435 62.8829 81.5762 61.3124 81.0755C60.1181 80.725 59.1092 81.6652 57.9531 81.5651C57.2768 79.7959 56.268 78.266 54.8828 76.992C54.8283 75.5677 55.9026 74.5608 56.1971 73.2645C56.3716 72.0294 55.6681 71.7346 54.6919 71.9126C53.165 72.1963 51.9652 73.003 51.1199 74.3716C50.2147 75.8348 49.7184 77.4537 49.2767 79.0894C48.5841 81.6652 47.7497 84.1576 45.6611 85.9713C44.3141 86.5388 43.507 86.1048 43.3925 84.6528C43.2888 83.3343 43.3761 82.0102 43.5997 80.6972C44.1178 77.6596 45.1157 74.7499 45.7865 71.7568C45.901 71.245 46.3155 70.5162 45.6447 70.2769C45.023 70.0544 44.5977 70.7276 44.2923 71.2672C44.1341 71.551 44.036 71.8736 43.9214 72.1852C42.4654 76.2465 41.511 80.4302 40.9275 84.7029C40.5458 87.5068 40.0768 90.3275 40.7639 93.1593C40.0059 95.2956 40.7039 97.3819 40.993 99.4849C41.102 102.511 41.9473 105.365 43.1089 108.108C44.7558 112.003 46.1192 116.081 49.2494 119.124C49.3858 120.281 49.8657 121.288 50.5528 122.2C52.4124 124.693 54.7628 126.562 57.5168 127.914C58.3621 128.331 59.1092 128.876 59.8399 129.449C60.4398 129.922 61.0288 130.557 60.6798 131.374C60.3089 132.237 59.4691 131.864 58.8365 131.719C57.1241 131.33 55.5045 130.618 53.7648 130.267C51.8616 129.883 49.9747 129.438 48.2133 128.504C47.1662 127.942 46.5663 126.823 45.4484 126.401C44.7885 125.822 44.0469 125.427 43.1634 125.338C42.7653 125.11 42.3291 124.949 42.0673 124.509C40.4422 121.761 38.6807 119.101 38.1463 115.819C37.9227 114.45 37.6173 112.965 36.4067 112.053C34.1871 110.384 33.6636 108.036 33.669 105.427C33.6854 99.6518 33.7018 93.8769 33.7181 88.1077C34.1217 86.6501 34.4762 85.1758 34.5961 83.6625C34.9506 79.3064 35.4523 75.0003 37.5028 71.0391C38.0863 69.9097 38.3426 68.6302 38.3753 67.3339C38.3917 66.7664 38.419 66.0821 37.7264 65.9319C37.0556 65.7817 36.7448 66.3992 36.5103 66.9055C36.0358 67.9403 35.7741 69.0418 35.5668 70.1657C35.425 70.9557 35.2669 71.7512 34.8197 72.4411C34.6834 72.6525 34.498 72.8027 34.2526 72.7638C33.9417 72.7193 33.9581 72.4244 33.9526 72.2074C33.9472 71.5454 33.9744 70.8833 33.9908 70.2213C34.3453 69.2366 34.8197 68.2797 34.8197 67.1948C34.9179 66.95 35.0106 66.7052 35.1087 66.4604L35.0978 66.4938C36.832 62.8609 39.0352 59.4394 39.8205 55.3892C42.2145 53.4365 43.7688 50.8217 45.1975 48.1401C45.6993 47.1999 45.432 46.4822 44.1723 46.5434C43.3434 46.5879 42.5199 46.5712 41.7183 46.8828C38.5935 48.09 35.9704 49.8815 34.547 53.1138C33.5545 54.3155 32.7801 55.6396 32.2512 57.125C31.744 58.5437 31.1768 59.9457 30.277 61.1696C29.9389 61.6258 29.6499 61.9596 29.0718 61.381C28.4174 60.7246 27.883 61.0639 27.5721 61.8094C27.2122 62.6773 26.9504 63.5897 26.5578 64.4465C26.2851 65.0418 26.0997 65.8763 25.1127 65.5592C25.0527 65.1641 25.2054 64.6801 24.6164 64.4576C23.9402 65.3478 23.6948 66.3881 23.673 67.4841C23.6402 69.5147 23.6457 71.5454 23.6348 73.576C22.9695 75.8237 22.7731 78.1269 22.9095 80.4635C22.4896 81.6931 22.4568 82.9671 22.5168 84.2411C22.5986 85.9324 23.1331 87.6181 22.8004 89.2982C22.555 90.5389 22.6368 91.7183 22.7895 92.9312C22.8604 93.9048 22.6368 94.5724 21.4643 94.2719C21.2953 91.9297 21.6497 89.5486 21.0062 87.2398C20.8317 86.6056 20.6245 85.7377 19.9592 85.7432C19.3048 85.7488 19.332 86.6723 19.2066 87.2342C18.5468 90.2218 19.1303 93.1314 19.8065 96.03C20.0301 97.6712 20.041 99.3235 20.0137 100.97C19.9755 103.518 19.8501 106.1 20.45 108.581C21.028 110.973 21.2734 113.299 20.6081 115.68C20.0355 116.67 19.8119 117.805 20.161 118.829C21.328 122.245 21.5734 125.85 22.3859 129.333C22.8713 135.252 24.96 140.726 26.9504 146.223C27.4631 147.642 28.232 148.955 29.3772 149.984C29.6499 150.229 29.9389 150.602 30.3206 150.479C30.7842 150.329 30.7787 149.795 30.8224 149.4C30.9914 148.026 30.5279 146.774 29.9389 145.589C28.9955 143.692 27.9212 141.867 27.0159 139.953C25.8107 137.4 24.8127 134.757 24.4964 131.903C25.4344 132.404 25.9088 133.299 26.4378 134.178C27.3649 135.719 28.0738 137.422 29.4372 138.657C28.5156 139.43 28.8373 140.465 29.3227 141.116C29.8898 141.878 30.7024 141.11 31.3895 140.86C33.44 146.546 36.5266 151.558 40.9384 155.636C42.6726 157.239 44.4232 158.852 46.4082 160.159C45.0994 161.511 45.1539 161.706 46.9481 162.223C47.2589 162.312 47.5698 162.396 47.8752 162.496C49.3094 162.975 50.0238 162.696 50.7218 161.317C50.9073 160.949 51.0054 160.532 51.1472 160.132C52.4833 160.187 53.574 161.005 54.8064 161.361C55.7826 161.645 56.7533 162.051 57.7513 161.433C58.4166 161.016 58.6075 160.616 57.8331 160.082C57.026 159.525 56.2843 158.869 55.4772 158.318C52.4179 156.243 49.2549 154.496 45.3666 155.28C43.4797 153.845 41.6365 152.365 40.2295 150.401C40.1204 150.251 40.0168 150.09 39.9459 149.917C39.6023 149.044 39.875 148.61 40.8076 148.799C41.6201 148.966 42.4218 149.205 43.218 149.439C44.1559 149.717 44.385 150.29 43.7633 151.097C43.5833 151.33 43.3161 151.486 43.6706 151.748C44.0142 152.003 44.2105 151.748 44.2868 151.469C44.5868 150.34 45.1812 150.557 45.8738 151.058C46.0919 151.213 46.3809 151.403 46.6318 151.191C46.8608 150.991 46.7845 150.652 46.7136 150.385C46.5391 149.75 46.3155 149.127 46.1355 148.493C46.0374 148.142 45.8138 147.742 46.1573 147.436C46.4845 147.147 46.8663 147.341 47.2044 147.48C47.5043 147.603 47.8043 147.742 48.0606 147.937C52.1179 151.041 56.8024 152.827 61.5141 154.54C62.5776 154.93 63.6737 155.069 64.7589 154.557C65.6315 154.958 66.4658 154.974 67.2457 154.323C67.5565 154.535 67.8619 154.746 68.1727 154.958C69.2743 156.015 70.5886 156.482 72.0937 156.426C72.1374 157.45 71.4721 157.656 70.665 157.767C68.2273 158.095 65.8823 157.445 63.5046 157.105C62.4521 156.955 61.1433 156.271 60.4289 157.422C59.7581 158.502 60.8706 159.436 61.416 160.304C61.9831 161.205 61.9886 161.706 60.8488 161.884C60.3307 161.623 59.949 161.033 59.2346 161.289C58.2421 161.645 56.7424 163.876 56.7315 164.983C56.726 165.612 56.8951 166.135 57.4513 166.402C58.0076 166.669 58.3675 166.246 58.782 165.912C59.7527 165.128 60.0963 163.881 60.9524 163.025C62.4412 164.532 64.1645 164.421 65.9587 163.753C68.4236 162.835 70.7467 161.539 73.2662 160.755C74.3296 161.005 75.3985 161.178 76.4946 161.178C76.4837 161.595 76.3965 162.029 76.4837 162.424C76.6419 163.164 77.0727 163.742 77.8853 163.703C78.6269 163.664 79.1723 163.242 79.3686 162.463C79.7122 161.116 78.8723 160.187 77.4981 160.371C77.1981 159.959 76.8927 159.547 76.5928 159.136C76.6582 158.68 76.9309 158.374 77.2799 158.118C80.0775 156.081 82.4498 153.561 84.8656 151.091C85.7763 150.156 86.6761 149.188 87.0797 147.881C87.1779 147.564 87.2924 147.191 87.0197 146.946C86.698 146.646 86.4362 147.002 86.169 147.158C85.5527 147.519 85.0401 148.026 84.7075 148.643C83.6059 150.674 81.8662 151.675 79.7067 152.065C78.3488 152.309 77.1981 152.944 76.1674 153.895C75.3549 154.646 74.5369 155.475 73.299 155.447C72.65 154.59 71.7938 154.045 70.8067 153.695C69.8688 152.521 70.1469 151.631 71.2648 150.707C72.7863 149.45 74.5369 148.782 76.3801 148.276C78.905 147.581 81.2337 146.479 83.4805 145.11C85.7872 143.703 87.2651 141.55 88.8357 139.452C89.9427 139.119 90.3245 139.53 90.2699 140.699C90.2263 141.611 89.7301 142.512 90.1609 143.536C92.0478 142.407 92.1732 140.576 92.2386 138.718C92.6531 136.593 93.7274 134.724 94.48 132.732C94.9871 132.543 95.5052 132.365 96.0069 132.153C97.174 131.653 98.0192 131.825 98.2864 133.255C98.2428 133.806 98.1937 134.356 98.1501 134.913C97.7738 135.875 96.7977 136.482 96.6177 137.561C95.4289 140.487 94.9163 143.408 96.4868 146.368ZM58.8092 169.128C58.9292 169.167 59.0165 169.406 59.1855 169.206C59.0656 169.172 58.9456 169.144 58.8256 169.111C58.6238 168.365 58.1385 168.009 57.195 167.87C57.6095 168.705 58.0403 169.133 58.8092 169.128ZM27.7903 52.5853C27.6921 50.104 29.2627 48.1457 30.0971 45.7256C28.1938 46.599 26.6614 49.5866 26.5033 52.2904C25.9525 53.4365 26.0397 54.5436 26.716 55.6118C27.2231 56.4129 27.7194 56.3016 28.1829 55.5784C28.9028 54.4657 28.3083 53.5255 27.7903 52.5853ZM82.8751 31.5333C83.0878 29.6974 83.0878 29.6974 84.6311 30.5708C84.8656 30.7044 85.1383 30.9047 85.3837 30.6432C85.6509 30.3539 85.4873 30.0145 85.3564 29.7196C84.0149 26.7599 82.357 23.9838 80.6065 21.2688C80.1048 20.4899 79.3795 20.0059 79.1123 21.5136C79.0523 21.853 78.8723 21.9865 78.5342 21.9642C77.5253 21.9086 77.5581 22.6986 77.6017 23.3273C77.6726 24.3732 78.2288 25.1855 79.0796 25.7696C79.8648 26.3093 80.4375 27.0158 80.8737 27.8782C81.5063 29.1132 82.2044 30.3149 82.8751 31.5333ZM13.4369 121.316C13.4369 119.964 12.9297 119.368 11.7518 119.441C10.6884 119.508 9.87583 119.903 9.88674 121.21C9.9031 122.495 10.9883 124.47 11.7191 124.476C12.3953 124.487 13.4424 122.556 13.4369 121.316ZM46.5445 40.5627C47.657 40.0732 49.1294 39.8784 50.0402 38.61C50.5964 37.8311 50.2801 37.2414 49.413 37.3471C47.9733 37.5251 46.6918 38.1705 45.7483 39.3722C45.5411 39.6392 45.432 39.9563 45.612 40.2901C45.7702 40.5739 46.0592 40.5683 46.5445 40.5627ZM38.8443 26.2091C38.8607 25.8086 38.6862 25.5248 38.2826 25.6361C37.5301 25.8419 36.7175 26.0033 36.0849 26.4205C35.485 26.8155 34.9779 27.5221 35.2287 28.3455C35.3705 28.8128 35.894 28.9741 36.3848 28.9185C37.1429 28.8351 38.8116 26.9713 38.8443 26.2091ZM10.1758 109.772C10.0176 109.021 9.95218 108.225 9.00329 108.258C8.20164 108.286 7.72174 108.792 7.7381 109.621C7.75446 110.389 8.13074 111.018 8.92149 111.073C9.78313 111.135 10.0558 110.456 10.1758 109.772ZM21.497 73.0475C21.497 72.48 21.5243 72.2408 21.4916 72.0127C21.4316 71.6344 21.6879 71.028 21.1153 70.9779C20.6736 70.939 20.4663 71.4508 20.4118 71.8848C20.3027 72.8138 20.1555 73.7374 20.2864 74.6776C20.33 74.9947 20.3246 75.4008 20.7608 75.4008C21.0935 75.4008 21.1644 75.0615 21.2135 74.7889C21.3389 74.1046 21.4425 73.4147 21.497 73.0475ZM4.60784 99.7352C4.52604 100.575 4.83689 101.093 5.50765 101.176C6.12934 101.26 6.59288 100.815 6.6147 100.186C6.63651 99.4515 6.19478 98.9563 5.46403 98.8729C4.78235 98.795 4.64056 99.3013 4.60784 99.7352ZM87.1506 153.467C86.8943 152.883 86.5071 152.282 85.869 152.393C85.1601 152.521 85.0456 153.322 84.9747 153.945C84.9092 154.518 85.291 154.73 85.8636 154.702C86.6652 154.668 86.9761 154.168 87.1506 153.467ZM36.7175 154.368C36.7502 153.533 36.4885 153.166 35.6759 153.172C34.8906 153.177 34.7761 153.583 34.7325 154.223C34.6725 155.113 35.2069 155.403 35.9049 155.453C36.7448 155.514 36.6575 154.819 36.7175 154.368ZM32.8728 27.3107C31.215 27.9393 31.215 27.9394 30.8878 29.1466C31.8149 28.9686 32.2457 28.301 32.8728 27.3107ZM54.7846 166.641C54.5938 166.151 54.4629 165.562 53.8085 165.461C53.4976 165.417 53.274 165.589 53.3286 165.951C53.4104 166.48 53.5849 166.952 54.1902 167.053C54.4901 167.103 54.741 167.041 54.7846 166.641ZM10.3503 134.501C10.3394 134.112 10.1921 133.794 9.7395 133.755C9.36867 133.722 9.12326 133.9 9.05237 134.278C8.98147 134.646 9.07963 134.946 9.49409 134.985C9.85947 135.024 10.2467 135.046 10.3503 134.501ZM25.5217 62.1822C26.3397 61.7872 26.6232 61.2809 26.5796 60.5688C26.5742 60.4964 26.3397 60.3574 26.2688 60.3908C25.5217 60.6967 25.5871 61.3532 25.5217 62.1822ZM20.6681 80.0908C20.7172 79.7904 20.57 79.6568 20.2973 79.6568C20.0355 79.6568 19.8665 79.8071 19.8556 80.0797C19.8447 80.3356 19.9537 80.5526 20.2264 80.5526C20.5045 80.5581 20.5918 80.3133 20.6681 80.0908Z" fill="#37981A"/>
<path d="M102.524 74.1268C101.94 74.2659 101.351 74.3883 100.773 74.5385C99.4808 74.8723 98.4992 74.4161 98.1556 73.1532C97.5448 70.8889 97.932 68.5412 97.7357 66.2323C97.7084 65.9264 97.9429 65.6816 98.2538 65.6649C99.9116 65.5703 101.575 65.4924 103.238 65.4312C103.489 65.4201 103.609 65.6815 103.702 65.9041C103.484 66.2045 103.227 66.4938 103.222 66.9055C102.513 67.5564 102.158 68.352 102.355 69.3367C102.562 70.3882 102.736 71.4453 103.184 72.43C102.96 72.9975 102.742 73.5649 102.524 74.1268Z" fill="#37981A"/>
<path d="M48.6223 133.911C49.0477 133.55 49.473 133.194 49.8929 132.832C51.229 132.693 52.1016 133.717 53.165 134.228C54.9483 135.096 56.8133 135.675 58.6729 134.935C61.5687 133.778 64.4481 133.755 67.4148 134.395C70.9377 135.157 74.1824 134.306 77.3727 132.743C81.321 130.807 84.7566 128.248 87.5106 124.765L87.5051 124.771C88.2195 124.554 88.7594 124.153 88.9012 123.346C89.3157 123.446 89.6156 123.235 89.8937 122.962C90.2809 122.579 90.7935 122.256 91.2516 122.551C91.6661 122.818 91.557 123.497 91.3661 123.875C89.8228 126.935 89.6865 130.178 89.9646 133.522C90.0573 134.646 89.2066 135.514 88.5358 136.365C85.0075 140.86 80.3612 143.58 74.995 145.038C71.5266 145.984 68.1891 147.213 64.9989 148.871C62.9048 149.962 60.7725 149.917 58.5039 149.4C55.9517 148.81 53.5904 147.686 51.0872 147.002C50.6946 146.896 50.4765 146.59 50.1929 146.357C49.8439 144.838 48.9222 143.647 48.0824 142.401C47.4335 141.444 46.5282 140.643 46.43 139.347C46.3428 138.178 46.8717 137.667 47.9788 138.056C48.5023 138.24 48.9986 138.523 49.4785 138.807C51.6108 140.064 53.8412 141.116 56.0989 142.106C57.9367 142.913 59.7963 143.703 61.8741 143.163C63.4992 143.058 65.0752 142.657 66.6513 142.284C67.3439 142.212 68.0364 142.162 68.7236 142.062C71.952 141.572 75.1422 140.938 77.7272 138.685C78.1471 138.317 78.8397 137.928 78.5615 137.205C78.3216 136.587 77.689 136.42 77.0564 136.359C73.419 136.003 69.9942 136.988 66.6022 138.128C65.7024 138.223 64.9389 138.618 64.279 139.247C63.4283 137.811 62.2995 138.712 61.2579 138.879C59.4419 138.607 57.6041 138.451 55.8208 138.023C53.0559 137.361 50.5637 136.114 48.6223 133.911Z" fill="#37981A"/>
<path d="M19.861 17.0796C21.2135 17.1296 22.0806 16.3786 22.7786 15.2937C23.8475 13.6469 24.9872 12.0614 26.716 11.0433C27.2722 10.715 27.8175 10.2699 28.4938 10.6872C29.1591 11.0989 28.5974 11.7164 28.6846 12.2283C28.2593 12.5732 27.8394 12.9348 27.3976 13.2686C25.4344 14.7541 23.6784 16.4286 22.5986 18.7263C21.7752 19.2549 21.2953 20.0616 20.8808 20.9239C19.7301 21.113 18.9558 21.9475 18.0996 22.6374C17.9196 22.5595 17.7451 22.4872 17.5651 22.4093C17.4942 22.0533 17.4234 21.6972 17.3579 21.3411C17.5433 20.6958 17.5651 20.0337 17.5052 19.3661L17.5651 19.2827C19.1139 19.3995 19.2557 17.9864 19.861 17.0796Z" fill="#37981A"/>
<path d="M7.84717 55.4505C7.73265 55.5784 7.61813 55.7119 7.49816 55.8399C6.49473 55.2223 5.99846 54.2766 5.82941 53.1194C5.64399 51.8231 5.60582 50.4934 5.16409 49.2417C5.30588 49.1026 5.45312 48.9635 5.59491 48.8244C5.85122 48.8133 6.11299 48.8077 6.3693 48.7966C9.2487 50.4656 7.95624 53.0916 7.84717 55.4505Z" fill="#37981A"/>
<path d="M1.23218 53.0749C2.05564 54.0151 2.15926 55.2279 2.45919 56.3684C2.68278 57.2252 2.92819 58.0764 3.16814 58.9276C3.16814 59.2614 3.16814 59.5952 3.16814 59.929C3.03726 60.3351 2.9391 60.7913 2.35558 60.6411C1.84296 60.5076 1.37942 60.2239 1.24854 59.6898C0.708656 57.4922 0.583224 55.278 1.23218 53.0749Z" fill="#37981A"/>
<path d="M4.7769 79.5011C4.44424 77.9266 3.62078 76.4412 3.97525 74.7499C4.67874 74.1713 5.26771 73.3479 6.35839 73.6149C6.16752 75.5621 5.97665 77.5149 5.78579 79.4621C5.45313 79.4732 5.11501 79.4899 4.7769 79.5011Z" fill="#37981A"/>
<path d="M7.57995 72.0739C7.55813 71.1114 7.57995 70.1601 8.07621 69.2922C9.2487 70.3326 9.07964 71.2895 7.57995 72.0739Z" fill="#37981A"/>
<path d="M87.2924 101.21C86.5235 110.172 82.6298 117.421 75.7803 123.046C74.286 123.808 72.7482 123.908 71.2267 123.202C69.8579 122.567 69.7488 121.738 70.9158 120.793C71.5975 120.242 72.4155 119.869 73.119 119.341C73.9261 118.734 73.8225 118.178 72.8627 117.872C71.8865 117.566 70.8777 117.388 69.8579 117.388C68.2764 117.382 66.7167 117.277 65.1734 116.921C64.1863 116.075 64.8462 115.513 65.5497 115.101C66.6185 114.478 67.7474 113.966 68.849 113.41C69.6616 113.51 70.3105 113.01 71.0358 112.781C73.9697 111.93 76.6801 110.684 78.8996 108.442C79.6904 107.641 80.6284 106.906 82.0244 106.923C81.6918 107.641 81.4027 108.219 81.1628 108.815C81.0483 109.104 80.7974 109.471 81.0865 109.738C81.4464 110.072 81.8172 109.766 82.0626 109.516C83.0879 108.481 84.0804 107.429 84.473 105.938C84.8002 104.703 85.122 103.463 85.5801 102.278C85.8418 101.577 86.2017 100.692 87.2924 101.21Z" fill="#37981A"/>
<path d="M49.0858 96.5974C49.124 95.9298 49.0368 95.3012 49.5657 95.0508C50.1274 94.7893 50.5746 95.2845 50.82 95.7073C52.4451 98.4779 54.4956 100.915 56.4752 103.418C56.7806 103.808 57.0805 104.403 56.6661 104.842C56.2898 105.243 55.7281 104.887 55.4063 104.631C52.9359 102.662 49.7566 101.315 49.2222 97.5766C49.1676 97.1983 49.1186 96.8255 49.0858 96.5974Z" fill="#37981A"/>
<path d="M97.5557 127.591C97.2122 127.558 96.8632 127.524 96.5196 127.491C96.9177 126.356 97.3103 125.221 97.703 124.092C98.2865 123.519 98.8755 122.951 99.688 122.15C98.99 124.186 98.7937 126.089 97.5557 127.591Z" fill="#37981A"/>
<path d="M31.4877 124.515C31.4986 125.166 31.5095 125.817 31.5259 126.467C31.1441 127.68 30.8606 128.932 30.3589 130.089C29.7644 131.469 28.6192 131.619 28.0139 130.317C25.9798 125.95 23.5203 121.739 22.8768 116.82C23.553 115.14 23.6675 113.332 24.0711 111.585C24.2619 110.767 24.3492 109.783 25.4453 109.722C26.5087 109.66 27.1522 110.361 27.5394 111.29C28.2811 113.054 28.4556 114.951 28.6847 116.82C29.0009 119.38 29.5463 121.85 30.9969 124.02C31.1223 124.214 31.3241 124.353 31.4877 124.515Z" fill="#37981A"/>
<path d="M62.1467 19.2604C64.0991 19.9169 65.7242 21.063 67.033 22.6819C66.8803 22.9934 66.6567 23.305 66.2968 23.1548C64.5299 22.426 62.9266 21.4635 62.0268 19.6387C61.9831 19.5553 62.1031 19.3884 62.1467 19.2604Z" fill="#37981A"/>
<path d="M50.9454 18.6874C52.1779 17.6581 53.6449 17.6248 55.1282 17.6581C54.9973 18.9544 53.2631 19.8446 51.8616 19.2994C51.5289 19.1714 51.2508 18.8988 50.9454 18.6874Z" fill="#37981A"/>
<path d="M48.1315 15.9502C50.0947 14.3869 52.0089 14.3646 53.9448 14.4759C54.1684 14.487 54.4247 14.6317 54.4084 14.9099C54.3811 15.3327 53.9939 15.3772 53.6885 15.4439C51.9816 15.8334 50.2474 15.8 48.1315 15.9502Z" fill="#37981A"/>
<path d="M74.7114 107.368C74.2751 104.408 75.2894 102.072 77.629 100.292C77.9998 100.008 78.3325 99.6907 78.8342 99.6907C79.7067 102.433 77.7599 106.061 74.7114 107.368Z" fill="#37981A"/>
<path d="M88.8794 139.486C89.3865 137.455 90.7935 135.914 91.7424 134.128C91.8351 133.956 92.2387 133.961 92.495 133.883C92.5005 134.167 92.5005 134.445 92.5059 134.729C92.2987 134.985 92.2496 135.285 92.2823 135.603C92.266 136.281 91.9388 136.832 91.5734 137.372C90.9626 138.279 91.2407 138.718 92.2769 138.751C92.2114 140.61 92.086 142.44 90.1991 143.569C89.7683 142.546 90.2645 141.639 90.3082 140.732C90.3682 139.564 89.981 139.152 88.8794 139.486Z" fill="#37981A"/>
<path d="M80.0285 70.4605C80.0067 70.1768 79.9794 69.8931 79.9576 69.6093C79.903 66.7386 79.0305 64.0459 78.2289 61.3365C77.9507 59.8678 77.629 58.4158 76.8982 57.0972C74.7169 50.4823 73.2335 43.6338 70.605 37.1635C69.3016 33.959 69.7924 33.3971 73.1845 33.9145C73.3208 33.9367 73.4571 33.959 73.5935 33.9812C73.9807 34.2205 74.0406 34.66 74.2315 35.0271C75.3549 37.1691 75.9384 39.5391 76.9364 41.7311C78.6106 47.8731 80.2739 54.0151 81.9808 60.146C82.2807 61.2197 82.0626 62.4437 82.8642 63.3728C83.0878 65.9542 83.4532 68.53 83.3223 71.1282C83.2405 72.7471 82.9079 74.2437 81.1573 74.8723C80.4429 73.4926 80.4811 71.9126 80.0285 70.4605Z" fill="#37981A"/>
</svg>
